<svg width="24" height="25" viewBox="0 0 24 25" fill="none" xmlns="http://www.w3.org/2000/svg">
<path opacity="0.8" fill-rule="evenodd" clip-rule="evenodd" d="M14.6689 0.0542853C14.4584 0.149803 14.2401 0.415659 14.201 0.624057C14.1837 0.716447 14.1769 1.242 14.1859 1.79202C14.2038 2.88641 14.2152 2.9288 14.5612 3.18714C14.7631 3.33788 15.2577 3.33788 15.4596 3.18714C15.8149 2.92186 15.8186 2.90632 15.8186 1.65228C15.8186 0.582815 15.8119 0.504034 15.7111 0.36889C15.6519 0.289692 15.5422 0.179105 15.4673 0.123161C15.2947 -0.00567414 14.88 -0.0414413 14.6689 0.0542853ZM10.0833 1.51735C9.99729 1.55557 9.87497 1.64321 9.81146 1.71214C9.74801 1.78107 8.6165 3.87809 7.29697 6.37219L4.89791 10.9069L8.66186 14.6722L12.4258 18.4375L12.7405 18.2634C12.9136 18.1676 14.897 17.1097 17.1481 15.9125C19.3992 14.7153 21.3299 13.679 21.4385 13.6097C21.5472 13.5403 21.682 13.4083 21.7381 13.3162C21.8663 13.1061 21.8753 12.6772 21.7554 12.4957C21.582 12.2333 10.9641 1.64248 10.7762 1.54457C10.5526 1.42798 10.3062 1.41829 10.0833 1.51735ZM19.6768 2.56106C19.5908 2.5998 19.0824 3.074 18.547 3.61478C17.4998 4.67273 17.4551 4.74213 17.5377 5.18213C17.5858 5.43875 17.8977 5.75065 18.1543 5.79877C18.5997 5.88235 18.659 5.84319 19.7644 4.73785C20.6364 3.86578 20.7958 3.68241 20.826 3.51624C20.952 2.82311 20.2994 2.28061 19.6768 2.56106ZM20.5084 7.56361C20.0057 7.78744 19.8645 8.45576 20.2317 8.87396C20.4649 9.13956 20.6369 9.17001 21.7978 9.15098C22.9212 9.13257 22.9599 9.1224 23.219 8.77521C23.3698 8.57333 23.3698 8.07874 23.219 7.87686C22.9574 7.52644 22.9284 7.51909 21.7457 7.50537C20.9281 7.49588 20.629 7.50996 20.5084 7.56361ZM3.19407 14.2301C2.47414 14.9545 1.82522 15.6528 1.75202 15.7819C1.30024 16.5786 1.33867 17.6497 1.84639 18.4121C1.94295 18.557 2.65089 19.2996 3.41963 20.0623C4.58852 21.2219 4.87091 21.4753 5.14479 21.61C5.95847 22.0103 6.93377 21.9547 7.66434 21.4664C7.79036 21.3821 8.45648 20.749 9.14461 20.0594L10.3957 18.8056L7.44937 15.8592L4.50307 12.9129L3.19407 14.2301ZM0.100112 19.1559C-0.319031 20.7864 0.614616 22.5337 2.21538 23.1148C2.80674 23.3294 3.71645 23.3596 4.25343 23.1824L4.43784 23.1215L4.10619 22.9367C3.65394 22.6845 0.840429 19.9036 0.454498 19.3273C0.310491 19.1122 0.186297 18.9295 0.178476 18.9212C0.170655 18.913 0.135409 19.0185 0.100112 19.1559ZM10.1837 21.3808C9.40729 22.1355 8.72688 22.7788 8.67166 22.8104C8.58063 22.8624 8.63428 22.9314 9.2491 23.5532C10.1384 24.4526 10.4566 24.7158 10.823 24.8547C11.8669 25.2506 12.9677 24.8158 13.4623 23.8123C13.6176 23.4971 13.6287 23.4377 13.6287 22.9249C13.6287 22.1088 13.5125 21.8993 12.4669 20.8308C12.0225 20.3766 11.6446 20.0059 11.6271 20.0069C11.6096 20.0079 10.9601 20.6261 10.1837 21.3808Z" fill="white"/>
</svg>
