<svg width="28" height="35" viewBox="0 0 28 35" fill="none" xmlns="http://www.w3.org/2000/svg">
<path fill-rule="evenodd" clip-rule="evenodd" d="M20.7994 0.777562C21.0163 2.76272 20.2212 4.7577 19.0397 6.19084H19.0398C17.8583 7.62485 15.9193 8.73869 14.0212 8.5915C13.7625 6.6457 14.7211 4.61557 15.8158 3.34709C17.0373 1.9148 19.0964 0.846146 20.7994 0.777562ZM27.8306 25.6468C27.6255 25.5636 23.3439 23.8256 23.2972 18.7898V18.7899C23.2596 14.5884 26.6495 12.524 26.9393 12.3475C26.9454 12.3438 26.9501 12.3409 26.9534 12.3389C24.9652 9.42235 21.8687 9.02196 20.7658 8.97591C19.1541 8.81226 17.5905 9.43034 16.3137 9.93506C15.503 10.2555 14.8079 10.5303 14.2895 10.5303C13.7111 10.5303 12.9964 10.2462 12.1944 9.92745C11.1445 9.51011 9.94493 9.03334 8.70601 9.057C5.8334 9.09884 3.18665 10.7301 1.70569 13.3063C-1.27549 18.4939 0.94471 26.1791 3.85003 30.3882C5.2717 32.4461 6.96626 34.7638 9.19152 34.6794C10.1874 34.6401 10.8953 34.338 11.6272 34.0256C12.4714 33.6653 13.3475 33.2914 14.7342 33.2914C16.059 33.2914 16.8967 33.6546 17.7022 34.0038C18.4714 34.3372 19.2112 34.658 20.3176 34.6375C22.623 34.5949 24.0866 32.5372 25.4966 30.4718C27.0737 28.162 27.7546 25.9233 27.8319 25.6689C27.8346 25.6602 27.8365 25.6538 27.8378 25.6498C27.8369 25.6494 27.8344 25.6484 27.8306 25.6468Z" fill="#0B0B0B"/>
</svg>
