<svg width="164" height="164" viewBox="0 0 164 164" fill="none" xmlns="http://www.w3.org/2000/svg">
<circle cx="82" cy="82" r="61" fill="white"/>
<path fill-rule="evenodd" clip-rule="evenodd" d="M81.9994 13.6665C44.2589 13.6665 13.666 44.2593 13.666 81.9998C13.666 119.74 44.2589 150.333 81.9994 150.333C119.74 150.333 150.333 119.74 150.333 81.9998C150.333 44.2593 119.74 13.6665 81.9994 13.6665ZM58.0827 64.9165C58.0827 61.7757 58.7013 58.6657 59.9032 55.764C61.1052 52.8623 62.8668 50.2257 65.0877 48.0049C67.3086 45.784 69.9451 44.0223 72.8468 42.8204C75.7485 41.6185 78.8586 40.9998 81.9994 40.9998C85.1401 40.9998 88.2502 41.6185 91.1519 42.8204C94.0536 44.0223 96.6901 45.784 98.911 48.0049C101.132 50.2257 102.894 52.8623 104.095 55.764C105.297 58.6657 105.916 61.7757 105.916 64.9165C105.916 71.2596 103.396 77.3429 98.911 81.8281C94.4257 86.3134 88.3424 88.8332 81.9994 88.8332C75.6563 88.8332 69.573 86.3134 65.0877 81.8281C60.6025 77.3429 58.0827 71.2596 58.0827 64.9165ZM124.762 116.057C119.647 122.492 113.144 127.687 105.74 131.256C98.3347 134.825 90.2193 136.674 81.9994 136.667C73.7794 136.674 65.664 134.825 58.2592 131.256C50.8544 127.687 44.3515 122.492 39.2364 116.057C50.3132 108.11 65.4285 102.5 81.9994 102.5C98.5702 102.5 113.686 108.11 124.762 116.057Z" fill="#0B0B0B"/>
</svg>
