<svg width="25" height="25" viewBox="0 0 25 25" fill="none" xmlns="http://www.w3.org/2000/svg">
<path opacity="0.8" d="M6.24905 0.349825C7.67992 1.39262 8.79408 2.81599 9.74549 4.17801L10.2988 4.98421L10.8208 5.7541C11.082 6.13558 11.1936 6.5998 11.1345 7.05829C11.0754 7.51678 10.8497 7.93751 10.5004 8.2403L8.05799 10.0542C7.93999 10.1395 7.85693 10.2646 7.82423 10.4064C7.79154 10.5482 7.81143 10.6971 7.88022 10.8254C8.43354 11.8306 9.41751 13.3279 10.5442 14.4545C11.6721 15.5812 13.2394 16.6303 14.3148 17.2462C14.4496 17.3219 14.6083 17.343 14.7583 17.3053C14.9082 17.2676 15.038 17.1739 15.121 17.0434L16.7108 14.6235C17.0031 14.2353 17.4343 13.9752 17.9141 13.8977C18.3939 13.8202 18.885 13.9314 19.2847 14.2079L20.1147 14.7825C21.6657 15.8591 23.3319 17.0822 24.6063 18.7134C24.8084 18.9735 24.937 19.2831 24.9786 19.6099C25.0202 19.9367 24.9734 20.2686 24.8429 20.5711C23.7951 23.016 21.1437 25.0978 18.3858 24.9964L18.0103 24.9752L17.7186 24.9501L17.3956 24.9126L17.0438 24.865L16.662 24.8024C16.5952 24.7904 16.5284 24.7778 16.4617 24.7649L16.0411 24.6747C15.9675 24.6586 15.8941 24.6419 15.8208 24.6246L15.3626 24.507L14.8806 24.3693L14.3774 24.2065C12.0664 23.4229 9.13333 21.8831 6.12386 18.8736C3.11564 15.8654 1.57586 12.9323 0.792191 10.6213L0.629449 10.1181L0.491744 9.63612L0.37407 9.17794L0.276425 8.7448C0.248221 8.60914 0.22193 8.47309 0.197557 8.33669L0.134965 7.95487L0.08489 7.6031L0.0485862 7.28012L0.0235489 6.98844L0.00351921 6.61288C-0.0978815 3.8638 2.0065 1.19358 4.44011 0.150779C4.73302 0.0242999 5.05377 -0.0238547 5.37091 0.0110409C5.68804 0.0459365 5.99065 0.162683 6.24905 0.349825ZM16.4329 4.85026L16.5781 4.86654C17.4894 5.02727 18.3263 5.47236 18.9691 6.13802C19.6118 6.80368 20.0273 7.65573 20.156 8.57204C20.2018 8.88899 20.1245 9.21146 19.9399 9.47313C19.7553 9.7348 19.4774 9.91576 19.1634 9.97879C18.8494 10.0418 18.5232 9.9821 18.2519 9.81194C17.9806 9.64179 17.7848 9.37413 17.7048 9.06402L17.676 8.92006C17.6257 8.5609 17.4724 8.22401 17.2347 7.9501C16.997 7.67618 16.685 7.47697 16.3365 7.37651L16.1425 7.3327C15.8282 7.27698 15.547 7.10328 15.3565 6.84711C15.1659 6.59094 15.0805 6.27167 15.1176 5.95458C15.1547 5.6375 15.3115 5.34657 15.556 5.1413C15.8005 4.93602 16.1142 4.83191 16.4329 4.85026ZM16.4429 1.04461C18.435 1.04461 20.3455 1.83596 21.7541 3.24458C23.1628 4.65319 23.9541 6.56368 23.9541 8.55577C23.9538 8.87484 23.8316 9.18174 23.6125 9.41375C23.3935 9.64577 23.0941 9.78539 22.7756 9.80409C22.4571 9.82279 22.1434 9.71915 21.8988 9.51436C21.6541 9.30957 21.4968 9.01907 21.4591 8.70223L21.4504 8.55577C21.4509 7.2844 20.9675 6.06051 20.0984 5.13259C19.2293 4.20467 18.0396 3.64227 16.7709 3.55959L16.4429 3.54833C16.1109 3.54833 15.7925 3.41644 15.5577 3.18167C15.323 2.9469 15.1911 2.62848 15.1911 2.29647C15.1911 1.96445 15.323 1.64604 15.5577 1.41127C15.7925 1.1765 16.1109 1.04461 16.4429 1.04461Z" fill="white"/>
</svg>
