<svg width="46" height="46" viewBox="0 0 46 46" fill="none" xmlns="http://www.w3.org/2000/svg">
<path fill-rule="evenodd" clip-rule="evenodd" d="M45.7176 22.8683C45.7176 10.2385 35.5413 0 22.9882 0C10.4351 0 0.258789 10.2385 0.258789 22.8683C0.258789 34.2826 8.57061 43.7433 19.4367 45.4588V29.4787H13.6656V22.8683H19.4367V17.8301C19.4367 12.0988 22.8301 8.93294 28.022 8.93294C30.5088 8.93294 33.1099 9.37958 33.1099 9.37958V15.0073H30.2438C27.4202 15.0073 26.5397 16.7701 26.5397 18.5786V22.8683H32.8435L31.8358 29.4787H26.5397V45.4588C37.4058 43.7433 45.7176 34.2826 45.7176 22.8683Z" fill="#1877F2"/>
<path fill-rule="evenodd" clip-rule="evenodd" d="M31.629 29.1427L32.6597 22.5086H26.212V18.2036C26.212 16.3886 27.1126 14.6196 30.0006 14.6196H32.9322V8.97168C32.9322 8.97168 30.2717 8.52344 27.7281 8.52344C22.4177 8.52344 18.9468 11.7006 18.9468 17.4525V22.5086H13.0439V29.1427H18.9468V45.1799C20.1305 45.3633 21.3436 45.4587 22.5794 45.4587C23.8152 45.4587 25.0283 45.3633 26.212 45.1799V29.1427H31.629Z" fill="white"/>
</svg>
