<svg width="24" height="25" viewBox="0 0 24 25" fill="none" xmlns="http://www.w3.org/2000/svg">
<path d="M13.6 0.533333C13.1384 0.187141 12.577 0 12 0C11.423 0 10.8616 0.187141 10.4 0.533333L1.06667 7.53333C0.735477 7.78173 0.466668 8.10382 0.281528 8.4741C0.096387 8.84438 0 9.25268 0 9.66667V22.3333C0 23.0406 0.280951 23.7189 0.781049 24.219C1.28115 24.719 1.95942 25 2.66667 25H7.86667C8.25565 25 8.6287 24.8455 8.90376 24.5704C9.17881 24.2954 9.33333 23.9223 9.33333 23.5333V17C9.33333 16.2928 9.61429 15.6145 10.1144 15.1144C10.6145 14.6143 11.2928 14.3333 12 14.3333C12.7072 14.3333 13.3855 14.6143 13.8856 15.1144C14.3857 15.6145 14.6667 16.2928 14.6667 17V23.5333C14.6667 23.9223 14.8212 24.2954 15.0962 24.5704C15.3713 24.8455 15.7444 25 16.1333 25H21.3333C22.0406 25 22.7189 24.719 23.219 24.219C23.7191 23.7189 24 23.0406 24 22.3333V9.66667C24 9.25268 23.9036 8.84438 23.7185 8.4741C23.5333 8.10382 23.2645 7.78173 22.9333 7.53333L13.6 0.533333Z" fill="white"/>
</svg>
