<svg width="33" height="30" viewBox="0 0 33 30" fill="none" xmlns="http://www.w3.org/2000/svg">
<path d="M33 13.5C33 12.7044 32.6839 11.9413 32.1213 11.3787C31.5587 10.8161 30.7956 10.5 30 10.5H20.52L21.96 3.645C21.99 3.495 22.005 3.33 22.005 3.165C22.005 2.55 21.75 1.98 21.345 1.575L19.755 0L9.885 9.87C9.33 10.425 9 11.175 9 12V27C9 27.7956 9.31607 28.5587 9.87868 29.1213C10.4413 29.6839 11.2044 30 12 30H25.5C26.745 30 27.81 29.25 28.26 28.17L32.79 17.595C32.925 17.25 33 16.89 33 16.5V13.5ZM0 30H6V12H0V30Z" fill="white"/>
</svg>
