<svg width="137" height="58" viewBox="0 0 137 58" fill="none" xmlns="http://www.w3.org/2000/svg">
<path d="M25.0773 57.8471C17.3818 57.8471 11.4424 56.1427 7.25891 52.734C3.07545 49.3253 0.957898 44.5737 0.90625 38.4793H13.6116C13.6632 41.888 14.6445 44.2638 16.5555 45.6066C18.5181 46.9495 21.5136 47.6209 25.5422 47.6209C31.7915 47.6209 34.9162 45.5033 34.9162 41.2682C34.9162 39.4089 34.219 38.0403 32.8245 37.1622C31.4816 36.2326 28.8734 35.4062 24.9999 34.6832L20.5065 33.831C8.21439 31.7651 2.06832 26.0064 2.06832 16.5548C2.06832 11.545 3.92764 7.56816 7.64626 4.62425C11.4165 1.68033 16.7362 0.208374 23.6054 0.208374C30.9393 0.208374 36.5431 1.7578 40.4167 4.85666C44.2902 7.95552 46.3561 12.3972 46.6144 18.1817H34.219C34.064 15.4961 33.1602 13.5335 31.5075 12.2939C29.9064 11.0544 27.3498 10.4346 23.8378 10.4346C18.2082 10.4346 15.3934 12.2939 15.3934 16.0125C15.3934 17.8719 16.0648 19.2922 17.4077 20.2735C18.8021 21.2548 21.2554 22.0811 24.7674 22.7526L29.4157 23.6047C36.0783 24.7926 40.9073 26.7294 43.9029 29.4151C46.9501 32.0491 48.4737 35.7161 48.4737 40.416C48.4737 46.0456 46.4078 50.3582 42.276 53.3538C38.1442 56.3493 32.4113 57.8471 25.0773 57.8471Z" fill="white"/>
<path d="M127.524 23.386C130.307 23.386 132.513 24.2344 134.142 25.9313C135.805 27.5943 136.636 29.9699 136.636 33.0583V50.2648H128.695V34.6364C128.695 31.6499 127.286 30.1566 124.469 30.1566C123.044 30.1566 121.856 30.6317 120.906 31.582C119.956 32.5323 119.481 33.8728 119.481 35.6036V50.2648H111.539V23.9969H119.277V27.7131C121.313 24.8283 124.062 23.386 127.524 23.386Z" fill="white"/>
<path d="M107.824 37.8944V39.4726H88.3772C88.6487 41.2713 89.3105 42.6458 90.3626 43.596C91.4147 44.5463 92.7552 45.0214 94.3843 45.0214C96.9635 45.0214 98.7283 44.0372 99.6786 42.0688H107.213C106.5 44.7838 104.99 46.9389 102.682 48.534C100.374 50.0951 97.6084 50.8757 94.3843 50.8757C90.3117 50.8757 87.0197 49.62 84.5083 47.1086C81.9969 44.5972 80.7412 41.2713 80.7412 37.1308C80.7412 32.9565 81.9799 29.6306 84.4574 27.1531C86.9009 24.6417 90.176 23.386 94.2824 23.386C98.355 23.386 101.647 24.6926 104.158 27.3058C106.602 29.953 107.824 33.4825 107.824 37.8944ZM94.1806 29.2403C90.9226 29.2403 89.0051 30.9711 88.4281 34.4328H100.035C99.7634 32.8038 99.1186 31.5311 98.1005 30.6148C97.0823 29.6984 95.7757 29.2403 94.1806 29.2403Z" fill="white"/>
<path d="M78.0961 37.8944V39.4726H58.6497C58.9212 41.2713 59.583 42.6458 60.6351 43.596C61.6871 44.5463 63.0277 45.0214 64.6567 45.0214C67.236 45.0214 69.0008 44.0372 69.951 42.0688H77.4852C76.7726 44.7838 75.2623 46.9389 72.9545 48.534C70.6468 50.0951 67.8808 50.8757 64.6567 50.8757C60.5842 50.8757 57.2922 49.62 54.7808 47.1086C52.2694 44.5972 51.0137 41.2713 51.0137 37.1308C51.0137 32.9565 52.2524 29.6306 54.7299 27.1531C57.1734 24.6417 60.4484 23.386 64.5549 23.386C68.6275 23.386 71.9194 24.6926 74.4308 27.3058C76.8744 29.953 78.0961 33.4825 78.0961 37.8944ZM64.4531 29.2403C61.195 29.2403 59.2776 30.9711 58.7006 34.4328H70.3074C70.0359 32.8038 69.3911 31.5311 68.3729 30.6148C67.3548 29.6984 66.0482 29.2403 64.4531 29.2403Z" fill="white"/>
<path d="M93.7929 19.899C89.4559 20.4211 85.1581 21.045 80.8658 21.1623C76.5806 21.045 72.2813 20.4211 67.9458 19.899C62.1488 19.2053 56.1731 20.2968 49.0361 20.6542C50.1584 23.524 50.8787 25.2954 51.5487 27.0877C51.9311 28.1318 52.3904 29.1814 52.5565 30.273C53.5573 36.8712 59.0039 41.726 65.6747 41.8768C71.9379 42.0136 76.3181 38.0242 77.6065 31.0002C77.7084 30.4377 77.8299 29.8738 77.8801 29.3043C78.0392 27.3403 78.4217 25.6792 80.7751 25.6932H80.9538C83.3128 25.6792 83.6966 27.3417 83.8558 29.3043C83.9074 29.8738 84.0275 30.4377 84.1294 31.0002C85.4177 38.0242 89.7993 42.0136 96.0611 41.8768C102.732 41.726 108.172 36.8712 109.179 30.273C109.345 29.1814 109.805 28.1304 110.187 27.0877C110.857 25.2954 111.577 23.524 112.694 20.6542C105.564 20.2968 99.5829 19.2053 93.7915 19.899H93.7929ZM75.6104 34.0027C74.6347 36.5027 72.7475 39.3921 68.5181 40.3888C65.725 41.0406 62.7337 40.506 60.2337 39.1939C57.5048 37.7729 54.9015 34.3126 54.4618 32.7116C54.0542 31.2152 54.0989 27.7814 54.1938 25.4196C54.2511 24.0391 55.2142 22.9141 56.4774 22.7354C58.2125 22.4883 63.0142 22.2133 65.3802 22.2887C68.4413 22.385 72.1082 22.5148 74.2258 22.9755C75.0172 23.1472 76.4647 23.5254 76.7509 25.2828C76.7509 25.2828 76.5917 31.5042 75.609 34.0027H75.6104ZM107.338 32.7116C106.899 34.3112 104.297 37.7715 101.566 39.1939C99.0664 40.506 96.0751 41.0406 93.282 40.3888C89.0539 39.3935 87.1667 36.5027 86.1896 34.0027C85.207 31.5028 85.0478 25.2828 85.0478 25.2828C85.3354 23.5254 86.7829 23.1472 87.5729 22.9755C89.6904 22.5148 93.3574 22.385 96.4185 22.2887C98.7844 22.2133 103.586 22.4883 105.321 22.7354C106.584 22.9141 107.548 24.0405 107.605 25.4196C107.701 27.7814 107.746 31.2152 107.337 32.7116H107.338Z" fill="#FF6600"/>
<path opacity="0.45" d="M76.7537 25.2829C76.7537 25.2829 76.5945 31.5042 75.6119 34.0028C74.6362 36.5028 72.749 39.3922 68.5195 40.3889C65.7264 41.0407 62.7351 40.5061 60.2351 39.194C57.5062 37.773 54.9029 34.3127 54.4633 32.7117C54.0557 31.2153 54.1003 27.7815 54.1952 25.4197C54.2525 24.0392 55.2156 22.9141 56.4789 22.7355C58.2139 22.4884 63.0157 22.2134 65.3816 22.2888C68.4427 22.3851 72.1097 22.5149 74.2272 22.9756C75.0186 23.1473 76.4661 23.5255 76.7523 25.2829H76.7537Z" fill="#818103"/>
<path opacity="0.45" d="M107.339 32.7117C106.9 34.3113 104.298 37.7716 101.567 39.194C99.0674 40.5061 96.0761 41.0407 93.283 40.3889C89.0549 39.3936 87.1677 36.5028 86.1906 34.0028C85.208 31.5029 85.0488 25.2829 85.0488 25.2829C85.3364 23.5255 86.7839 23.1473 87.5739 22.9756C89.6914 22.5149 93.3584 22.3851 96.4195 22.2888C98.7855 22.2134 103.587 22.4884 105.322 22.7355C106.585 22.9141 107.549 24.0406 107.606 25.4197C107.702 27.7815 107.747 31.2153 107.338 32.7117H107.339Z" fill="#818103"/>
<path d="M52.7806 11.9581C59.9846 9.88661 66.8648 10.438 73.2774 14.7721C73.1657 15.2509 73.054 15.7283 72.9424 16.207C70.8891 15.4212 68.8804 14.405 66.7685 13.9109C64.3188 13.3372 61.7825 13.0398 59.2741 12.9617C57.0785 12.8933 54.8716 13.2925 52.6689 13.4865C52.7066 12.977 52.7429 12.4689 52.7806 11.9595V11.9581Z" fill="white"/>
<path d="M85.6547 9.65655C90.6965 5.20796 99.7682 3.95867 106.355 7.46366C102.874 7.46366 99.3397 7.05607 95.9282 7.57812C92.5084 8.10157 89.21 9.55326 85.8571 10.5974C85.7887 10.2833 85.7217 9.96922 85.6533 9.65655H85.6547Z" fill="white"/>
</svg>
