<svg width="21" height="20" viewBox="0 0 21 20" fill="none" xmlns="http://www.w3.org/2000/svg">
<path d="M9.16667 9.58333V1.25C9.16667 0.918479 9.29836 0.600537 9.53278 0.366116C9.7672 0.131696 10.0851 0 10.4167 0C10.7482 0 11.0661 0.131696 11.3006 0.366116C11.535 0.600537 11.6667 0.918479 11.6667 1.25V9.58333C11.6667 9.91485 11.535 10.2328 11.3006 10.4672C11.0661 10.7016 10.7482 10.8333 10.4167 10.8333C10.0851 10.8333 9.7672 10.7016 9.53278 10.4672C9.29836 10.2328 9.16667 9.91485 9.16667 9.58333ZM16.099 1.04167C15.8214 0.870761 15.4881 0.815037 15.17 0.886376C14.8519 0.957715 14.5743 1.15047 14.3963 1.42356C14.2184 1.69664 14.1541 2.02844 14.2172 2.34823C14.2804 2.66801 14.466 2.95048 14.7344 3.13542C17.0219 4.62187 18.3333 6.97917 18.3333 9.58333C18.3333 11.683 17.4993 13.6966 16.0146 15.1813C14.5299 16.6659 12.5163 17.5 10.4167 17.5C8.31704 17.5 6.3034 16.6659 4.81874 15.1813C3.33408 13.6966 2.5 11.683 2.5 9.58333C2.5 6.97917 3.81146 4.62188 6.09896 3.13021C6.35309 2.93974 6.5252 2.65968 6.58032 2.34691C6.63545 2.03414 6.56945 1.71212 6.39574 1.44625C6.22203 1.18037 5.95363 0.990593 5.64506 0.915449C5.33648 0.840305 5.01088 0.885433 4.73438 1.04167C1.725 2.99792 0 6.11354 0 9.58333C0 12.346 1.09747 14.9955 3.05097 16.949C5.00448 18.9025 7.654 20 10.4167 20C13.1793 20 15.8289 18.9025 17.7824 16.949C19.7359 14.9955 20.8333 12.346 20.8333 9.58333C20.8333 6.11354 19.1083 2.99792 16.099 1.04167Z" fill="#F26722"/>
</svg>
