<svg width="82" height="35" viewBox="0 0 82 35" fill="none" xmlns="http://www.w3.org/2000/svg">
<path d="M15.3387 34.5497C10.7462 34.5497 7.20171 33.5325 4.70515 31.4983C2.20858 29.4641 0.944884 26.6284 0.914062 22.9915H8.49623C8.52705 25.0257 9.11267 26.4435 10.2531 27.2449C11.4243 28.0463 13.212 28.4469 15.6161 28.4469C19.3455 28.4469 21.2102 27.1832 21.2102 24.6559C21.2102 23.5463 20.7941 22.7295 19.962 22.2055C19.1606 21.6507 17.6041 21.1576 15.2924 20.7261L12.6109 20.2175C5.27535 18.9846 1.60755 15.548 1.60755 9.90761C1.60755 6.91789 2.71714 4.54461 4.93631 2.78777C7.1863 1.03092 10.361 0.152496 14.4603 0.152496C18.837 0.152496 22.1811 1.07715 24.4928 2.92646C26.8044 4.77577 28.0373 7.42645 28.1914 10.8785H20.7941C20.7017 9.27576 20.1623 8.10453 19.176 7.36481C18.2205 6.62508 16.6948 6.25522 14.599 6.25522C11.2394 6.25522 9.55959 7.3648 9.55959 9.58397C9.55959 10.6936 9.96027 11.5412 10.7616 12.1268C11.5938 12.7124 13.0579 13.2055 15.1537 13.6062L17.9277 14.1148C21.9037 14.8237 24.7856 15.9795 26.5732 17.5822C28.3917 19.1542 29.301 21.3425 29.301 24.1473C29.301 27.5069 28.0681 30.0805 25.6023 31.8682C23.1366 33.6558 19.7154 34.5497 15.3387 34.5497Z" fill="#FFB321"/>
<path d="M76.4768 13.9842C78.1375 13.9842 79.454 14.4906 80.4261 15.5032C81.4185 16.4956 81.9147 17.9133 81.9147 19.7564V30.0247H77.1755V20.6982C77.1755 18.9159 76.335 18.0247 74.654 18.0247C73.8033 18.0247 73.0945 18.3083 72.5274 18.8754C71.9603 19.4425 71.6767 20.2425 71.6767 21.2754V30.0247H66.9375V14.3488H71.5552V16.5665C72.7704 14.845 74.4109 13.9842 76.4768 13.9842Z" fill="#FFB321"/>
<path d="M64.7187 22.6425V23.5842H53.1136C53.2756 24.6576 53.6706 25.4779 54.2984 26.045C54.9263 26.6121 55.7263 26.8956 56.6984 26.8956C58.2377 26.8956 59.2908 26.3083 59.8579 25.1336H64.3541C63.9288 26.7539 63.0275 28.0399 61.6503 28.9918C60.2731 29.9235 58.6225 30.3893 56.6984 30.3893C54.268 30.3893 52.3035 29.6399 50.8047 28.1412C49.306 26.6425 48.5566 24.6576 48.5566 22.1868C48.5566 19.6956 49.2959 17.7108 50.7744 16.2323C52.2326 14.7336 54.187 13.9842 56.6377 13.9842C59.068 13.9842 61.0326 14.764 62.5313 16.3235C63.9896 17.9032 64.7187 20.0095 64.7187 22.6425ZM56.5769 17.4779C54.6326 17.4779 53.4883 18.5108 53.144 20.5766H60.0706C59.9086 19.6045 59.5237 18.845 58.9161 18.2982C58.3085 17.7513 57.5288 17.4779 56.5769 17.4779Z" fill="#FFB321"/>
<path d="M46.9784 22.6425V23.5842H35.3734C35.5354 24.6576 35.9303 25.4779 36.5582 26.045C37.186 26.6121 37.986 26.8956 38.9582 26.8956C40.4974 26.8956 41.5506 26.3083 42.1177 25.1336H46.6139C46.1886 26.7539 45.2873 28.0399 43.9101 28.9918C42.5329 29.9235 40.8822 30.3893 38.9582 30.3893C36.5278 30.3893 34.5632 29.6399 33.0645 28.1412C31.5658 26.6425 30.8164 24.6576 30.8164 22.1868C30.8164 19.6956 31.5556 17.7108 33.0341 16.2323C34.4924 14.7336 36.4468 13.9842 38.8974 13.9842C41.3278 13.9842 43.2924 14.764 44.7911 16.3235C46.2493 17.9032 46.9784 20.0095 46.9784 22.6425ZM38.8367 17.4779C36.8924 17.4779 35.7481 18.5108 35.4038 20.5766H42.3303C42.1683 19.6045 41.7835 18.845 41.1759 18.2982C40.5683 17.7513 39.7886 17.4779 38.8367 17.4779Z" fill="#FFB321"/>
<path d="M56.3463 11.9033C53.7581 12.2148 51.1933 12.5872 48.6318 12.6571C46.0745 12.5872 43.5088 12.2148 40.9215 11.9033C37.462 11.4893 33.8959 12.1407 29.6367 12.3539C30.3065 14.0666 30.7363 15.1237 31.1361 16.1933C31.3644 16.8163 31.6384 17.4428 31.7376 18.0942C32.3348 22.0318 35.5852 24.929 39.5662 25.019C43.3039 25.1006 45.9178 22.7199 46.6867 18.5282C46.7475 18.1925 46.82 17.8559 46.85 17.5161C46.9449 16.344 47.1732 15.3527 48.5776 15.3611H48.6843C50.0921 15.3527 50.3211 16.3449 50.4161 17.5161C50.4469 17.8559 50.5186 18.1925 50.5794 18.5282C51.3482 22.7199 53.963 25.1006 57.6999 25.019C61.6808 24.929 64.9271 22.0318 65.5285 18.0942C65.6276 17.4428 65.9017 16.8155 66.1299 16.1933C66.5298 15.1237 66.9596 14.0666 67.626 12.3539C63.371 12.1407 59.8016 11.4893 56.3454 11.9033H56.3463ZM45.4955 20.32C44.9132 21.8119 43.787 23.5362 41.263 24.131C39.5962 24.52 37.811 24.201 36.3191 23.4179C34.6906 22.5699 33.137 20.5049 32.8746 19.5494C32.6314 18.6565 32.658 16.6073 32.7147 15.1978C32.7488 14.374 33.3236 13.7026 34.0775 13.5959C35.1129 13.4485 37.9785 13.2844 39.3904 13.3294C41.2172 13.3869 43.4055 13.4643 44.6692 13.7392C45.1415 13.8417 46.0053 14.0674 46.1761 15.1162C46.1761 15.1162 46.0811 18.8289 45.4947 20.32H45.4955ZM64.4298 19.5494C64.1674 20.5041 62.6147 22.5691 60.9853 23.4179C59.4934 24.201 57.7082 24.52 56.0414 24.131C53.5182 23.537 52.392 21.8119 51.8089 20.32C51.2224 18.8281 51.1275 15.1162 51.1275 15.1162C51.2991 14.0674 52.1629 13.8417 52.6344 13.7392C53.8981 13.4643 56.0864 13.3869 57.9132 13.3294C59.3251 13.2844 62.1907 13.4485 63.2261 13.5959C63.9799 13.7026 64.5547 14.3748 64.5889 15.1978C64.6464 16.6073 64.673 18.6565 64.4289 19.5494H64.4298Z" fill="#FF6600"/>
<path opacity="0.45" d="M46.1764 15.1163C46.1764 15.1163 46.0815 18.829 45.495 20.3201C44.9128 21.812 43.7865 23.5363 41.2625 24.1311C39.5957 24.5201 37.8105 24.201 36.3186 23.418C34.6901 22.57 33.1365 20.505 32.8741 19.5495C32.6309 18.6565 32.6576 16.6073 32.7142 15.1979C32.7484 14.3741 33.3231 13.7027 34.077 13.596C35.1124 13.4486 37.978 13.2845 39.3899 13.3295C41.2167 13.3869 43.405 13.4644 44.6687 13.7393C45.141 13.8418 46.0048 14.0675 46.1756 15.1163H46.1764Z" fill="#818103"/>
<path opacity="0.45" d="M64.4292 19.5495C64.1669 20.5042 62.6141 22.5692 60.9848 23.418C59.4928 24.201 57.7077 24.5201 56.0409 24.1311C53.5177 23.5371 52.3915 21.812 51.8084 20.3201C51.2219 18.8281 51.127 15.1163 51.127 15.1163C51.2986 14.0675 52.1624 13.8418 52.6339 13.7393C53.8975 13.4644 56.0858 13.3869 57.9126 13.3295C59.3246 13.2845 62.1901 13.4486 63.2256 13.596C63.9794 13.7027 64.5542 14.3749 64.5884 15.1979C64.6458 16.6073 64.6725 18.6565 64.4284 19.5495H64.4292Z" fill="#818103"/>
<path d="M31.8713 7.16437C36.1705 5.92819 40.2764 6.25723 44.1032 8.84372C44.0366 9.12944 43.9699 9.41433 43.9033 9.70005C42.6779 9.23106 41.4792 8.62463 40.2189 8.32975C38.757 7.98738 37.2434 7.80995 35.7465 7.76331C34.4362 7.72249 33.1192 7.96073 31.8047 8.07652C31.8272 7.77247 31.8488 7.46925 31.8713 7.16521V7.16437Z" fill="#FFB321"/>
<path d="M51.4891 5.79088C54.4979 3.13608 59.9117 2.39054 63.8426 4.48222C61.7651 4.48222 59.6559 4.23898 57.6201 4.55053C55.5792 4.86291 53.6108 5.72923 51.6099 6.35232C51.5691 6.1649 51.5291 5.97747 51.4883 5.79088H51.4891Z" fill="#FFB321"/>
</svg>
