<svg width="40" height="30" viewBox="0 0 40 30" fill="none" xmlns="http://www.w3.org/2000/svg">
<path opacity="0.8" d="M8.686 0.585945C8.8719 0.771637 9.01938 0.99215 9.12 1.23488C9.22062 1.4776 9.27241 1.73778 9.27241 2.00054C9.27241 2.26329 9.22062 2.52347 9.12 2.7662C9.01938 3.00892 8.8719 3.22944 8.686 3.41513C5.68574 6.4159 4.00025 10.4855 4.00025 14.7289C4.00025 18.9722 5.68574 23.0419 8.686 26.0426C8.87697 26.2271 9.02929 26.4477 9.13408 26.6916C9.23886 26.9356 9.29402 27.1979 9.29633 27.4634C9.29864 27.7289 9.24805 27.9922 9.14751 28.2379C9.04698 28.4836 8.89852 28.7069 8.71078 28.8946C8.52305 29.0823 8.29982 29.2308 8.05409 29.3313C7.80837 29.4319 7.54509 29.4824 7.2796 29.4801C7.01412 29.4778 6.75176 29.4227 6.50782 29.3179C6.26388 29.2131 6.04326 29.0608 5.85882 28.8698C-1.95294 21.0601 -1.95294 8.3957 5.85882 0.585945C6.23376 0.21111 6.74223 0.000539625 7.27241 0.000539625C7.80259 0.000539625 8.31106 0.21111 8.686 0.585945ZM34.1427 0.585945C41.9524 8.3977 41.9524 21.0601 34.1427 28.8698C33.7678 29.245 33.2592 29.4559 32.7288 29.4561C32.1984 29.4562 31.6897 29.2457 31.3145 28.8708C30.9393 28.4959 30.7284 27.9873 30.7283 27.4569C30.7281 26.9265 30.9386 26.4178 31.3135 26.0426C34.3138 23.0419 35.9992 18.9722 35.9992 14.7289C35.9992 10.4855 34.3138 6.4159 31.3135 3.41513C30.9383 3.03996 30.7276 2.53111 30.7276 2.00054C30.7276 1.46996 30.9383 0.961118 31.3135 0.585945C31.6887 0.210771 32.1975 1.04589e-08 32.7281 0C33.2587 -1.04589e-08 33.7675 0.210771 34.1427 0.585945ZM14.6183 6.33229C14.9931 6.70724 15.2037 7.21571 15.2037 7.74589C15.2037 8.27606 14.9931 8.78453 14.6183 9.15948C13.8904 9.88729 13.313 10.7514 12.9191 11.7023C12.5251 12.6533 12.3224 13.6726 12.3224 14.7019C12.3224 15.7312 12.5251 16.7505 12.9191 17.7014C13.313 18.6524 13.8904 19.5165 14.6183 20.2443C14.8039 20.4301 14.9512 20.6506 15.0516 20.8932C15.152 21.1359 15.2036 21.396 15.2035 21.6586C15.2034 21.9212 15.1516 22.1812 15.051 22.4238C14.9504 22.6664 14.8031 22.8868 14.6173 23.0725C14.4315 23.2581 14.211 23.4053 13.9684 23.5058C13.7257 23.6062 13.4656 23.6578 13.203 23.6577C12.9404 23.6576 12.6803 23.6058 12.4377 23.5052C12.1952 23.4046 11.9747 23.2572 11.7891 23.0715C9.56941 20.8517 8.3224 17.8411 8.3224 14.7019C8.3224 11.5627 9.56941 8.55207 11.7891 6.33229C11.9748 6.14639 12.1953 5.99892 12.438 5.8983C12.6808 5.79768 12.9409 5.74589 13.2037 5.74589C13.4665 5.74589 13.7266 5.79768 13.9694 5.8983C14.2121 5.99892 14.4326 6.14639 14.6183 6.33229ZM28.5303 6.33229C30.75 8.55207 31.997 11.5627 31.997 14.7019C31.997 17.8411 30.75 20.8517 28.5303 23.0715C28.1532 23.4357 27.6481 23.6372 27.1239 23.6327C26.5997 23.6281 26.0982 23.4178 25.7275 23.0471C25.3568 22.6764 25.1465 22.1749 25.1419 21.6507C25.1374 21.1264 25.3389 20.6214 25.7031 20.2443C26.431 19.5165 27.0084 18.6524 27.4023 17.7014C27.7963 16.7505 27.999 15.7312 27.999 14.7019C27.999 13.6726 27.7963 12.6533 27.4023 11.7023C27.0084 10.7514 26.431 9.88729 25.7031 9.15948C25.3389 8.78238 25.1374 8.27732 25.1419 7.75308C25.1465 7.22884 25.3568 6.72736 25.7275 6.35665C26.0982 5.98594 26.5997 5.77566 27.1239 5.7711C27.6481 5.76655 28.1532 5.96808 28.5303 6.33229ZM20.1607 11.8707C20.9561 11.8707 21.719 12.1867 22.2814 12.7491C22.8439 13.3116 23.1598 14.0744 23.1598 14.8698C23.1598 15.6653 22.8439 16.4281 22.2814 16.9905C21.719 17.553 20.9561 17.869 20.1607 17.869C19.3653 17.869 18.6024 17.553 18.04 16.9905C17.4775 16.4281 17.1616 15.6653 17.1616 14.8698C17.1616 14.0744 17.4775 13.3116 18.04 12.7491C18.6024 12.1867 19.3653 11.8707 20.1607 11.8707Z" fill="white"/>
</svg>
