<svg width="19" height="19" viewBox="0 0 19 19" fill="none" xmlns="http://www.w3.org/2000/svg">
<path d="M9.87695 0.5C7.49 0.5 5.20082 1.44821 3.51299 3.13604C1.82516 4.82387 0.876953 7.11305 0.876953 9.5C0.876953 11.8869 1.82516 14.1761 3.51299 15.864C5.20082 17.5518 7.49 18.5 9.87695 18.5C12.2639 18.5 14.5531 17.5518 16.2409 15.864C17.9287 14.1761 18.877 11.8869 18.877 9.5C18.877 7.11305 17.9287 4.82387 16.2409 3.13604C14.5531 1.44821 12.2639 0.5 9.87695 0.5ZM1.98695 10.18H4.49695C4.53695 11.09 4.66395 11.994 4.87695 12.88H2.71695C2.31416 12.0309 2.06691 11.1164 1.98695 10.18ZM10.557 4.78V1.69C11.5206 2.05622 12.3125 2.76962 12.777 3.69C12.982 4.037 13.163 4.398 13.317 4.77L10.557 4.78ZM13.777 6.13C14.009 7.013 14.147 7.918 14.187 8.83H10.557V6.13H13.777ZM9.19695 1.69V4.78H6.43695C6.59122 4.4077 6.77167 4.04679 6.97695 3.7C7.43942 2.77585 8.23154 2.05866 9.19695 1.69ZM9.19695 6.13V8.83H5.57695C5.61695 7.918 5.75495 7.013 5.98695 6.13H9.19695ZM4.49695 8.82H1.98695C2.06691 7.88359 2.31416 6.96912 2.71695 6.12H4.87695C4.66354 7.00565 4.53629 7.90985 4.49695 8.82ZM5.57695 10.18H9.19695V12.88H5.98695C5.75499 11.9971 5.61755 11.092 5.57695 10.18ZM9.20695 14.18V17.27C8.24327 16.9038 7.4514 16.1904 6.98695 15.27C6.78167 14.9232 6.60122 14.5623 6.44695 14.19L9.20695 14.18ZM10.557 17.27V14.23H13.317C13.1627 14.6023 12.9822 14.9632 12.777 15.31C12.3125 16.2304 11.5206 16.9438 10.557 17.31V17.27ZM10.557 12.83V10.13H14.177C14.1364 11.042 13.9989 11.9471 13.767 12.83H10.557ZM15.267 10.13H17.777C17.697 11.0664 17.4497 11.9809 17.047 12.83H14.877C15.087 11.96 15.214 11.073 15.257 10.18L15.267 10.13ZM15.267 8.78C15.2212 7.88631 15.0906 6.99899 14.877 6.13H17.037C17.44 6.98 17.687 7.894 17.767 8.83L15.267 8.78ZM16.267 4.78H14.477C14.1531 3.8703 13.6836 3.01923 13.087 2.26C14.3313 2.81858 15.4122 3.68605 16.227 4.78H16.267ZM6.66695 2.26C6.07027 3.01923 5.60083 3.8703 5.27695 4.78H3.52695C4.34167 3.68605 5.42257 2.81858 6.66695 2.26ZM3.51695 14.26H5.27695C5.60083 15.1697 6.07027 16.0208 6.66695 16.78C5.41913 16.213 4.3379 15.3349 3.52695 14.23L3.51695 14.26ZM13.077 16.78C13.6736 16.0208 14.1431 15.1697 14.467 14.26H16.227C15.4073 15.3393 14.3268 16.1927 13.087 16.74L13.077 16.78Z" fill="#0B0B0B"/>
</svg>
