<svg xmlns="http://www.w3.org/2000/svg" xmlns:xlink="http://www.w3.org/1999/xlink" version="1.1" width="100" height="100" viewBox="0 0 100 100" xml:space="preserve">
<desc>Created with Fabric.js 5.2.4</desc>
<defs>
</defs>
<rect x="0" y="0" width="100%" height="100%" fill="transparent"></rect>
<g transform="matrix(1 0 0 1 50 50)" id="33ea2ba9-efad-4f21-ac84-0fc176365f99"  >
<rect style="stroke: none; stroke-width: 1; stroke-dasharray: none; stroke-linecap: butt; stroke-dashoffset: 0; stroke-linejoin: miter; stroke-miterlimit: 4; fill: rgb(255,255,255); fill-rule: nonzero; opacity: 1; visibility: hidden;" vector-effect="non-scaling-stroke"  x="-50" y="-50" rx="0" ry="0" width="100" height="100" />
</g>
<g transform="matrix(Infinity NaN NaN Infinity 0 0)" id="1c16542d-34b3-4f19-a189-53dcd07af2d6"  >
</g>
<g transform="matrix(0.68 0 0 0.68 50 50)" id="97e7596f-b7e3-4040-b1d8-19cb52558b0b"  >
<path style="stroke: rgb(0,0,0); stroke-width: 0; stroke-dasharray: none; stroke-linecap: butt; stroke-dashoffset: 0; stroke-linejoin: miter; stroke-miterlimit: 4; fill: rgb(120,159,160); fill-rule: nonzero; opacity: 1;" vector-effect="non-scaling-stroke"  transform=" translate(-325.92, -765.82)" d="M 258.02 817.07 C 258.02 782.9100000000001 258.02 748.84 258.02 714.7800000000001 C 258.79999999999995 714.5500000000001 392.54999999999995 714.5000000000001 393.82 714.7200000000001 C 393.82 748.8100000000002 393.82 782.9000000000001 393.82 817.0700000000002 C 348.56 817.07 303.35 817.07 258.02 817.07 z M 274.2 724.15 C 274.51 724.49 274.67 724.68 274.84999999999997 724.86 C 290.43999999999994 740.65 306.04999999999995 756.41 321.59999999999997 772.23 C 323.96999999999997 774.64 328.51 774.5500000000001 330.78 772.24 C 346.41999999999996 756.41 362.13 740.64 377.80999999999995 724.84 C 377.99999999999994 724.65 378.15999999999997 724.44 378.40999999999997 724.14 C 343.65 724.15 309.03 724.15 274.2 724.15 z M 274.15 807.57 C 308.77 807.57 343.14 807.57 377.54999999999995 807.57 C 376.87999999999994 806.5600000000001 344.25999999999993 773.21 343.65999999999997 772.8800000000001 C 341.54999999999995 774.9500000000002 339.43999999999994 777.0000000000001 337.35999999999996 779.0700000000002 C 331.25999999999993 785.1300000000001 321.12999999999994 785.1400000000002 315.05999999999995 779.0600000000002 C 313.12999999999994 777.1300000000002 311.22999999999996 775.1900000000002 309.30999999999995 773.2500000000002 C 309.06999999999994 773.0000000000002 308.80999999999995 772.7800000000002 308.49999999999994 772.4800000000002 C 297.07 784.15 285.69 795.77 274.15 807.57 z M 267.49 800.49 C 267.55 800.53 267.61 800.57 267.68 800.61 C 279.07 788.98 290.45 777.35 301.87 765.6800000000001 C 290.41 754.1 279.07 742.6400000000001 267.72 731.1800000000001 C 267.70000000000005 731.1600000000001 267.66 731.1600000000001 267.62 731.1600000000001 C 267.59000000000003 731.1600000000001 267.55 731.1800000000001 267.49 731.2 C 267.49 754.3 267.49 777.4 267.49 800.49 z M 384.29 800.7 C 384.53000000000003 799.2700000000001 384.48 732.69 384.23 731.85 C 372.93 743.23 361.67 754.57 350.36 765.96 C 361.7 777.57 372.96 789.1 384.29 800.7 z" stroke-linecap="round" />
</g>
</svg>