<?xml version="1.0" ?>
<!-- Generator: Adobe Illustrator 27.0.0, SVG Export Plug-In . SVG Version: 6.00 Build 0)  -->
<svg version="1.1" xmlns="http://www.w3.org/2000/svg" xmlns:xlink="http://www.w3.org/1999/xlink" x="0px" y="0px"
	 viewBox="0 0 428 926" style="enable-background:new 0 0 428 926;" xml:space="preserve">
<style type="text/css">
	.st0{filter:url(#Adobe_OpacityMaskFilter);}
	.st1{fill:#FFFFFF;}
	.st2{mask:url(#Layer_1_00000070120186793024102600000016063213281767691407_);}
	.st3{filter:url(#Adobe_OpacityMaskFilter_00000114065573000465828300000009715644690819092621_);}
	.st4{fill:url(#SVGID_1_);stroke:#000000;stroke-miterlimit:10;}
	.st5{opacity:0.27;fill:#D8D8D8;}
</style>
<defs>
	<filter id="Adobe_OpacityMaskFilter" filterUnits="userSpaceOnUse" x="3.3" y="3.2" width="366.4" height="853.6">
		<feColorMatrix  type="matrix" values="1 0 0 0 0  0 1 0 0 0  0 0 1 0 0  0 0 0 1 0"/>
	</filter>
</defs>
<mask maskUnits="userSpaceOnUse" x="3.3" y="3.2" width="366.4" height="853.6" id="Layer_1_00000160883106423233426950000014697021719293868436_">
	<g class="st0">
		<rect class="st1" width="428" height="926"/>
	</g>
</mask>
<g id="Layer_1" style="mask:url(#Layer_1_00000160883106423233426950000014697021719293868436_);">
	<defs>
		
			<filter id="Adobe_OpacityMaskFilter_00000132062807688273570450000014174331760806318741_" filterUnits="userSpaceOnUse" x="3.3" y="3.2" width="366.4" height="853.6">
			<feColorMatrix  type="matrix" values="1 0 0 0 0  0 1 0 0 0  0 0 1 0 0  0 0 0 1 0"/>
		</filter>
	</defs>
	
		<mask maskUnits="userSpaceOnUse" x="3.3" y="3.2" width="366.4" height="853.6" id="Layer_1_00000160883106423233426950000014697021719293868436_">
		<g style="filter:url(#Adobe_OpacityMaskFilter_00000132062807688273570450000014174331760806318741_);">
			<linearGradient id="SVGID_1_" gradientUnits="userSpaceOnUse" x1="213.6596" y1="924.2341" x2="213.6596" y2="-1.766">
				<stop  offset="0" style="stop-color:#000000"/>
				<stop  offset="1" style="stop-color:#FFFFFF"/>
			</linearGradient>
			<rect x="-0.3" y="-1.8" class="st4" width="428" height="926"/>
		</g>
	</mask>
	<path class="st5" d="M103.3,856.8c-0.3-0.9-0.1-1.8,0.7-2.4c0.9-0.7,2-1.3,3-2.1c0-33.9,0-67.8,0-101.9c-2.2-1.1-4.3-2.3-4.7-4.9
		c-0.4-2.6,1-4.4,3.3-6c-3.1-13.2-6.9-26.1-10.2-39.2c-3.3-12.9-6.8-25.8-10.2-38.7c-7.4-2.2-9-7.1-2.3-12.2
		c-0.7-1.2-1.4-2.5-2.3-3.7c-4-5.9-8.1-11.7-12-17.6c-9.5-14.3-18.9-28.6-28.4-42.9c-4.2-6.4-8.5-12.8-12.8-19.2
		c-7.2-10.8-14.4-21.6-21.7-32.5c-0.7-1.1-1.6-2-2.5-3.1c0-1.2,0-2.3,0-3.5c0.5,0.6,1,1.1,1.4,1.7c8.5,12.7,16.9,25.3,25.4,38
		c10.2,15.3,20.3,30.5,30.5,45.8c3.2,4.8,6.6,9.5,9.8,14.3c3.6,5.4,7.1,10.9,10.7,16.3c0.3,0.5,0.6,1.4,1.9,0.9
		c-0.2-2.4-0.4-4.8-0.6-7.3c-0.4-3.5-0.9-6.9-1.3-10.3c-0.6-5.8-0.9-11.5-1.5-17.3c-1-10.5-2.1-21.1-3.2-31.6
		c-0.3-2.7-0.7-5.5-0.9-8.2c-0.5-5.6-1-11.3-1.5-16.9c-0.7-6.2-1.5-12.4-2.2-18.6c-0.5-5-0.8-10.1-1.2-15.2
		c-0.2-1.9-0.1-3.8-1.2-5.5c-10.4-5-20.7-10-31.1-15c-10.5-5.1-21-10.1-31.5-15.2c-1.1-0.5-2.3-0.9-3.4-1.3c0-0.6,0-1.2,0-1.7
		c1,0.3,2.1,0.5,3,0.9c6.8,3.2,13.5,6.5,20.3,9.7c4.7,2.2,9.5,4.3,14.2,6.6c8.7,4.2,17.3,8.5,25.9,12.8c0.8,0.4,1.7,0.6,3,1.1
		c-1.8-17.9-3.4-35.5-5.5-53.4c-3-0.1-4.3-2.4-5.8-4.3c-8.7,0.4-17.2,0.8-25.8,1.3c-9.8,0.5-19.5,1.2-29.3,1.8c0-0.9,0-1.7,0-2.6
		c1.5,0.1,3.1,0.4,4.6,0.3c16-0.7,32-1.5,48-2.3c0.8,0,1.5-0.2,2.1-0.3c2.9-3.9,2.9-3.9,6.8-5.3c0.3-1,0.7-2.1,0.9-3.2
		c1.9-8.4,3.7-16.7,5.5-25.1c3.2-14.6,6.4-29.2,9.6-43.8c2.1-9.8,4.1-19.6,6.3-29.4c1.7-7.8,3.6-15.6,5.3-23.3
		c0.2-0.8,0.7-1.6-0.5-2.4c-1.3,0.4-2,1.5-2.9,2.5c-6,6.2-12.1,12.5-18.1,18.7c-11.9,12.3-23.7,24.5-35.6,36.8
		c-9.6,9.9-19.1,19.8-28.7,29.7c-1,1-1.7,2.4-3.4,2.8c0-0.6,0-1.2,0-1.7c14.5-15,29.1-29.8,43.4-45c14.4-15.2,29.4-29.8,43.7-45.3
		c-1.5-2.3-1.3-4.6-0.2-6.9c-19.5-18.1-38.9-36-58.3-53.9c-1.2,0.2-2.1,0.5-3,0.6c-2.6,0.3-4.6-0.5-5.9-2.6
		c-1.2-1.9-1.1-3.9,0.2-5.7c0.6-0.8,1.2-1.6,1.7-2.3c-0.2-0.7-0.3-1.1-0.5-1.5c-3.5-8.7-7-17.3-10.5-26c-3-7.7-5.9-15.5-8.9-23.3
		c-0.4-1-0.4-2.3-1.7-2.9c0-1.7,0-3.5,0-5.2c1.3,1.3,1.5,3.1,2.2,4.7c3.5,8.8,7.1,17.6,10.6,26.4c3.3,8.4,6.5,16.9,9.7,25.3
		c0.2,0.5,0.4,1.1,0.8,1.6c0.4,0.4,0.9,0.7,1.5,0.8c0.3,0,0.9-0.3,1.1-0.7c0.4-0.8,0.7-1.6,1-2.4c2-5.8,3.9-11.6,6.1-17.3
		c0.9-2.3,0.7-3.9-1.1-5.9c-6.2-6.9-12.1-13.9-18.1-20.9c-4.6-5.3-9.2-10.6-13.8-15.8c0-0.9,0-1.7,0-2.6c1,0.9,2,1.8,2.9,2.8
		c3.2,3.7,6.3,7.5,9.5,11.3c6.7,7.8,13.4,15.6,20.2,23.3c0.6,0.7,1.1,1.9,2.7,1.5c7.2-20.2,14.5-40.5,21.6-60.8
		c7.1-20.3,14.6-40.4,21-61c-1.3,0.7-2.3,1.5-3.2,2.4c-6.1,6-12.1,12-18.3,17.9c-14,13.4-28,26.7-42,40.1
		c-3.9,3.7-7.8,7.5-11.7,11.2c-0.7,0.7-1.2,1.7-2.5,1.7c0-1.7,0-3.5,0-5.2c1.3-0.1,1.6-1.3,2.1-2.1c6.9-9.6,13.8-19.3,20.6-28.9
		c5.4-7.6,10.8-15.2,16.2-22.8c7.7-10.9,15.5-21.7,23.2-32.6c0.7-0.9,1.1-2,1.8-3.1c-2-2.1-3.9-4-5.8-5.9
		c-7.2-7.2-14.3-14.5-21.5-21.7c-0.5-0.5-1.2-0.9-1.7-1.3c-1.4,0.4-2.5,0.7-3.7,1.1c-0.4,1.4-0.8,2.6-1.2,3.9
		C29.9,65,26.5,77.2,23.1,89.4c-6.4,23-12.7,45.9-19,68.9c-0.1,0.4-0.5,0.7-0.7,1.1c0-2.3,0-4.6,0-7c1.8-6,3.8-11.9,5.4-17.9
		c4.6-16.4,9.1-32.8,13.6-49.2c3.1-11.2,6.2-22.4,9.4-33.6c0.3-1,0.5-2,0.7-2.9c-3.5-4.1-4-7-1.7-9.3c2.4-2.4,5-2.3,9.7,0.5
		c23.3-9.8,46.6-19.6,69.9-29.3c0.9-5.1,2.2-6.9,5.4-7.3c3.1-0.5,4.9,0.8,7.4,5.3c27.1,3.9,54.3,7.8,81.4,11.7
		c4.6-3.4,7.6-3.8,10.2-1.6c2.6,2.3,2.3,5.4-1.3,9.4c3.3,16.4,7.2,32.9,10.7,49.5c3.6,16.6,7.3,33.2,10.9,49.9c1,0.5,2,0.8,2.8,1.4
		c2.3,1.4,3.3,3.7,2.6,6c-0.7,2.3-2.4,3.7-5,3.9c-0.9,0.1-1.9,0-3.2,0c-4.6,5.5-8.2,11.9-12.6,17.8c-4.4,6-8.5,12.1-12.7,18.2
		c-4.1,6-8.3,11.9-12.4,17.9c-4.2,6.1-8.4,12.2-12.7,18.4c0.5,1.7,2.2,3.3,1.4,5.3c-0.6,1.6-1.7,3-2.8,4.9c0.2,0.7,0.5,1.8,0.8,2.9
		c3,9.4,6.1,18.8,9,28.3c4.9,15.8,9.8,31.7,14.7,47.6c3.9,12.5,7.9,25,11.7,37.5c0.7,2.3,1.6,4.1,4.3,5.1c3.2,1.2,4,3.2,3.4,6.4
		c-0.1,0.7-0.4,1.4-0.7,2.3c16.6,16.6,33.2,33.3,49.7,49.8c8.6-1.1,11.1,2.9,8.9,8.7c1.9,2.8,74.6,81.9,78.3,85.2
		c1.2-0.1,2.4-0.2,3.6-0.2c3.2,0.2,5.4,2.5,5.3,5.5c-0.1,3-2.4,5.2-5.7,5.2c-1.2,0-2.5-0.2-3.9-0.3c-17.9,17.9-35.8,35.8-53.6,53.5
		c0.1,2.1,0.7,4.1,0.1,5.7c-0.6,1.6-2.3,2.9-4,4.9c4.5,58.4,9.2,117.5,13.8,176.6c1,0.7,2.1,1.2,3,2c3.3,2.8,2.3,7.8-2,9.1
		c-1.3,0.4-2.7,0.4-4.3,0.7c-10.4,16.1-21,32.4-31.5,48.7c0.6,1.5,1.5,3,1.5,4.5c0,1.5-0.8,3-1.3,4.7c0.9,1.2,1.8,2.5,2.8,3.8
		c8.4,11.2,16.8,22.3,25.2,33.5c0.8,1.1,2.3,2.1,1.6,3.8c-0.6,0-1.2,0-1.9,0c0.2-1.5-0.9-2.4-1.7-3.5c-8.7-11.6-17.5-23.2-26.3-34.8
		c-0.5-0.7-1.2-1.3-1.8-2c-1,0.2-1.9,0.4-2.8,0.6c-0.4,1.8-0.8,3.3-1.1,4.9c-2.5,11.6-5,23.3-7.5,34.9c-1.9,0-3.7,0-5.6,0
		c-0.2-1.8-1.8-1.8-3.1-2.2c-17.7-6-35.4-12-53.1-17.9c-0.6-0.2-1.2-0.5-1.8-0.6c-0.7,0-1.5,0.1-2.1,0.5c-0.9,0.5-0.9,1.4-0.5,2.3
		c0.4,0.8,0.8,1.6,1.2,2.4c2,3.9,4,7.9,5.9,11.8c0.6,1.2,1.4,2.3,1.1,3.7c-0.6,0-1.2,0-1.9,0c-0.3-1.1-0.6-2.3-1.1-3.3
		c-2.4-5-5-9.9-7.4-14.7c-2.4-0.5-4.5-1-6.6-1.5c-8.1,5.7-16.1,11.4-24.1,17.1c-0.8,0.6-1.3,1.6-2,2.3c-0.9,0-1.9,0-2.8,0
		c0.1-1.5,1.5-2.1,2.5-2.9c7.2-5.1,14.3-10.2,21.5-15.3c0.9-0.7,1.8-1.4,2.9-2.4c-1,0-1.4-0.1-1.9,0c-10.1,2.8-20.2,5.6-30.4,8.5
		c-2.8,0.8-5.6,1.8-8.4,2.6c-9.5,2.6-19.1,5.2-28.6,7.8c-0.4,0.1-1,0.2-1.2,0.5c-0.3,0.3-0.3,0.8-0.4,1.2c-2.2,0-4.4,0-6.5,0
		c0.2-1.5,1.6-1.6,2.7-1.9c12-3.5,24-7,36-10.4c3.4-1,6.9-1.7,10.3-2.6c8.5-2.3,16.9-4.7,25.4-7.1c1.2-0.3,2.3-0.8,3.3-1.2
		c0.5-1.6,0.9-2.9,1.3-4.3c-3.3-3.9-19.8-19.8-22.8-21.9c-1.1,0.9-2.3,1.8-3.5,2.8c-5.2,4.3-10.4,8.6-15.6,13
		c-4.3,3.6-8.4,7.3-12.7,10.8c-7.7,6.3-15.4,12.6-23.1,18.9c-0.6,0.5-1.2,1-1.7,1.5c-0.7,0.7-0.8,1.5-0.6,2.4
		C110.1,856.8,106.7,856.8,103.3,856.8z M231.1,599.2c-0.6,0.4-1.2,0.7-1.9,1.1c0.1,0.2,0.2,0.3,0.3,0.5c0.6-0.5,1.2-0.9,1.7-1.4
		c1.3-0.5,2.6-0.9,3.8-1.6c19.2-10.4,38.4-20.9,57.6-31.4c0.9-0.5,1.8-1.1,2.6-1.5c0.5-1.7,0.2-2.9-1.5-3.3c-3-0.8-5.9-1.9-8.9-2.3
		c-0.7,0.5-1.4,0.9-2,1.3c-16.5,12.1-33,24.2-49.5,36.3C232.5,597.7,231.9,598.5,231.1,599.2z M210.6,343.8c0.1-1.3-1.2-1.6-2-2.1
		c-23.5-15.2-47.1-30.4-70.6-45.5c-2.4-1.6-5-3-7.4-4.5c-2.6-1.6-5-3.4-7.6-5.1c-0.7-0.5-1.6-0.7-2.3-1.1
		c-5,5.3-19.1,22.3-20.9,25.2c0.6,1.5,1.2,2.9,1.7,4.4c1,0.3,1.9,0.6,2.8,0.8c6.4,1.7,12.8,3.4,19.3,5.1c27.7,7.4,55.3,14.7,83,22
		c1.3,0.3,2.7,0.4,4.1,0.6c0.1,0.2,0.3,0.4,0.4,0.6c0.1-0.2,0.2-0.3,0.3-0.5C211.1,343.7,210.9,343.7,210.6,343.8z M217.4,615.8
		c0.4,0.7,1.1,1.7,1.8,2.6c30.5,41.8,60.9,83.7,91.4,125.5c0.6,0.8,1.2,1.7,1.9,2.4c0.2,0.2,0.9,0.4,1.2,0.3
		c0.4-0.1,0.8-0.6,0.8-0.9c0-2.3-0.1-4.6-0.3-6.9c-0.9-12-1.9-24-2.8-36c-0.4-4.6-0.7-9.2-1.1-13.9c-0.8-10.4-1.6-20.8-2.5-31.2
		c-0.7-9.5-1.5-19.1-2.2-28.6c-0.8-9.8-1.6-19.6-2.4-29.5c-0.8-9.7-1.4-19.4-2.2-29c-0.1-0.7-0.3-1.4-0.5-2.1
		c-1.5-0.7-2.8-1.4-4.3-2.1c-25.8,14.1-51.6,28.1-76.7,41.8C218.8,611.1,218.1,613.3,217.4,615.8z M58.8,237.1
		c1.4-0.8,2.8-1.5,4.1-2.3c6.9-4.1,13.8-8.3,20.8-12.4c15.2-9.1,30.3-18.2,45.5-27.3c2.1-1.3,4.1-2.7,6.2-3.9
		c4.5-2.6,9-5.2,13.4-7.8c0.7-0.4,1.4-1.1,2.1-1.6c-0.7-0.9-1.1-1.7-1.7-2.4c-6.5-8.5-13.1-16.9-19.5-25.4
		c-5-6.6-9.9-13.3-14.9-19.9c-8.6-11.4-17.3-22.7-25.9-34c-0.3-0.4-0.5-0.7-0.8-1c-1.1-1.2-3.2-0.8-3.8,0.6
		c-0.3,0.7-0.4,1.4-0.5,2.1c-2.4,11.8-4.9,23.6-7.3,35.4c-4.1,19.9-8,39.8-12.2,59.7C62,206.8,60,216.9,57.9,227
		c-0.6,2.8-1.1,5.7-1.6,8.6C57.2,236.2,58,236.6,58.8,237.1z M150.9,691.5c29.9,16.7,59.5,33.2,89.1,49.7c0.9-0.6,1.7-1.1,2.5-1.6
		c-0.5-2.1-0.9-4-1.3-6c-7-29.2-14-58.4-21-87.6c-2.2-9-4.4-18.1-6.5-27.1c-0.4-1.9-1.3-2.8-3.9-2.7c-6.4,8.1-12.8,16.4-19.3,24.7
		c-6.6,8.4-13.1,16.9-19.7,25.3C164.2,674.3,157.7,682.6,150.9,691.5z M152.8,180.9c25.7-15.4,50.9-30.5,76.2-45.6
		c-0.2-1.3-0.3-2.4-0.4-3.5c-1.4-0.4-2.6-0.8-3.8-1.1c-11.2-3-22.4-5.9-33.6-8.8c-12.6-3.3-25.2-6.4-37.7-9.7
		c-7.6-2-15.2-4.2-22.8-6.2c-6.1-1.6-12.3-3-18.4-4.7c-6.1-1.6-12.2-3.4-18.3-5c-1-0.3-2.1-0.5-3.2-0.6c-0.9-0.1-1.8,1-1.3,1.8
		c0.7,1.1,1.5,2.2,2.3,3.3c9.4,12.2,18.9,24.5,28.2,36.7c4.8,6.2,9.4,12.6,14.1,18.9c5.4,7.2,10.9,14.4,16.4,21.6
		C151,178.9,151.8,179.7,152.8,180.9z M252.2,459.6c-2.4,3.2-36.3,70.5-37.6,74.5c0.6,0.6,1.3,1.3,1.8,1.8
		c15.7-3.3,137.6-33.8,141.8-35.5c-0.2-0.5-0.2-1.2-0.6-1.4c-1.2-0.7-2.5-1.1-3.8-1.6c-26-9.7-52-19.3-78-29
		C268,465.4,260.2,462.5,252.2,459.6z M215.2,343.3c0.3-0.4,0.9-0.9,0.9-1.3c0-0.8-0.3-1.7-0.6-2.5c-3.7-11.8-7.4-23.6-11.1-35.4
		c-3.1-10-6.2-20-9.4-30c-2.2-7.1-4.6-14.1-6.8-21.2c-3.2-10.1-6.2-20.3-9.3-30.5c-0.1-0.4-0.4-0.7-0.7-1.2
		c-1.2-0.1-2.4-0.3-3.7-0.4c-16.3,19.5-32.6,38.9-48.8,58.4c-1,1.3-2,2.5-3.1,3.8c-0.1,0.1-0.1,0.3-0.2,0.4c0,0.1,0.1,0.3,0.1,0.4
		C126,286.5,211.9,341.8,215.2,343.3z M147.9,394.7c-2-4-4.7-7.4-7-10.9c-2.4-3.6-4.8-7.1-7.1-10.7c-2.4-3.6-4.8-7.1-7.2-10.7
		c-2.5-3.7-5-7.4-7.4-11c-2.4-3.6-4.8-7.1-7.2-10.7c-2.4-3.6-4.7-7.1-7.2-10.7c-2.4-3.5-4.5-7.2-7.3-10.4c-1.4,0-2.4,0.3-2.7,1.5
		c-0.3,1-0.5,2-0.7,3c-2.1,9.3-4.2,18.7-6.2,28c-2.9,13.3-5.9,26.7-8.7,40c-2.2,9.9-4.2,19.9-6.4,29.8c-1.6,7.5-3.4,15-5.1,22.5
		c-0.2,0.7-0.4,1.4-0.4,2.1c0,0.9,1.5,1.8,2.4,1.4c0.8-0.4,1.6-0.9,2.3-1.4c17.6-12,35.2-24,52.7-36c3.4-2.3,6.8-4.6,10.2-6.9
		C139,400.7,143.4,397.7,147.9,394.7z M215.8,617.1c-0.2,0.9-0.4,1.2-0.4,1.6c9.5,40.1,19.2,80.2,28.8,120.1c4.5,1.7,4.5,1.7,7,5.7
		c5.8,1,55,6.5,58.4,6.1c1.6-1.4,1.7-2.9,0.3-4.5c-0.6-0.7-1-1.4-1.6-2.2c-5.1-7-10.1-13.9-15.2-20.9
		c-24.7-33.9-49.4-67.9-74.1-101.8C218,619.9,217,618.7,215.8,617.1z M157.7,53c-22.3,12.6-45,24.9-67,37.9c-0.4,2,0.4,2.9,2.2,3.4
		c7.5,1.9,14.9,3.9,22.4,5.9c14.2,3.7,28.4,7.5,42.6,11.2c13.5,3.5,26.9,7.1,40.4,10.6c2.5,0.7,5.1,1.2,7.6,1.9
		c7.3,1.9,14.6,3.9,22,5.9c0.8,0.2,1.8,0.6,2.3-0.6C228.1,126.2,161,55.6,157.7,53z M171.3,804.6c1.4-1.1,2.8-2.1,4-3.2
		c17.2-14.3,34.4-28.5,51.6-42.8c4.1-3.4,8.1-6.8,12.1-10.2c0.2-0.2,0.3-0.5,0.5-1c-0.3-0.5-0.7-1.1-1.1-1.8c-41,0-81.9,0-122.8,0
		c-0.4,0-0.9,0.2-1.3,0.3c-1.3,1.4-1.1,2.6,0.2,3.8c3.7,3.5,7.3,7.1,11,10.6c14.2,13.8,28.4,27.6,42.7,41.4
		C169.1,802.7,170.1,803.5,171.3,804.6z M72.4,515.3c-0.1,0.6-0.3,1.1-0.2,1.6c0.9,9.1,1.8,18.1,2.6,27.2c0.5,4.6,0.9,9.2,1.4,13.8
		c0.8,7.6,1.5,15.3,2.3,22.9c0.8,7.9,1.6,15.8,2.4,23.8c0.3,2.4,0.7,4.9,0.9,7.3c0.3,2.6,0.3,5.2,0.6,7.8c0.4,3.4,0.9,6.9,1.2,10.3
		c0.4,4.8,0.7,9.5,1.1,14.3c0.1,1.5,0.1,3.1,1.3,5.2c4.9-11.9,9.8-23.1,14.6-34.3c4.7-11.2,9.5-22.3,14.2-33.5
		c4.8-11.3,9.6-22.5,14.5-33.9c-2.3-1.9-3.1-4.1-2.9-6.6C122.5,538.9,76.2,516.6,72.4,515.3z M149.7,393.5
		c21.4-14.7,42.4-29,63.5-43.5c-0.3-1.2-0.6-2.3-0.9-3.5c-1.6-0.4-3-0.9-4.5-1.3c-34.2-9.1-68.4-18.2-102.6-27.4
		c-1-0.3-2.1-0.5-3.1-0.8c-0.8-0.2-1.7-0.2-2.1,0.5c-0.3,0.6-0.5,1.4-0.2,2c0.4,0.9,1.1,1.8,1.6,2.6c15.4,22.8,30.7,45.6,46.1,68.4
		C148.2,391.3,148.8,392.1,149.7,393.5z M90.7,654.3c-0.7,2.2-0.6,3.7,1.4,4.5c0.4,0.2,0.8,0.4,1.2,0.7
		c17.6,9.8,35.2,19.6,52.8,29.4c0.9,0.5,1.9,1,3,1.6c1.1-1.3,2-2.4,2.9-3.5c6.7-8.5,13.3-17.1,20-25.6
		c11.1-14.2,22.1-28.4,33.2-42.5c0.8-1.1,1.6-2.1,2.4-3.2c0.5-0.7,0.5-1.3-0.6-1.9C168.4,627.2,129.6,640.7,90.7,654.3z
		 M216.6,353.4c-0.8,1.5-1.6,2.7-2.3,4c-7.7,13.6-15.4,27.1-23.1,40.7c-4.8,8.5-9.6,16.9-14.3,25.4c-0.2,0.4-0.2,0.8-0.4,1.3
		c0.7,0.7,1.4,1.4,2.2,2.1c31-6.7,61.7-13.4,92.5-20.2c0.5-1.4,0.9-2.8,1.4-4.2c-16.7-16.8-33.4-33.4-49.9-49.9
		C220.5,352.9,218.7,353.1,216.6,353.4z M175.5,434.1c0.3,1,0.5,1.7,0.7,2.4c11.2,31.1,22.5,62.3,33.7,93.4c0.2,0.7,0.6,1.4,0.9,2
		c0.3,0.6,1.6,0.8,2,0.2c0.6-1,1.2-2,1.8-3c11.2-22.1,22.3-44.3,33.5-66.4c0.6-1.2,1.1-2.4,1.6-3.5c-3.2-1.8-67.9-25.9-72-26.8
		C177,432.8,176.4,433.4,175.5,434.1z M169.6,805.9c-0.8-0.9-1.4-1.7-2.2-2.4c-3.2-3.1-6.4-6.3-9.7-9.4
		c-10.8-10.4-21.6-20.9-32.3-31.3c-3.6-3.4-7.1-6.9-10.6-10.3c-0.8-0.7-1.4-1.6-2.3-2.1c-0.6-0.4-1.4-0.4-2.1-0.4
		c-0.9,0.1-1.3,0.8-1.3,1.6c0,1.2-0.1,2.3-0.1,3.5c0,8.1,0,16.2,0,24.3c0,12.6,0.2,25.2,0.2,37.8c0,8.7-0.1,17.4-0.2,26.1
		c0,3.1,0.1,6.3,0.1,9.2c1.7,1.3,3.1,1.5,4.5,0.3c2.5-2.2,4.9-4.4,7.5-6.5c6.6-5.5,13.4-10.8,20-16.3c8.5-7,16.9-14.1,25.4-21.1
		C167.5,807.8,168.5,806.9,169.6,805.9z M238.8,742.7c-1.2-0.8-2.3-1.5-3.5-2.2c-17.9-9.9-35.9-19.8-53.8-29.7
		c-5.5-3-10.8-6.2-16.3-9.3c-4.2-2.4-8.5-4.8-12.8-7.1c-0.9-0.5-1.9-0.8-2.9-1.2c-12.5,15.9-24.9,31.7-37.1,47.5
		c0.6,1.1,1.1,2,1.5,2.9c0.6,0.1,1,0.3,1.5,0.3c40,0,79.9,0,119.9,0c0.8,0,1.6-0.1,2.3-0.1c0.2,0,0.3,0,0.4-0.1
		C238.3,743.6,238.4,743.4,238.8,742.7z M166.8,431.2c-32.1,7-64,13.9-96,20.9c0,1.1,0,1.9,0,2.8c12.7,7.2,25.2,14.4,37.8,21.6
		c12.7,7.2,25.4,14.4,38.1,21.6c2-3.3,14.9-39.1,22.8-63.1c0.1-0.3,0-0.6-0.1-1C168.7,433.3,167.9,432.4,166.8,431.2z M173.6,219.2
		c-1.1-0.7-1.7-1.3-2.3-1.4c-0.7-0.1-1.5,0.2-2.3,0.4c-20.8,4.3-41.6,8.6-62.4,12.8c-9.4,1.9-18.8,3.8-28.2,5.8
		c-5.9,1.2-11.8,2.5-17.9,3.8c-0.3,1-0.5,1.9-0.9,3c10.3,6.6,20.4,13.1,30.5,19.6c10.1,6.4,19.9,13.2,30.4,19.4
		C138.2,261.4,155.7,240.5,173.6,219.2z M275.6,411.9c-7.6,15.2-15.1,30.1-22.6,45.1c-0.1,0.1,0,0.3,0,0.4c0,0.1,0.1,0.3,0.2,0.7
		c1.3,0.5,2.7,1.1,4.1,1.6c27.2,10.1,54.3,20.2,81.5,30.3c5.9,2.2,11.8,4.4,17.8,6.6c0.7,0.3,1.7,1,2.4-0.1
		c-2.8-3.8-75.6-82.7-78.4-85.1C279,411.5,277.5,411.7,275.6,411.9z M233.2,127.9c-7.3-33.4-14.5-66.4-21.6-99.2
		c-2.3-0.9-4.3-1.6-6.3-2.4c-15,8.5-30.1,16.9-45.1,25.4c0.3,0.6,0.4,1.1,0.6,1.4c23.6,24.8,47.2,49.7,70.9,74.5
		C231.9,127.7,232.3,127.7,233.2,127.9z M89.8,652.5c1.4-0.3,2.4-0.5,3.3-0.8c7.9-2.7,15.7-5.4,23.6-8.2
		c13.1-4.6,26.2-9.1,39.3-13.7c16.4-5.7,32.9-11.5,49.3-17.2c0.6-0.2,1.1-0.5,1.5-0.7c0.3-1.3,0.5-2.4,0.8-3.8
		c-12.4-10.6-24.9-21.2-37.4-31.8C167.2,578.3,92.2,649.2,89.8,652.5z M357.9,503c-2.1-0.4-3.8,0.5-5.5,0.9
		c-38.5,9.5-77,19.1-115.4,28.6c-5.9,1.5-11.7,2.9-17.6,4.4c-0.8,0.2-1.9,0.3-2,1.9c5.4,1.8,11.1,3.1,16.7,4.7
		c5.5,1.6,11,3,16.6,4.5c5.7,1.5,11.3,3.1,17,4.6c5.7,1.5,11.2,3.3,17.2,4.5c24.1-17.7,48.2-35.3,72.3-53
		C357.4,504,357.5,503.5,357.9,503z M136.5,547.4c-1.9,0.5-3.7,0.9-5.6,1.3c-14.2,33.5-28.4,67-42.6,100.5c-0.1,0.2,0.2,0.5,0.4,1
		c0.8-0.8,1.6-1.4,2.4-2.2c4.7-4.4,9.4-8.9,14.1-13.3c9.5-9,19-17.9,28.5-26.9c10.9-10.3,21.8-20.6,32.7-31c0.7-0.7,1.3-1.5,2-2.4
		C157.6,565.4,147.1,556.4,136.5,547.4z M209,533.1c-0.5-1.6-0.7-2.6-1.1-3.5c-11-30.6-22-61.1-33.1-91.7c-0.4-1.2-0.4-3-2.1-3.1
		c-2.1-0.1-1.9,2-2.4,3.2c-6.9,19.4-13.7,38.7-20.5,58.1c-0.3,0.9-0.6,1.9-0.9,2.7C151.9,501.2,204.1,531.1,209,533.1z M217,606.5
		c0.6-0.3,1.1-0.4,1.4-0.7c21-15.4,42-30.9,63.1-46.3c0.1-0.1,0.2-0.2,0.2-0.4c0-0.1,0-0.3,0.1-0.7c-10.7-3.2-21.7-6-32.5-9
		c-10.9-3-21.7-6.1-32.5-8.8c-1.6,1.3-3.1,2.4-4.5,3.5c0.4,20.4,0.4,40.7,1.3,60.9C214.9,605.6,216,606.1,217,606.5z M107.5,738.8
		c2.2,0.9,3.8,1,4.8-0.9c0.1-0.3,0.3-0.5,0.5-0.7c11.1-14.3,22.3-28.6,33.4-42.8c0.6-0.8,1-1.6,1.4-2.4
		c-6.7-4.3-55.4-31.2-58.9-32.5c-1,0.6-2,1.2-1.6,2.7c0.2,0.7,0.3,1.4,0.5,2.1c2.2,8.4,4.5,16.8,6.7,25.3c2.4,9.1,4.8,18.3,7.2,27.4
		C103.5,724.2,105.5,731.5,107.5,738.8z M116.1,14.4c-1.8,4.5-3.5,8.7-5.1,12.9c-7.5,19.3-15,38.6-22.5,57.9c-0.4,1-1.5,2.1-0.3,3.2
		c1.4,1.3,2.6,0,3.7-0.6c7.7-4.3,15.4-8.6,23.1-12.9c11.9-6.6,23.7-13.3,35.6-19.9c2-1.1,3.8-2.4,5.9-3.7
		c-12.1-12.8-24-25.4-35.9-37.9C119,13.7,117.7,14,116.1,14.4z M271.9,408.5c-1.3,0.2-2.6,0.3-3.8,0.6
		c-28.7,6.3-57.4,12.6-86.1,18.9c-1.3,0.3-3.2,0-3.2,1.8c0,1.3,1.8,1.4,2.9,1.8c22.1,8.2,44.1,16.4,66.2,24.6
		c0.8,0.3,1.7,0.5,2.5,0.8c2.1-2.8,21.4-40.7,23.4-46C273.2,410.1,272.6,409.4,271.9,408.5z M61.6,238.6
		c36.8-7.6,73.2-15.1,109.6-22.6c0.4-1,0.7-1.8,1-2.6c0.3-0.8,0.7-1.6,0.9-2.2c-7.4-10.8-18.8-25.3-21.6-27.5
		c-28.7,17.2-57.5,34.4-86.2,51.6c-1.2,0.7-2.3,1.5-3.4,2.3C61.9,237.6,61.9,237.8,61.6,238.6z M71.3,457.7
		c-0.3,0.3-0.6,0.5-0.9,0.8c4.8,6.7,9.8,13.2,14.7,19.8c4.9,6.5,9.8,13.1,14.7,19.6c5,6.7,10,13.3,15,19.9c5,6.6,10,13.2,15,19.9
		c1.4-0.3,2.6-0.5,3.6-0.6c3.7-8.7,12.3-33.8,12.8-37.3C121.9,486,97.5,472.1,73,458.3C72.5,458,71.9,457.9,71.3,457.7z M71.6,450.1
		c31.6-6.8,63.2-13.7,94.5-20.5c0.8-1.9,1.5-3.5,2.2-5.1c-6.2-9.2-12.4-18.3-18.6-27.5c-0.1-0.2-0.5-0.3-1.1-0.6
		c-5.9,3.2-11,7.7-16.7,11.3C116.1,417.8,74.7,446.5,71.6,450.1z M230,137c-5,2.4-73.2,43.4-76,45.7c6.9,9.2,13.9,18.4,20.8,27.4
		c2,0,3.7,0,5.6,0c16.6-23.9,33.1-47.9,49.7-71.9C230.2,138.1,230.1,137.8,230,137z M112.4,12.7c-0.3-0.1-0.6-0.4-0.8-0.4
		c-23.8,9.2-47,19.5-70.4,29.2c-0.4,2-0.7,3.7-1.1,5.5c9.2,9.2,18.4,18.4,27.6,27.6c0.1,0.1,0.3,0.2,0.4,0.2c0.1,0,0.3,0,0.4,0
		c0.3-0.2,0.6-0.3,0.8-0.5c14-19.6,28-39.3,42.1-58.9c0.3-0.5,0.7-1,1-1.5c0.1-0.1,0.1-0.3,0.1-0.4c0-0.1,0-0.3,0-0.4
		C112.5,13,112.5,12.9,112.4,12.7z M246.2,750.3c-1.2,0.1-2.3,0.1-3.4,0.2c-13.4,25.8-26.7,51.5-39.9,77.1c-0.1,0.1,0,0.3,0,0.4
		c0.1,0.1,0.2,0.2,0.3,0.3c3.9-2,39.4-26.2,59.1-40.2c0.7-0.5,1.4-1.1,2-1.6C263.2,783.2,249.7,756.1,246.2,750.3z M200.6,827.1
		c13.3-25.5,26.5-50.8,39.8-76.2c0.1-0.2-0.1-0.5-0.2-0.8c-0.3,0.1-0.6,0.1-0.8,0.3c-18.5,15.3-36.9,30.6-55.4,45.9
		c-3.6,3-7.1,6-10.7,9c-0.1,0.1-0.2,0.2-0.2,0.4c0,0.1,0,0.3-0.1,0.7c7.4,7.1,14.8,14.5,22.2,21.5
		C197.1,827.7,198.6,827.4,200.6,827.1z M127.2,539.4c0.2-0.2,0.5-0.5,0.7-0.7c-0.5-0.9-0.9-1.8-1.5-2.6c-2.7-3.7-5.5-7.3-8.2-11
		c-15.3-20.4-30.6-40.8-45.9-61.2c-1.3-1.8-2.8-3.5-4.2-5.2c-0.3-0.4-0.6-1-1.6-0.4c1.3,18,3.5,36.1,5.2,54.3
		C90.3,521.6,108.7,530.5,127.2,539.4z M158.5,50.4c4.8-2.6,9.2-5,13.6-7.5c10-5.6,20-11.2,30-16.8c0.8-0.4,1.6-0.9,2.3-1.5
		c1-0.8,0.5-2.4-0.8-2.7c-1.2-0.3-2.4-0.5-3.7-0.7c-14.9-2.1-29.8-4.3-44.7-6.4c-8.7-1.2-17.5-2.5-26.2-3.7
		c-1.7-0.2-3.4-0.5-5.1-0.7c-0.6-0.1-1.2,0.2-2,0.3c0.2,0.7,0.2,1.3,0.5,1.7c0.7,0.9,1.6,1.8,2.4,2.7c8.2,8.5,16.4,17,24.6,25.5
		c2.3,2.4,4.4,4.9,6.6,7.3C156.8,48.8,157.5,49.5,158.5,50.4z M214.9,351.3c-2,1.3-3.3,2.1-4.5,2.9c-5.5,3.8-10.9,7.7-16.4,11.5
		c-5.6,3.9-11.4,7.5-17.1,11.4c-8.3,5.6-16.5,11.3-24.8,16.9c-0.5,0.3-0.8,0.8-1.1,1.2c6.4,9.6,12.7,19,19.1,28.5
		c1.7-0.1,3.2-0.2,4.5-0.2C182.9,410.3,213.5,355.6,214.9,351.3z M267.3,854.8c2.7-12.9,5.4-25.5,8.1-38c-1.5-1.2-2.7-2.3-3.9-3.3
		c-8.8,2.6-17.4,5-26,7.5c-12.3,3.5-24.6,7.1-36.9,10.6c-1.4,0.4-3.1,0.4-3.9,1.9C207.8,835.3,261.9,853.6,267.3,854.8z
		 M138.6,541.5c22.1-2,44.2-4,66.2-6c0.4,0,0.8-0.4,1.1-0.6c-0.1-0.3,0-0.8-0.2-0.9c-18.8-11.3-38.1-21.8-57-32.8
		c-1.8,3-12.2,32.3-13.1,36.7C136.4,538.9,137.3,540,138.6,541.5z M171,575c1.1,0.7,1.8,1,2.4,1.5c11.1,9.4,22.1,18.7,33.1,28.1
		c0.5,0.4,0.9,0.9,1.4,1.1c0.6,0.3,1.5,0.5,2.1,0.3c0.9-0.2,1.5-0.9,1.5-1.9c0-1.2,0-2.3,0-3.5c-0.3-17.5-0.7-35.1-1-52.6
		c0-1.3-0.1-2.6-0.2-3.9c-1.4-0.8-2.7-1.5-4.2-2.4C194.5,552.7,183.1,563.5,171,575z M119.2,284.1c-1-0.7-1.5-1.2-2.2-1.6
		c-4.2-2.7-8.5-5.3-12.7-8c-7.3-4.7-14.4-9.5-21.7-14.2c-7.3-4.7-14.6-9.4-21.9-14.1c-0.7-0.4-1.4-1.3-2.4-0.5
		c1.2,3.3,32.9,59.9,35.3,63c1.5,0.1,3,0.2,4.8,0.3C105.2,300.9,112,292.7,119.2,284.1z M248.3,749.5c5.3,12,16,32.6,18.3,35.4
		c0.9-0.5,1.8-1.1,2.7-1.7c12.8-8.7,25.5-17.5,38.2-26.3c0.5-0.3,1.1-0.6,1.5-1c0.5-0.5,1-1.1,1.1-1.7c0.1-0.5-0.5-1-0.7-1.5
		c-19.2-2.6-54.9-6.3-58.9-6.1C249.8,747.6,249.1,748.5,248.3,749.5z M169.9,573.3c0.9-0.8,1.7-1.4,2.5-2.1
		c10.1-9.6,20.3-19.2,30.4-28.7c0.5-0.5,1.1-1,1.6-1.6c0.9-1,1-2,0.2-3.4c-1,0-2-0.1-3.1,0c-6.2,0.5-12.4,1.1-18.6,1.7
		c-13.9,1.2-27.8,2.5-41.7,3.7c-0.6,0.1-1.2,0.1-1.8,0.2c-1.3,0.3-2,2.2-1.2,3.2c0.6,0.7,1.3,1.3,2,1.8c9.2,7.8,18.4,15.6,27.5,23.4
		C168.3,572.2,169.1,572.7,169.9,573.3z M79.9,111.1c-2.8,5-39.5,108.8-40,112c1.7,2,3.6,4.2,5.4,6.3c1.9,2.2,3.8,4.6,6,6.7
		c1.2-0.4,2.2-0.7,3.2-1C62.9,193.6,71.4,152.4,79.9,111.1z M8.1,164c0.2,0.2,0.4,0.4,0.6,0.6c23.5-22.6,47.1-45.3,70.4-67.7
		c0-2.8,0-5.2,0-8.2c-3-2.9-6.3-6.6-9.9-9.8c-0.5,0.2-0.9,0.3-1.1,0.5c-19.8,27.8-39.7,55.7-59.5,83.5C8.4,163.2,8.3,163.7,8.1,164z
		 M33.1,256c7.5,6.8,15,13.5,22.5,20.3c0.7,0.6,1.2,1.3,1.9,1.9c10.6,9.8,21.2,19.5,31.7,29.3c0.1,0.1,0.3,0.2,0.4,0.2
		c0.1,0,0.2-0.2,0.4-0.6c-11.2-20.1-22.5-40.3-33.7-60.4c-1.5-0.2-2.8-0.2-4-0.5c-1.3-0.4-2.4-1.2-3.7-1.8
		c-4.9,2.1-9.6,4.2-14.3,6.2C33.9,252.3,33.6,253.9,33.1,256z M265.5,788c-20.4,14-40.3,27.7-60.2,41.4c-0.3,0.2-0.5,0.7-1.2,1.7
		c8.1-2.1,15.4-4.4,22.8-6.5c7.4-2.1,14.8-4.2,22.3-6.4c7.4-2.1,14.8-4.3,21.6-6.3c1.4-2.4,2.5-4.3,3.7-6.3
		C271.5,800,268.6,794.2,265.5,788z M85.8,87c8.9-23,18-45.8,26.4-68.9c-0.6,0.3-1.1,0.6-1.4,1c-1.3,1.8-2.6,3.6-3.9,5.4
		C95.1,41.3,83.2,58.1,71.3,74.8c-0.5,0.7-0.7,1.5-1.2,2.4c3.7,3.7,7.3,7.3,10.8,10.9C82.7,87.7,84.2,87.4,85.8,87z M280.1,805.9
		c10.2-15.8,20.3-31.5,30.4-47.3c0.1-0.2-0.1-0.5-0.2-1.1c-0.6,0.3-1.1,0.4-1.5,0.7c-11,7-38.7,26.3-41.5,29.1
		c2.8,6.1,6,12.2,9.1,18.2C277.7,805.7,278.8,805.8,280.1,805.9z M304.9,558.1c15.3-15.4,30.3-30.5,45.3-45.5
		c0.1-0.1,0.2-0.3,0.2-0.4c0-0.1-0.2-0.2-0.4-0.5c-1.1,0.7-2.2,1.4-3.2,2.2c-7.9,5.8-15.9,11.6-23.8,17.4
		c-10.9,8-21.7,15.9-32.6,23.9c-1,0.8-2.6,1.2-2.6,2.9c2.6,0.7,5.2,1.8,8.1,2C298.2,557.4,301.2,556.9,304.9,558.1z M47.8,242.8
		c0.5-2.1,1-3.9,1.4-5.7c-2.6-3.8-7.7-9.6-10.2-11.5c-0.1,0.1-0.4,0.1-0.4,0.2c-2.4,6.7-4.9,13.3-7.3,20c-0.6,1.5,0.4,2.4,2.2,3.1
		C38.2,247,43.1,244.9,47.8,242.8z"/>
</g>
</svg>
