<svg xmlns="http://www.w3.org/2000/svg" width="378" height="910.101" viewBox="0 0 378 910.101">
  <path id="Grid" d="M177.1,9.6a5.335,5.335,0,0,0-5.3,5.3,4.671,4.671,0,0,0,.3,1.7L108,45.5a5.118,5.118,0,0,0-4.4-2.4,5.32,5.32,0,0,0-2.1,10.2L70.8,171.8h-.6a5.3,5.3,0,0,0,0,10.6,4.1,4.1,0,0,0,1.1-.1l23.4,63.9a5.254,5.254,0,0,0,2.5,9.9,5.167,5.167,0,0,0,3.2-1.1l53.1,52.7a5.711,5.711,0,0,0-1,3.1,5.607,5.607,0,0,0,1.2,3.4L35.5,445.6a4.764,4.764,0,0,0-2.9-.9,5.3,5.3,0,1,0,0,10.6,7.117,7.117,0,0,0,2.1-.4L147.3,636.2a5.269,5.269,0,0,0-4.4,5.2,5.335,5.335,0,0,0,5.3,5.3h.5L167.5,723a5.375,5.375,0,0,0-3.3,4.9,5.2,5.2,0,0,0,4.5,5.2v99.4a5.267,5.267,0,0,0-4.5,5.2,5.366,5.366,0,0,0,1.8,4l-43,65.9a5.45,5.45,0,0,0-2.2-.5,5.3,5.3,0,1,0,0,10.6,5.2,5.2,0,0,0,5.2-4.6l166.6,2a5.274,5.274,0,1,0,9.7-3.5l60.4-52.5a5.127,5.127,0,0,0,3.4,1.3,5.3,5.3,0,0,0,0-10.6,4.751,4.751,0,0,0-2.4.6l-38-54.2a5.221,5.221,0,0,0-.1-7.8L354.7,740a5.662,5.662,0,0,0,1.8.3,5.3,5.3,0,0,0,0-10.6l.8-.1L344.7,556.9a5.185,5.185,0,0,0,4.1-5.2,4.971,4.971,0,0,0-1.2-3.3l49.4-53a5.311,5.311,0,1,0,3-9.7,5.376,5.376,0,0,0-2.8.8L326,403.4a5.2,5.2,0,0,0,1.3-3.5,5.335,5.335,0,0,0-8.3-4.4l-45.6-49.1a5.547,5.547,0,0,0,1.2-3.3,5.335,5.335,0,0,0-5.3-5.3h-.6L234.4,220a5.344,5.344,0,0,0,3-4.8,5.613,5.613,0,0,0-1.7-3.9l45.7-70.9a5.932,5.932,0,0,0,2.3.5,5.3,5.3,0,0,0,.2-10.6L264.2,33.1a5.235,5.235,0,0,0,3-4.8,5.335,5.335,0,0,0-5.3-5.3,5.147,5.147,0,0,0-4.8,3.2L182.4,14.7A5.3,5.3,0,0,0,177.1,9.6Zm161.2,542a4.477,4.477,0,0,0,.4,2l-65.4,38.2,55.5-43.7,9.5,2.8C338.4,551.1,338.3,551.3,338.3,551.6Zm13.8,186L312,767.2l-16.4-35a5.525,5.525,0,0,0,2.2-3l53.6,6.2A4.394,4.394,0,0,0,352.1,737.6Zm8.8,117.3a5.376,5.376,0,0,0,.8,2.8l-60.4,52.5a6.931,6.931,0,0,0-1.7-1L314,836.7l46.9,17C360.9,854.2,360.9,854.5,360.9,854.9ZM74.1,180.7a5.064,5.064,0,0,0,1.4-3.6,5.167,5.167,0,0,0-1.1-3.2l70.6-73a2.507,2.507,0,0,0,.7.4L106.3,220.8Zm205.1-47.9L153.4,97.2v-.7a4.477,4.477,0,0,0-.4-2l61.4-36.9,65.7,74.2A9.017,9.017,0,0,0,279.2,132.8Zm-134-40.6L134.9,81l39.9-60.2L149.2,91.4a3.75,3.75,0,0,0-1.1-.1A4.979,4.979,0,0,0,145.2,92.2Zm-1.1,1.1a5.547,5.547,0,0,0-1.2,3.3,5.167,5.167,0,0,0,1.1,3.2L75.6,170.5,134,82.4Zm1.1,14.9L121,234.7h-.2a6.008,6.008,0,0,0-2.7.7l-10.6-13.2ZM116.9,236.4a5.064,5.064,0,0,0-1.4,3.6,7.719,7.719,0,0,0,.2,1.5l-14,6.5a4.939,4.939,0,0,0-2-1.8L107,224Zm-14.3,14.5a7.719,7.719,0,0,0-.2-1.5l14-6.5a5.354,5.354,0,0,0,4.4,2.4,4.671,4.671,0,0,0,1.7-.3l32.2,61.7h-.1L101.5,254A5.1,5.1,0,0,0,102.6,250.9ZM319.2,404.3l-21.1,45-65.4-26.1a4.868,4.868,0,0,0,.1-1.2v-.4l84.4-19.8A4.992,4.992,0,0,0,319.2,404.3ZM293.8,910.9,198.5,854l48.8-37.2a5.582,5.582,0,0,0,3.7,1.5,7.716,7.716,0,0,0,1.5-.2L295,909.8A6.532,6.532,0,0,0,293.8,910.9Zm-169.5-2.6,43-65.9a5.45,5.45,0,0,0,2.2.5,5.505,5.505,0,0,0,4.1-1.9l22.1,13.2-71.3,54.3C124.4,908.4,124.3,908.4,124.3,908.3ZM226.2,788l20.7,21.6a5.2,5.2,0,0,0-1.3,3.5,2.2,2.2,0,0,0,.1.8l-71.5,21.5a2.091,2.091,0,0,0-.4-.6Zm-52.6-57a5.09,5.09,0,0,0,1-2.5H287.3a4.851,4.851,0,0,0,.8,2.1l-61.9,55.2ZM159.9,315.8l45.7,72.8L134.1,441a4.738,4.738,0,0,0-1.9-1.2l25.4-123.5h.3A7.334,7.334,0,0,0,159.9,315.8ZM262.7,593a5.1,5.1,0,0,0-2.3,1.2L226.2,563l31.7-32.2a5.793,5.793,0,0,0,3.7,2.1ZM135.6,444.7v-.4L221,424.4l1.6-.4a5.7,5.7,0,0,0,2.5,2.8l-20.5,62.5-69.5-42.5A4.061,4.061,0,0,0,135.6,444.7Zm91.1-17.4c.3,0,.6.1.9.1a2.768,2.768,0,0,0,.9-.1l32.1,95.4a4.877,4.877,0,0,0-.7.3l-53.8-32.9Zm31.7,96.6a4.44,4.44,0,0,0-.8,1.1l-37,3.6-24.2,2.3a5.147,5.147,0,0,0-2.7-3.4l11.8-36Zm-62.7,11.2a4.7,4.7,0,0,0,.8-2.6l24.4-2.4,36-3.5a3.4,3.4,0,0,0-.1,1,5.663,5.663,0,0,0,.3,1.8L225.2,562Zm26.6-113v.4l-87.1,20.3c-.1-.2-.1-.4-.2-.5L206.4,390l17.7,28.1A5.207,5.207,0,0,0,222.3,422.1Zm-87.9,26,69.8,42.7-11.9,36.3a3.4,3.4,0,0,0-1-.1,5.932,5.932,0,0,0-2.3.5l-55-79Zm60.3,88.2,29.4,26.8-72.8,74a2.186,2.186,0,0,0-.5-.3l39.4-99.3a4.1,4.1,0,0,0,1.1.1A5.69,5.69,0,0,0,194.7,536.3Zm30.5,27.9,34.3,31.3a4.953,4.953,0,0,0-.7,2.7,2.769,2.769,0,0,0,.1.9l-106,39.7c-.1-.2-.3-.4-.4-.6ZM174.7,837.6a2.2,2.2,0,0,0-.1-.8l54.2-16.3,17.3-5.2c0,.1.1.2.1.3L197,853.2l-22.7-13.5A4.918,4.918,0,0,0,174.7,837.6ZM289.2,731.9c.1.1.3.2.4.3l-37,75.9a4.145,4.145,0,0,0-1.6-.2,5.376,5.376,0,0,0-2.8.8L227.4,787ZM264.3,592.8l-1.1-60a5.3,5.3,0,0,0,3.8-3l60,17.6-59.4,46.8A5.252,5.252,0,0,0,264.3,592.8Zm3.1-64.4c0-.2.1-.5.1-.7v-.6L395.3,493a2.187,2.187,0,0,0,.3.5l-67,52.8Zm-5.3-6L230,426.8a6.09,6.09,0,0,0,2.2-2l65.3,26-33.7,71.8a9.854,9.854,0,0,0-1.7-.2ZM225.4,417.2,207.7,389l57.7-42.3a4.62,4.62,0,0,0,.7.7l-36.8,69.7a4.844,4.844,0,0,0-1.8-.3A5.221,5.221,0,0,0,225.4,417.2Zm38.7-74a5.45,5.45,0,0,0,.5,2.2l-57.7,42.3L161.2,315a4.887,4.887,0,0,0,1.4-1.8l101.6,29A3.083,3.083,0,0,0,264.1,343.2ZM156,315.9,130.6,439.4h-.3a5.322,5.322,0,0,0-5.3,4.8l-87.3,4.7a5.481,5.481,0,0,0-1.1-2.3L154.8,315.3A6.719,6.719,0,0,0,156,315.9ZM37.8,450.5l87.3-4.7A5.321,5.321,0,0,0,130,450l4.9,52.2L37.6,451.8A6.882,6.882,0,0,0,37.8,450.5Zm93.8-.7a4.876,4.876,0,0,0,1.1-.4l55,78.9a2.7,2.7,0,0,0-.7.8L136.5,503Zm54.7,80.7a4.671,4.671,0,0,0-.3,1.7,5.258,5.258,0,0,0,2.7,4.6l-39.4,99.3c-.1,0-.3-.1-.4-.1L136.7,504.7ZM153.5,641.3a4.1,4.1,0,0,0-.1-1.1l106-39.7a10.536,10.536,0,0,0,.7,1.1l-53.5,73.7-53.5-32A5.917,5.917,0,0,0,153.5,641.3Zm107.8-38.7a5.029,5.029,0,0,0,2.7.8l26.1,116.7.6,2.7a5.028,5.028,0,0,0-2.2,1.6l-80.6-48.3Zm26.4,123.2a2.663,2.663,0,0,0-.3,1.2H174.7a5.373,5.373,0,0,0-1.5-3L207,677.4Zm-115.2,6.3,52.6,54.8-52.3,46.7a5.679,5.679,0,0,0-2.6-1.2V733A4.648,4.648,0,0,0,172.5,732.1ZM125.4,909.7l71.7-54.6L293,912.3a2.663,2.663,0,0,0-.3,1.2l-166.7-2A4.779,4.779,0,0,0,125.4,909.7Zm172.7-.7h-.3a7.716,7.716,0,0,0-1.5.2l-42.5-91.7a5.194,5.194,0,0,0,1.7-1.9l57,20.7Zm-42-94.8a3.749,3.749,0,0,0,.1-1.1V813l61-18.9a5.381,5.381,0,0,0,3.1,3l-7.5,37.7Zm60.8-22.1v.5L256,811.4a6.891,6.891,0,0,0-.3-.8l55.7-41.1,8.4,17.9A5.215,5.215,0,0,0,316.9,792.1Zm-62.2,17.3-.5-.5L291,732.8a4.145,4.145,0,0,0,1.6.2,7.716,7.716,0,0,0,1.5-.2l16.5,35.3Zm98.1-78.3a5.33,5.33,0,0,0-1.4,2.8l-53.5-6.2a5.3,5.3,0,0,0-5.3-5.1h-.4l-6.5-29.1-20.2-90.2c.2,0,.3-.1.5-.2Zm-14-181.7-8.5-2.5,62.3-49.1-46.1,49.4a5.291,5.291,0,0,0-3-.9A5.407,5.407,0,0,0,338.8,549.4Zm56.1-58.5v.6L267.1,525.6a6.033,6.033,0,0,0-1.9-2.3l33.7-71.9L395,489.8A3.749,3.749,0,0,0,394.9,490.9Zm.7-2.6-96-38.3,21.1-45a7.719,7.719,0,0,0,1.5.2,5.376,5.376,0,0,0,2.8-.8l71.2,83.1A1.555,1.555,0,0,0,395.6,488.3Zm-78.7-88.4v.4l-84.4,19.8a5.781,5.781,0,0,0-1.8-2.3l36.8-69.7a5.847,5.847,0,0,0,1.9.4,5.291,5.291,0,0,0,3-.9L318,396.7A4.962,4.962,0,0,0,316.9,399.9Zm-52.1-59.3h0L163,311.6v-.7a5.145,5.145,0,0,0-1.5-3.6l19.3-24.8ZM160.4,306.3a5.94,5.94,0,0,0-2.6-.7,4.672,4.672,0,0,0-1.7.3l-32.2-61.7a2.336,2.336,0,0,0,.7-.7l55,38Zm-34.9-64a5.932,5.932,0,0,0,.5-2.3v-.4l95.4-21.2,5.7-1.3a5.675,5.675,0,0,0,1.2,1.8l-47.8,61.4Zm101.3-27v.4l-5.3,1.2-95.8,21.2c0-.1-.1-.2-.1-.3l83.6-53.7,19.4,27.3A5,5,0,0,0,226.8,215.3Zm-102,21.2a5.415,5.415,0,0,0-2.2-1.5L148,101.8h.2a4.751,4.751,0,0,0,2.4-.6l57.7,81.5Zm27-136.1a6.1,6.1,0,0,0,1.2-1.6l125.6,35.5a7.719,7.719,0,0,0-.2,1.5,5.663,5.663,0,0,0,.3,1.8L209.6,182ZM261.9,33.8a2.2,2.2,0,0,0,.8-.1l19.7,96.9-.9.3L215.9,56.8l41.8-25.1A5.4,5.4,0,0,0,261.9,33.8ZM152.3,93.2a5.088,5.088,0,0,0-1.6-1.3l26-71.7h.5a5.456,5.456,0,0,0,3.3-1.1l33,37.3ZM172.8,18a3.447,3.447,0,0,0,1.2,1.2L133.8,79.9,107.7,51.7a5.547,5.547,0,0,0,1.2-3.3,5.9,5.9,0,0,0-.2-1.4ZM103.1,53.6h.6a5.291,5.291,0,0,0,3-.9L133,81.2,72.6,172.3c-.1,0-.1-.1-.2-.1ZM72.8,181.7l.1-.1,32.9,40.9-7.6,23.1a2.768,2.768,0,0,0-.9-.1,4.1,4.1,0,0,0-1.1.1ZM36,454l.9-.9L135.1,504l12,128.8ZM150.2,646.2a6.228,6.228,0,0,0,2.1-1.5l53.4,31.9L172,723.1a5.025,5.025,0,0,0-2.4-.6h-.5ZM362.5,851.1a6.42,6.42,0,0,0-1,1.3l-47.2-17.1,7.5-37.9h.3a4.751,4.751,0,0,0,2.4-.6Zm-38.2-63.8a5.45,5.45,0,0,0-2.2-.5,2.769,2.769,0,0,0-.9.1l-8.6-18.3,40.5-29.8c.1.1.2.2.3.2Zm31.5-57.7h0a4.923,4.923,0,0,0-1.7.6L267.4,602.3a5.422,5.422,0,0,0,2-4.1,4.477,4.477,0,0,0-.4-2l70.6-41.3a5.675,5.675,0,0,0,3.7,2ZM267.3,338.3a3.956,3.956,0,0,0-1.5,1l-83.9-58.1,47.8-61.4a5.422,5.422,0,0,0,2.5.6,1.949,1.949,0,0,0,.8-.1ZM234.4,210.5a5.54,5.54,0,0,0-4.6,0l-19.3-27.3,68.9-44.3a5.008,5.008,0,0,0,.7.8Zm22.2-182a5.663,5.663,0,0,0,.3,1.8L214.8,55.6,181.5,17.9a5.066,5.066,0,0,0,.7-1.5l74.5,11.5A1.269,1.269,0,0,0,256.6,28.5Z" transform="translate(-27.3 -9.6)" fill="#fff"/>
</svg>
