<svg xmlns="http://www.w3.org/2000/svg" xmlns:xlink="http://www.w3.org/1999/xlink" version="1.1" width="1000" height="1000" viewBox="0 0 1000 1000" xml:space="preserve">
<desc>Created with Fabric.js 3.5.0</desc>
<defs>
</defs>
<rect x="0" y="0" width="100%" height="100%" fill="rgba(255,255,255,0)"/>
<g transform="matrix(2.4534 0 0 2.4215 499.9972 385.2432)" id="375689">
<path style="stroke: none; stroke-width: 1; stroke-dasharray: none; stroke-linecap: butt; stroke-dashoffset: 0; stroke-linejoin: miter; stroke-miterlimit: 4; is-custom-font: none; font-file-url: none; fill: rgb(255,255,255); fill-rule: nonzero; opacity: 1;" vector-effect="non-scaling-stroke" transform=" translate(-216.3, -464.65)" d="M 177.1 9.6 c -2.9 0 -5.3 2.4 -5.3 5.3 c 0 0.6 0.1 1.2 0.3 1.7 l -64.1 28.9 c -0.9 -1.5 -2.6 -2.4 -4.4 -2.4 c -2.9 0 -5.3 2.4 -5.3 5.3 c 0 2.2 1.3 4.1 3.2 4.9 L 70.8 171.8 c -0.2 0 -0.4 0 -0.6 0 c -2.9 0 -5.3 2.4 -5.3 5.3 c 0 2.9 2.4 5.3 5.3 5.3 c 0.4 0 0.7 0 1.1 -0.1 l 23.4 63.9 c -1.6 0.9 -2.8 2.6 -2.8 4.6 c 0 2.9 2.4 5.3 5.3 5.3 c 1.2 0 2.3 -0.4 3.2 -1.1 l 53.1 52.7 c -0.6 0.9 -1 2 -1 3.1 c 0 1.3 0.5 2.5 1.2 3.4 L 35.5 445.6 c -0.8 -0.6 -1.8 -0.9 -2.9 -0.9 c -2.9 0 -5.3 2.4 -5.3 5.3 c 0 2.9 2.4 5.3 5.3 5.3 c 0.7 0 1.5 -0.2 2.1 -0.4 l 112.6 181.3 c -2.5 0.4 -4.4 2.6 -4.4 5.2 c 0 2.9 2.4 5.3 5.3 5.3 c 0.2 0 0.3 0 0.5 0 l 18.8 76.3 c -1.9 0.8 -3.3 2.7 -3.3 4.9 c 0 2.7 2 4.9 4.5 5.2 v 99.4 c -2.6 0.4 -4.5 2.6 -4.5 5.2 c 0 1.6 0.7 3 1.8 4 l -43 65.9 c -0.7 -0.3 -1.4 -0.5 -2.2 -0.5 c -2.9 0 -5.3 2.4 -5.3 5.3 c 0 2.9 2.4 5.3 5.3 5.3 c 2.7 0 4.9 -2 5.2 -4.6 l 166.6 2 c 0.4 2.6 2.6 4.6 5.2 4.6 c 2.9 0 5.3 -2.4 5.3 -5.3 c 0 -1 -0.3 -2 -0.8 -2.8 l 60.4 -52.5 c 0.9 0.8 2.1 1.3 3.4 1.3 c 2.9 0 5.3 -2.4 5.3 -5.3 c 0 -2.9 -2.4 -5.3 -5.3 -5.3 c -0.9 0 -1.7 0.2 -2.4 0.6 l -38 -54.2 c 1 -1 1.7 -2.3 1.7 -3.8 c 0 -1.6 -0.7 -3 -1.8 -4 l 29.1 -48.4 c 0.6 0.2 1.2 0.3 1.8 0.3 c 2.9 0 5.3 -2.4 5.3 -5.3 s -2.4 -5.3 -5.3 -5.3 l 0.8 -0.1 l -12.6 -172.7 c 2.4 -0.5 4.1 -2.6 4.1 -5.2 c 0 -1.2 -0.4 -2.4 -1.2 -3.3 l 49.4 -53 c 0.9 0.6 1.9 0.9 3 0.9 c 2.9 0 5.3 -2.4 5.3 -5.3 c 0 -2.9 -2.4 -5.3 -5.3 -5.3 c -1 0 -2 0.3 -2.8 0.8 l -71.2 -83.1 c 0.8 -0.9 1.3 -2.1 1.3 -3.5 c 0 -2.9 -2.4 -5.3 -5.3 -5.3 c -1.1 0 -2.1 0.3 -3 0.9 l -45.6 -49.1 c 0.7 -0.9 1.2 -2.1 1.2 -3.3 c 0 -2.9 -2.4 -5.3 -5.3 -5.3 c -0.2 0 -0.4 0 -0.6 0 L 234.4 220 c 1.8 -0.9 3 -2.7 3 -4.8 c 0 -1.5 -0.7 -2.9 -1.7 -3.9 l 45.7 -70.9 c 0.7 0.3 1.5 0.5 2.3 0.5 c 2.9 0 5.3 -2.4 5.3 -5.3 c 0 -2.8 -2.2 -5.2 -5.1 -5.3 l -19.7 -97.2 c 1.8 -0.8 3 -2.7 3 -4.8 c 0 -2.9 -2.4 -5.3 -5.3 -5.3 c -2.2 0 -4 1.3 -4.8 3.2 l -74.7 -11.5 C 182.4 12 180 9.6 177.1 9.6 z M 338.3 551.6 c 0 0.7 0.1 1.4 0.4 2 l -65.4 38.2 l 55.5 -43.7 l 9.5 2.8 C 338.4 551.1 338.3 551.3 338.3 551.6 z M 352.1 737.6 l -40.1 29.6 l -16.4 -35 c 1.1 -0.7 1.8 -1.8 2.2 -3 l 53.6 6.2 C 351.4 736.2 351.7 736.9 352.1 737.6 z M 360.9 854.9 c 0 1 0.3 2 0.8 2.8 l -60.4 52.5 c -0.5 -0.4 -1 -0.7 -1.7 -1 l 14.4 -72.5 l 46.9 17 C 360.9 854.2 360.9 854.5 360.9 854.9 z M 74.1 180.7 c 0.9 -0.9 1.4 -2.2 1.4 -3.6 c 0 -1.2 -0.4 -2.3 -1.1 -3.2 l 70.6 -73 c 0.2 0.2 0.5 0.3 0.7 0.4 l -39.4 119.5 L 74.1 180.7 z M 279.2 132.8 L 153.4 97.2 c 0 -0.2 0 -0.4 0 -0.7 c 0 -0.7 -0.1 -1.4 -0.4 -2 l 61.4 -36.9 l 65.7 74.2 C 279.8 132.1 279.5 132.4 279.2 132.8 z M 145.2 92.2 L 134.9 81 l 39.9 -60.2 l -25.6 70.6 c -0.3 -0.1 -0.7 -0.1 -1.1 -0.1 C 147.1 91.3 146 91.6 145.2 92.2 z M 144.1 93.3 c -0.7 0.9 -1.2 2.1 -1.2 3.3 c 0 1.2 0.4 2.3 1.1 3.2 l -68.4 70.7 L 134 82.4 L 144.1 93.3 z M 145.2 108.2 L 121 234.7 c -0.1 0 -0.1 0 -0.2 0 c -1 0 -1.9 0.3 -2.7 0.7 l -10.6 -13.2 L 145.2 108.2 z M 116.9 236.4 c -0.9 0.9 -1.4 2.2 -1.4 3.6 c 0 0.5 0.1 1 0.2 1.5 l -14 6.5 c -0.5 -0.8 -1.2 -1.4 -2 -1.8 l 7.3 -22.2 L 116.9 236.4 z M 102.6 250.9 c 0 -0.5 -0.1 -1 -0.2 -1.5 l 14 -6.5 c 0.9 1.4 2.6 2.4 4.4 2.4 c 0.6 0 1.2 -0.1 1.7 -0.3 l 32.2 61.7 c 0 0 0 0 -0.1 0 L 101.5 254 C 102.2 253.1 102.6 252 102.6 250.9 z M 319.2 404.3 l -21.1 45 l -65.4 -26.1 c 0.1 -0.4 0.1 -0.8 0.1 -1.2 c 0 -0.1 0 -0.3 0 -0.4 l 84.4 -19.8 C 317.6 402.9 318.3 403.7 319.2 404.3 z M 293.8 910.9 l -95.3 -56.9 l 48.8 -37.2 c 1 0.9 2.3 1.5 3.7 1.5 c 0.5 0 1 -0.1 1.5 -0.2 l 42.5 91.7 C 294.5 910.2 294.1 910.5 293.8 910.9 z M 124.3 908.3 l 43 -65.9 c 0.7 0.3 1.4 0.5 2.2 0.5 c 1.7 0 3.1 -0.8 4.1 -1.9 l 22.1 13.2 l -71.3 54.3 C 124.4 908.4 124.3 908.4 124.3 908.3 z M 226.2 788 l 20.7 21.6 c -0.8 0.9 -1.3 2.1 -1.3 3.5 c 0 0.3 0 0.5 0.1 0.8 l -71.5 21.5 c -0.1 -0.2 -0.2 -0.4 -0.4 -0.6 L 226.2 788 z M 173.6 731 c 0.5 -0.7 0.9 -1.5 1 -2.5 h 112.7 c 0.1 0.8 0.4 1.5 0.8 2.1 l -61.9 55.2 L 173.6 731 z M 159.9 315.8 l 45.7 72.8 L 134.1 441 c -0.5 -0.5 -1.2 -1 -1.9 -1.2 l 25.4 -123.5 c 0.1 0 0.2 0 0.3 0 C 158.5 316.2 159.3 316.1 159.9 315.8 z M 262.7 593 c -0.9 0.2 -1.6 0.6 -2.3 1.2 l -34.2 -31.2 l 31.7 -32.2 c 0.9 1.1 2.2 1.9 3.7 2.1 L 262.7 593 z M 135.6 444.7 c 0 -0.1 0 -0.3 0 -0.4 l 85.4 -19.9 l 1.6 -0.4 c 0.5 1.2 1.4 2.2 2.5 2.8 l -20.5 62.5 l -69.5 -42.5 C 135.5 446.1 135.6 445.4 135.6 444.7 z M 226.7 427.3 c 0.3 0 0.6 0.1 0.9 0.1 c 0.3 0 0.6 0 0.9 -0.1 l 32.1 95.4 c -0.3 0.1 -0.5 0.2 -0.7 0.3 l -53.8 -32.9 L 226.7 427.3 z M 258.4 523.9 c -0.3 0.3 -0.6 0.7 -0.8 1.1 l -37 3.6 l -24.2 2.3 c -0.4 -1.5 -1.3 -2.7 -2.7 -3.4 l 11.8 -36 L 258.4 523.9 z M 195.7 535.1 c 0.5 -0.8 0.8 -1.6 0.8 -2.6 l 24.4 -2.4 l 36 -3.5 c -0.1 0.3 -0.1 0.7 -0.1 1 c 0 0.6 0.1 1.2 0.3 1.8 L 225.2 562 L 195.7 535.1 z M 222.3 422.1 c 0 0.1 0 0.3 0 0.4 l -87.1 20.3 c -0.1 -0.2 -0.1 -0.4 -0.2 -0.5 l 71.4 -52.3 l 17.7 28.1 C 223 419 222.3 420.5 222.3 422.1 z M 134.4 448.1 l 69.8 42.7 l -11.9 36.3 c -0.3 -0.1 -0.7 -0.1 -1 -0.1 c -0.8 0 -1.6 0.2 -2.3 0.5 L 134 448.5 C 134.1 448.4 134.2 448.3 134.4 448.1 z M 194.7 536.3 l 29.4 26.8 l -72.8 74 c -0.1 -0.1 -0.3 -0.2 -0.5 -0.3 l 39.4 -99.3 c 0.4 0.1 0.7 0.1 1.1 0.1 C 192.6 537.5 193.8 537.1 194.7 536.3 z M 225.2 564.2 l 34.3 31.3 c -0.5 0.8 -0.7 1.7 -0.7 2.7 c 0 0.3 0 0.6 0.1 0.9 l -106 39.7 c -0.1 -0.2 -0.3 -0.4 -0.4 -0.6 L 225.2 564.2 z M 174.7 837.6 c 0 -0.3 0 -0.5 -0.1 -0.8 l 54.2 -16.3 l 17.3 -5.2 c 0 0.1 0.1 0.2 0.1 0.3 L 197 853.2 l -22.7 -13.5 C 174.6 839 174.7 838.4 174.7 837.6 z M 289.2 731.9 c 0.1 0.1 0.3 0.2 0.4 0.3 l -37 75.9 c -0.5 -0.2 -1 -0.2 -1.6 -0.2 c -1 0 -2 0.3 -2.8 0.8 L 227.4 787 L 289.2 731.9 z M 264.3 592.8 l -1.1 -60 c 1.7 -0.3 3.1 -1.5 3.8 -3 l 60 17.6 l -59.4 46.8 C 266.8 593.4 265.6 592.9 264.3 592.8 z M 267.4 528.4 c 0 -0.2 0.1 -0.5 0.1 -0.7 c 0 -0.2 0 -0.4 0 -0.6 L 395.3 493 c 0.1 0.2 0.2 0.4 0.3 0.5 l -67 52.8 L 267.4 528.4 z M 262.1 522.4 L 230 426.8 c 0.9 -0.5 1.7 -1.2 2.2 -2 l 65.3 26 l -33.7 71.8 C 263.2 522.5 262.7 522.4 262.1 522.4 C 262.2 522.4 262.1 522.4 262.1 522.4 z M 225.4 417.2 L 207.7 389 l 57.7 -42.3 c 0.2 0.2 0.4 0.5 0.7 0.7 l -36.8 69.7 c -0.5 -0.2 -1.1 -0.3 -1.8 -0.3 C 226.8 416.8 226.1 416.9 225.4 417.2 z M 264.1 343.2 c 0 0.8 0.2 1.5 0.5 2.2 l -57.7 42.3 l -45.7 -72.7 c 0.6 -0.5 1.1 -1.1 1.4 -1.8 l 101.6 29 C 264.1 342.5 264.1 342.8 264.1 343.2 z M 156 315.9 l -25.4 123.5 c -0.1 0 -0.2 0 -0.3 0 c -2.8 0 -5 2.1 -5.3 4.8 l -87.3 4.7 c -0.2 -0.9 -0.6 -1.7 -1.1 -2.3 l 118.2 -131.3 C 155.2 315.6 155.6 315.7 156 315.9 z M 37.8 450.5 l 87.3 -4.7 c 0.5 2.3 2.5 4.1 4.9 4.2 l 4.9 52.2 l -97.3 -50.4 C 37.7 451.3 37.8 450.9 37.8 450.5 z M 131.6 449.8 c 0.4 -0.1 0.7 -0.2 1.1 -0.4 l 55 78.9 c -0.3 0.2 -0.5 0.5 -0.7 0.8 L 136.5 503 L 131.6 449.8 z M 186.3 530.5 c -0.2 0.5 -0.3 1.1 -0.3 1.7 c 0 2 1.1 3.7 2.7 4.6 l -39.4 99.3 c -0.1 0 -0.3 -0.1 -0.4 -0.1 l -12.2 -131.3 L 186.3 530.5 z M 153.5 641.3 c 0 -0.4 0 -0.7 -0.1 -1.1 l 106 -39.7 c 0.2 0.4 0.5 0.8 0.7 1.1 l -53.5 73.7 l -53.5 -32 C 153.3 642.7 153.5 642.1 153.5 641.3 z M 261.3 602.6 c 0.8 0.5 1.7 0.8 2.7 0.8 l 26.1 116.7 l 0.6 2.7 c -0.9 0.3 -1.6 0.9 -2.2 1.6 l -80.6 -48.3 L 261.3 602.6 z M 287.7 725.8 c -0.2 0.4 -0.3 0.8 -0.3 1.2 H 174.7 c -0.2 -1.2 -0.7 -2.2 -1.5 -3 l 33.8 -46.6 L 287.7 725.8 z M 172.5 732.1 l 52.6 54.8 l -52.3 46.7 c -0.7 -0.6 -1.6 -1 -2.6 -1.2 V 733 C 171.1 732.9 171.8 732.6 172.5 732.1 z M 125.4 909.7 l 71.7 -54.6 l 95.9 57.2 c -0.2 0.4 -0.3 0.8 -0.3 1.2 l -166.7 -2 C 125.9 910.8 125.7 910.2 125.4 909.7 z M 298.1 909 c -0.1 0 -0.2 0 -0.3 0 c -0.5 0 -1 0.1 -1.5 0.2 l -42.5 -91.7 c 0.7 -0.5 1.3 -1.1 1.7 -1.9 l 57 20.7 L 298.1 909 z M 256.1 814.2 c 0.1 -0.3 0.1 -0.7 0.1 -1.1 c 0 0 0 -0.1 0 -0.1 l 61 -18.9 c 0.6 1.4 1.7 2.5 3.1 3 l -7.5 37.7 L 256.1 814.2 z M 316.9 792.1 c 0 0.2 0 0.3 0 0.5 L 256 811.4 c -0.1 -0.3 -0.2 -0.6 -0.3 -0.8 l 55.7 -41.1 l 8.4 17.9 C 318 788.3 316.9 790.1 316.9 792.1 z M 254.7 809.4 c -0.2 -0.2 -0.3 -0.3 -0.5 -0.5 l 36.8 -76.1 c 0.5 0.2 1 0.2 1.6 0.2 c 0.5 0 1 -0.1 1.5 -0.2 l 16.5 35.3 L 254.7 809.4 z M 352.8 731.1 c -0.7 0.7 -1.2 1.7 -1.4 2.8 l -53.5 -6.2 c -0.1 -2.8 -2.4 -5.1 -5.3 -5.1 c -0.1 0 -0.3 0 -0.4 0 l -6.5 -29.1 l -20.2 -90.2 c 0.2 0 0.3 -0.1 0.5 -0.2 L 352.8 731.1 z M 338.8 549.4 l -8.5 -2.5 l 62.3 -49.1 l -46.1 49.4 c -0.9 -0.6 -1.9 -0.9 -3 -0.9 C 341.5 546.3 339.7 547.6 338.8 549.4 z M 394.9 490.9 c 0 0.2 0 0.4 0 0.6 l -127.8 34.1 c -0.4 -0.9 -1.1 -1.7 -1.9 -2.3 l 33.7 -71.9 l 96.1 38.4 C 394.9 490.1 394.9 490.5 394.9 490.9 z M 395.6 488.3 l -96 -38.3 l 21.1 -45 c 0.5 0.1 1 0.2 1.5 0.2 c 1 0 2 -0.3 2.8 -0.8 l 71.2 83.1 C 395.9 487.7 395.7 488 395.6 488.3 z M 316.9 399.9 c 0 0.1 0 0.3 0 0.4 l -84.4 19.8 c -0.4 -0.9 -1 -1.7 -1.8 -2.3 l 36.8 -69.7 c 0.6 0.2 1.2 0.4 1.9 0.4 c 1.1 0 2.1 -0.3 3 -0.9 l 45.6 49.1 C 317.3 397.5 316.9 398.7 316.9 399.9 z M 264.8 340.6 C 264.8 340.6 264.8 340.6 264.8 340.6 l -101.8 -29 c 0 -0.2 0 -0.5 0 -0.7 c 0 -1.4 -0.6 -2.7 -1.5 -3.6 l 19.3 -24.8 L 264.8 340.6 z M 160.4 306.3 c -0.8 -0.4 -1.7 -0.7 -2.6 -0.7 c -0.6 0 -1.2 0.1 -1.7 0.3 l -32.2 -61.7 c 0.3 -0.2 0.5 -0.4 0.7 -0.7 l 55 38 L 160.4 306.3 z M 125.5 242.3 c 0.3 -0.7 0.5 -1.5 0.5 -2.3 c 0 -0.1 0 -0.2 0 -0.4 l 95.4 -21.2 l 5.7 -1.3 c 0.3 0.7 0.7 1.3 1.2 1.8 l -47.8 61.4 L 125.5 242.3 z M 226.8 215.3 c 0 0.1 0 0.3 0 0.4 l -5.3 1.2 l -95.8 21.2 c 0 -0.1 -0.1 -0.2 -0.1 -0.3 l 83.6 -53.7 l 19.4 27.3 C 227.5 212.3 226.8 213.7 226.8 215.3 z M 124.8 236.5 c -0.6 -0.7 -1.4 -1.2 -2.2 -1.5 L 148 101.8 c 0.1 0 0.1 0 0.2 0 c 0.9 0 1.7 -0.2 2.4 -0.6 l 57.7 81.5 L 124.8 236.5 z M 151.8 100.4 c 0.5 -0.5 0.9 -1 1.2 -1.6 l 125.6 35.5 c -0.1 0.5 -0.2 1 -0.2 1.5 c 0 0.6 0.1 1.2 0.3 1.8 l -69.1 44.4 L 151.8 100.4 z M 261.9 33.8 c 0.3 0 0.5 0 0.8 -0.1 l 19.7 96.9 c -0.3 0.1 -0.6 0.2 -0.9 0.3 l -65.6 -74.1 l 41.8 -25.1 C 258.6 32.9 260.2 33.8 261.9 33.8 z M 152.3 93.2 c -0.4 -0.5 -1 -1 -1.6 -1.3 l 26 -71.7 c 0.2 0 0.3 0 0.5 0 c 1.2 0 2.4 -0.4 3.3 -1.1 l 33 37.3 L 152.3 93.2 z M 172.8 18 c 0.3 0.5 0.7 0.9 1.2 1.2 l -40.2 60.7 l -26.1 -28.2 c 0.7 -0.9 1.2 -2.1 1.2 -3.3 c 0 -0.5 -0.1 -1 -0.2 -1.4 L 172.8 18 z M 103.1 53.6 c 0.2 0 0.4 0 0.6 0 c 1.1 0 2.1 -0.3 3 -0.9 l 26.3 28.5 l -60.4 91.1 c -0.1 0 -0.1 -0.1 -0.2 -0.1 L 103.1 53.6 z M 72.8 181.7 c 0 0 0.1 -0.1 0.1 -0.1 l 32.9 40.9 l -7.6 23.1 c -0.3 -0.1 -0.6 -0.1 -0.9 -0.1 c -0.4 0 -0.7 0 -1.1 0.1 L 72.8 181.7 z M 36 454 c 0.3 -0.3 0.6 -0.6 0.9 -0.9 l 98.2 50.9 l 12 128.8 L 36 454 z M 150.2 646.2 c 0.8 -0.3 1.5 -0.9 2.1 -1.5 l 53.4 31.9 l -33.7 46.5 c -0.7 -0.4 -1.6 -0.6 -2.4 -0.6 c -0.2 0 -0.3 0 -0.5 0 L 150.2 646.2 z M 362.5 851.1 c -0.4 0.4 -0.7 0.8 -1 1.3 l -47.2 -17.1 l 7.5 -37.9 c 0.1 0 0.2 0 0.3 0 c 0.9 0 1.7 -0.2 2.4 -0.6 L 362.5 851.1 z M 324.3 787.3 c -0.7 -0.3 -1.4 -0.5 -2.2 -0.5 c -0.3 0 -0.6 0 -0.9 0.1 l -8.6 -18.3 l 40.5 -29.8 c 0.1 0.1 0.2 0.2 0.3 0.2 L 324.3 787.3 z M 355.8 729.6 L 355.8 729.6 c -0.6 0.1 -1.2 0.3 -1.7 0.6 l -86.7 -127.9 c 1.2 -1 2 -2.5 2 -4.1 c 0 -0.7 -0.1 -1.4 -0.4 -2 l 70.6 -41.3 c 0.9 1.1 2.2 1.8 3.7 2 L 355.8 729.6 z M 267.3 338.3 c -0.6 0.2 -1.1 0.6 -1.5 1 l -83.9 -58.1 l 47.8 -61.4 c 0.8 0.4 1.6 0.6 2.5 0.6 c 0.3 0 0.6 0 0.8 -0.1 L 267.3 338.3 z M 234.4 210.5 c -0.7 -0.3 -1.5 -0.5 -2.3 -0.5 c -0.8 0 -1.6 0.2 -2.3 0.5 l -19.3 -27.3 l 68.9 -44.3 c 0.2 0.3 0.4 0.5 0.7 0.8 L 234.4 210.5 z M 256.6 28.5 c 0 0.6 0.1 1.2 0.3 1.8 l -42.1 25.3 l -33.3 -37.7 c 0.3 -0.5 0.6 -1 0.7 -1.5 l 74.5 11.5 C 256.6 28.1 256.6 28.3 256.6 28.5 z" stroke-linecap="round"/>
</g>
</svg>