<svg xmlns="http://www.w3.org/2000/svg" width="32.797" height="26.601" viewBox="0 0 32.797 26.601">
  <g id="Group_382" data-name="Group 382" transform="translate(0)">
    <text id="B.S" transform="translate(4.99 19.843)" fill="#fff" font-size="8" font-family="Helvetica"><tspan x="0" y="0">B.S</tspan></text>
    <path id="Path_229" data-name="Path 229" d="M295.059,898.662c0,.292,0,.5,0,.709a2.95,2.95,0,0,1-3.1,3.078c-1.655.017-3.31,0-4.965,0q-6.413,0-12.826,0a3.012,3.012,0,0,1-3.334-3.326q0-5.527,0-11.053c0-2.242.938-3.293,3.235-3.551a5.341,5.341,0,0,1-.8-5.405,4.989,4.989,0,0,1,2.633-2.749c2.642-1.222,5.362-.193,7.057,2.715a5.3,5.3,0,0,1,4.382-3.166,5.05,5.05,0,0,1,3.613,1.012c2.339,1.744,2.681,4.486.917,7.581,2.319.2,3.325,1.526,3.2,3.849.25-.111.428-.177.6-.264q3.2-1.655,6.4-3.315c.968-.5,1.569-.14,1.569.953q0,7.684,0,15.368c0,1.372-.536,1.686-1.771,1.044q-3.119-1.621-6.242-3.236C295.466,898.828,295.306,898.769,295.059,898.662Zm-12.087,2.019q4.4,0,8.8,0c1.094,0,1.513-.416,1.514-1.49q0-5.67,0-11.341c0-1.091-.415-1.513-1.492-1.514q-8.83,0-17.661,0c-1.1,0-1.529.441-1.529,1.551q0,5.611,0,11.223c0,1.143.426,1.569,1.568,1.571Q278.57,900.683,282.971,900.68Zm18.839-.588V886.97a1.309,1.309,0,0,0-.223.061c-2.064,1.065-4.13,2.123-6.18,3.212a.8.8,0,0,0-.322.6c-.025,1.771-.006,3.543-.02,5.315a.654.654,0,0,0,.412.683c1.843.934,3.673,1.894,5.507,2.844C301.24,899.816,301.5,899.94,301.81,900.093ZM278.062,884.56a3.451,3.451,0,1,0-3.424-3.493A3.463,3.463,0,0,0,278.062,884.56Zm6.309-3.478a3.446,3.446,0,1,0,3.488-3.422A3.45,3.45,0,0,0,284.371,881.082Zm-1.426,2.065-.8,1.362h1.643Z" transform="translate(-270.833 -875.86)" fill="#919191"/>
  </g>
</svg>
