<?xml version="1.0" encoding="utf-8"?>
<!-- Generator: Adobe Illustrator 27.0.0, SVG Export Plug-In . SVG Version: 6.00 Build 0)  -->
<svg version="1.1" id="Layer_1" xmlns="http://www.w3.org/2000/svg" xmlns:xlink="http://www.w3.org/1999/xlink" x="0px" y="0px"
	 viewBox="0 0 38.7 31.3" style="enable-background:new 0 0 38.7 31.3;" xml:space="preserve">
<style type="text/css">
	.st0{fill:#919191;}
</style>
<g>
	<g>
		<path class="st0" d="M38.7,6.6c-0.9,1-2,1.2-3.5,1.2c-10.6,0-21.3,0-31.9,0C0.8,7.8,0,7.2,0,5.2c0-0.8,0.1-1.5,0-2.3
			C-0.2,1.6,0.3,0.7,1.5,0c12.4,0,24.8,0,37.2,0C38.7,2.2,38.7,4.4,38.7,6.6z M19.4,1.3c-5.3,0-10.7,0-16,0C2,1.2,1.5,1.6,1.6,2.7
			c0.1,0.7,0,1.5,0,2.2c0,1.6,0.1,1.7,2.1,1.7c7.7,0,15.3,0,23,0c3,0,5.9,0,8.9,0c1.2,0,1.7-0.3,1.6-1.3c-0.1-0.8-0.1-1.6,0-2.4
			c0.1-1.2-0.5-1.6-1.9-1.5C30,1.3,24.7,1.3,19.4,1.3z" fill="#919191"/>
		<path class="st0" d="M38.7,18.3c-0.9,1-2,1.3-3.5,1.2c-3.7-0.1-7.4,0-11.2,0c-2.2,0-3.1-0.7-3.1-2.5c0-1.4,0-2.8,0-4.3
			c0-1.6,0.9-2.3,2.9-2.3c4,0,8.1,0,12.1,0c1.3,0,2.1,0.5,2.8,1.3C38.7,13.9,38.7,16.1,38.7,18.3z M29.9,11.7c-2,0-3.9,0-5.9,0
			c-1,0-1.4,0.3-1.4,1.1c0,1.5,0,2.9,0,4.4c0,0.8,0.4,1.1,1.4,1.1c3.9,0,7.9,0,11.8,0c1.1,0,1.4-0.4,1.4-1.2c0-1.4,0-2.8,0-4.2
			c0-0.9-0.5-1.2-1.6-1.2C33.7,11.8,31.8,11.7,29.9,11.7z" fill="#919191"/>
		<path class="st0" d="M38.7,30.1c-0.9,1-2,1.3-3.5,1.2c-3.7-0.1-7.4,0-11.2,0c-2.2,0-3.1-0.7-3.1-2.5c0-1.4,0-2.8,0-4.3
			c0-1.6,0.9-2.3,2.9-2.3c4,0,8.1,0,12.1,0c1.3,0,2.1,0.5,2.8,1.3C38.7,25.7,38.7,27.9,38.7,30.1z M29.8,30c2,0,3.9,0,5.9,0
			c1,0,1.5-0.3,1.5-1.2c0-1.4,0-2.8,0-4.3c0-0.7-0.3-1.1-1.3-1.1c-4,0-8,0-11.9,0c-0.9,0-1.3,0.3-1.3,1c0,1.5,0,2.9,0,4.4
			c0,0.8,0.4,1.2,1.4,1.2C26,30,27.9,30,29.8,30z" fill="#919191"/>
		<path class="st0" d="M8.8,19.5c-2,0-4,0-6.1,0c-1.8,0-2.7-0.8-2.7-2.2c0-1.6,0-3.2,0-4.8c0-1.4,0.9-2.1,2.6-2.1
			c4.2,0,8.4,0,12.6,0c1.6,0,2.5,0.7,2.6,1.9c0.1,1.7,0.1,3.4,0,5.1c-0.1,1.3-1,2-2.6,2C13,19.6,10.9,19.5,8.8,19.5z M8.8,18.3
			c2,0,3.9,0,5.9,0c1,0,1.5-0.3,1.4-1.1c-0.1-1.4,0-2.8,0-4.3c0-0.8-0.4-1.2-1.4-1.2c-3.9,0-7.8,0-11.6,0c-1,0-1.5,0.3-1.5,1.1
			c0,1.4,0,2.8,0,4.3c0,0.8,0.4,1.2,1.5,1.2C5,18.2,6.9,18.3,8.8,18.3z" fill="#919191"/>
		<path class="st0" d="M9,22.2c2,0,4,0,6.1,0c1.8,0,2.7,0.7,2.7,2.2c0.1,1.5,0.1,3.1,0,4.6c0,1.5-0.9,2.2-2.8,2.3
			c-4.1,0-8.2,0-12.2,0c-1.8,0-2.7-0.8-2.7-2.2c0-1.6,0-3.2,0-4.8c0-1.4,0.9-2.1,2.6-2.1C4.8,22.2,6.9,22.2,9,22.2z M8.9,23.5
			c-1.9,0-3.8,0-5.7,0c-1.1,0-1.6,0.3-1.6,1.2c0,1.4,0,2.8,0,4.3C1.6,29.7,2,30,3,30c3.9,0,7.9,0,11.8,0c1.1,0,1.4-0.4,1.4-1.2
			c0-1.4-0.1-2.8,0-4.2c0-0.9-0.4-1.2-1.5-1.2C12.7,23.5,10.8,23.5,8.9,23.5z" fill="#919191"/>
	</g>
</g>
</svg>
