<svg xmlns="http://www.w3.org/2000/svg" width="29.194" height="24.923" viewBox="0 0 29.194 24.923">
  <g id="Group_384" transform="translate(0 -7.077)">
    <text id="ee" transform="translate(0.851 26)" fill="#fff" font-size="24" font-family="Helvetica"><tspan x="0" y="0">ee</tspan></text>
    <path id="Path_211" data-name="Path 211" d="M395.842,601.745c-1.988.257-3.959.564-5.928.621-1.965-.057-3.937-.365-5.926-.621-2.658-.341-5.4.2-8.672.372.515,1.411.845,2.282,1.152,3.162a8.676,8.676,0,0,1,.462,1.566,6.366,6.366,0,0,0,6.017,5.7c2.872.068,4.881-1.893,5.472-5.345.047-.277.1-.553.126-.834.073-.966.249-1.782,1.327-1.775h.083c1.081-.006,1.257.81,1.33,1.775.024.28.079.557.127.834.59,3.452,2.6,5.412,5.472,5.345a6.368,6.368,0,0,0,6.016-5.7,8.755,8.755,0,0,1,.462-1.566c.307-.88.638-1.751,1.149-3.162C401.242,601.941,398.5,601.4,395.842,601.745Zm-8.338,6.931a4.6,4.6,0,0,1-3.252,3.138,5.237,5.237,0,0,1-3.8-.587,6.708,6.708,0,0,1-2.647-3.185,17.372,17.372,0,0,1-.123-3.583,1.33,1.33,0,0,1,1.047-1.32,32.068,32.068,0,0,1,4.083-.22,25.735,25.735,0,0,1,4.056.337,1.324,1.324,0,0,1,1.159,1.134A19.922,19.922,0,0,1,387.5,608.676Zm14.551-.634a6.708,6.708,0,0,1-2.647,3.185,5.237,5.237,0,0,1-3.8.587,4.6,4.6,0,0,1-3.252-3.138,19.863,19.863,0,0,1-.524-4.285,1.324,1.324,0,0,1,1.158-1.134,25.757,25.757,0,0,1,4.057-.337,32.085,32.085,0,0,1,4.083.22,1.33,1.33,0,0,1,1.047,1.32A17.368,17.368,0,0,1,402.055,608.042Z" transform="translate(-375.317 -586.946)" fill="#d1d1d1"/>
    <path id="Path_212" data-name="Path 212" d="M388.351,604.568a19.921,19.921,0,0,1-.524,4.285,4.6,4.6,0,0,1-3.252,3.138,5.236,5.236,0,0,1-3.8-.587,6.708,6.708,0,0,1-2.647-3.185,17.371,17.371,0,0,1-.123-3.583,1.33,1.33,0,0,1,1.047-1.319,32.056,32.056,0,0,1,4.083-.22,25.736,25.736,0,0,1,4.056.337A1.325,1.325,0,0,1,388.351,604.568Z" transform="translate(-375.64 -587.123)" fill="#fff" opacity="0.5"/>
    <path id="Path_213" data-name="Path 213" d="M404.339,608.219a6.708,6.708,0,0,1-2.647,3.185,5.237,5.237,0,0,1-3.8.587,4.6,4.6,0,0,1-3.252-3.138,19.862,19.862,0,0,1-.524-4.285,1.325,1.325,0,0,1,1.158-1.134,25.758,25.758,0,0,1,4.057-.337,32.074,32.074,0,0,1,4.083.22,1.33,1.33,0,0,1,1.047,1.319A17.37,17.37,0,0,1,404.339,608.219Z" transform="translate(-377.601 -587.123)" fill="#fff" opacity="0.5"/>
    <path id="Path_214" data-name="Path 214" d="M378.466,596.394a9.684,9.684,0,0,1,9.02,1.327l-.148.676a20.869,20.869,0,0,0-2.716-1.082,15.76,15.76,0,0,0-3.3-.448,23.059,23.059,0,0,0-2.907.248Z" transform="translate(-375.694 -586.243)" fill="#fff"/>
    <path id="Path_215" data-name="Path 215" d="M394.94,594.959a8.075,8.075,0,0,1,9.109-1.034,28.543,28.543,0,0,0-4.588.053,29.737,29.737,0,0,0-4.431,1.424Z" transform="translate(-377.701 -585.894)" fill="#fff"/>
  </g>
</svg>
