<svg xmlns="http://www.w3.org/2000/svg" width="38.655" height="45" viewBox="0 0 38.655 45">
  <text id="ee" transform="translate(1.126 34)" fill="#ffa800" font-size="31" font-family="HelveticaNowDisplay-ExtraBold, Helvetica Now Display" font-weight="800"><tspan x="0" y="0">ee</tspan></text>
  <path id="Path_82" data-name="Path 82" d="M385.427,33.685c-2.633.34-5.243.748-7.849.825-2.6-.076-5.213-.484-7.846-.825-3.52-.452-7.149.26-11.482.493.682,1.873,1.119,3.029,1.526,4.2a11.709,11.709,0,0,1,.612,2.079,8.439,8.439,0,0,0,7.966,7.574c3.8.09,6.463-2.514,7.245-7.1.062-.368.136-.735.167-1.107.1-1.281.329-2.366,1.758-2.357h.108c1.432-.01,1.665,1.075,1.762,2.357.031.372.1.739.166,1.107.783,4.584,3.443,7.188,7.246,7.1a8.443,8.443,0,0,0,7.966-7.574,11.632,11.632,0,0,1,.611-2.079c.407-1.169.844-2.326,1.522-4.2C392.576,33.945,388.943,33.232,385.427,33.685Zm-11.04,9.205a6.107,6.107,0,0,1-4.306,4.168,6.916,6.916,0,0,1-5.03-.78,8.9,8.9,0,0,1-3.5-4.23,23.1,23.1,0,0,1-.163-4.759,1.764,1.764,0,0,1,1.386-1.752,42.223,42.223,0,0,1,5.405-.291,34.033,34.033,0,0,1,5.371.448A1.755,1.755,0,0,1,375.08,37.2,26.487,26.487,0,0,1,374.386,42.89Zm19.265-.842a8.9,8.9,0,0,1-3.5,4.23,6.917,6.917,0,0,1-5.03.78,6.106,6.106,0,0,1-4.306-4.168,26.487,26.487,0,0,1-.693-5.692,1.755,1.755,0,0,1,1.533-1.506,34.054,34.054,0,0,1,5.372-.448,42.224,42.224,0,0,1,5.405.291,1.764,1.764,0,0,1,1.386,1.752A23.1,23.1,0,0,1,393.652,42.047Z" transform="translate(-358.25 -13.375)" fill="#f60"/>
  <path id="Path_83" data-name="Path 83" d="M375.467,37.411a26.487,26.487,0,0,1-.693,5.692,6.107,6.107,0,0,1-4.306,4.168,6.916,6.916,0,0,1-5.03-.78,8.9,8.9,0,0,1-3.5-4.23,23.1,23.1,0,0,1-.163-4.759,1.764,1.764,0,0,1,1.386-1.752,42.223,42.223,0,0,1,5.405-.291,34.033,34.033,0,0,1,5.371.448A1.755,1.755,0,0,1,375.467,37.411Z" transform="translate(-358.638 -13.588)" fill="#fff200" opacity="0.5"/>
  <path id="Path_84" data-name="Path 84" d="M396.393,42.26a8.9,8.9,0,0,1-3.5,4.23,6.917,6.917,0,0,1-5.03.78,6.106,6.106,0,0,1-4.306-4.168,26.487,26.487,0,0,1-.693-5.692,1.755,1.755,0,0,1,1.533-1.506,34.054,34.054,0,0,1,5.372-.448,42.224,42.224,0,0,1,5.405.291,1.764,1.764,0,0,1,1.386,1.752A23.1,23.1,0,0,1,396.393,42.26Z" transform="translate(-360.991 -13.588)" fill="#fff200" opacity="0.5"/>
  <g id="Group_76" data-name="Group 76" transform="translate(3.606 13.408)">
    <path id="Path_85" data-name="Path 85" d="M362.373,26.666a12.791,12.791,0,0,1,11.943,1.762l-.2.9a27.441,27.441,0,0,0-3.6-1.438,20.76,20.76,0,0,0-4.367-.594,30.461,30.461,0,0,0-3.849.328Z" transform="translate(-362.308 -25.937)" fill="#ffa800"/>
  </g>
  <g id="Group_77" data-name="Group 77" transform="translate(22.824 10.055)">
    <path id="Path_86" data-name="Path 86" d="M383.935,24.8A10.67,10.67,0,0,1,396,23.43a37.639,37.639,0,0,0-6.076.072,39.216,39.216,0,0,0-5.868,1.891Z" transform="translate(-383.935 -22.163)" fill="#ffa800"/>
  </g>
</svg>
