<svg xmlns="http://www.w3.org/2000/svg" viewBox="0 0 34.713 33.87">
  <g id="Group_148" data-name="Group 148" transform="translate(0 0)">
    <path id="Path_129" data-name="Path 129" d="M229.006,891.641a16.247,16.247,0,0,1-7.859,12.618,16.066,16.066,0,0,1-5.4,2.128,3.051,3.051,0,0,1-.454.054c-.843.047-.941-.09-.666-.862a2.444,2.444,0,0,0,.27-1.017c-.108-.859.431-.932,1.045-1.084a13.835,13.835,0,1,0-15.892-19.4c-.21.435-.4.592-.89.544a5.83,5.83,0,0,0-2.347.211,14.008,14.008,0,0,1,3-5.451,16.415,16.415,0,0,1,10.7-5.789c.293-.148.637.058.924-.132h1.526a3,3,0,0,0,1.043.079,14.137,14.137,0,0,1,9.349,3.741,16.457,16.457,0,0,1,5.4,8.495,10.844,10.844,0,0,1,.305,2.867v2.068A3.63,3.63,0,0,1,229.006,891.641Z" transform="translate(-194.35 -873.457)" fill="#919191"/>
    <path id="Path_130" data-name="Path 130" d="M193.971,893.392c.286-.586.29-1.254.571-1.851a3.934,3.934,0,0,1,4.3-2.42.947.947,0,0,1,.854.624c.538,1.253,1.119,2.488,1.685,3.729a1.331,1.331,0,0,1-.486,1.909c-.449.326-.943.59-1.408.9a.813.813,0,0,0-.354,1.153,14.212,14.212,0,0,0,4.966,6.206.877.877,0,0,0,1.321-.113c.335-.346.663-.7,1.024-1.021a1.452,1.452,0,0,1,2.17-.1q1.357.979,2.7,1.976a1.746,1.746,0,0,1,.705,2.315,3.865,3.865,0,0,1-3.285,2.569c-.195.034-.412-.02-.574.145h-1.831c-2.227-.146-3.919-1.387-5.574-2.712a19.376,19.376,0,0,1-6.424-9.08,6.788,6.788,0,0,1-.282-2.33,5.378,5.378,0,0,0-.079-1.439Z" transform="translate(-193.971 -875.542)" fill="#919191"/>
    <text id="اتصل_بنا" data-name="اتصل 
بنا" transform="translate(18.556 13.82)" fill="#fff" font-size="8" font-family="ae_AlArabiya"><tspan x="-8.611" y="0">اتصل</tspan><tspan y="0"> </tspan><tspan x="-2.721" y="6">بنا</tspan></text>
  </g>
</svg>
