<?xml version="1.0" encoding="UTF-8"?>
<svg id="Layer_2" data-name="Layer 2" xmlns="http://www.w3.org/2000/svg" viewBox="0 0 273.37 264.58">
  <g id="Layer_1-2" data-name="Layer 1">
    <g>
      <path class="cls-1" d="m158.63,259.76c-9.2-3.44-6.5-21.33,4.1-24.38,2.53-.73,5.51-.7,8.11-1.23,51.58-10.44,88.2-69.98,76.88-121.15C234.67,54,171.7,10.26,111.96,27.27c-17.83,5.08-34.13,14.96-47.04,28.24-4.57,4.7-8.76,9.83-12.37,15.31-4.44,6.74-7.54,14.85-14.13,19.9-5.89,4.52-16.14,6.95-18.89-2.22-.44-1.47-.09-3.08.48-4.46.85-2.09,1.87-4.14,2.82-6.17,1.64-3.5,3.43-6.92,5.38-10.26,3.87-6.64,8.33-12.93,13.28-18.8s10.38-11.29,16.22-16.24,12.08-9.41,18.64-13.34c6.56-3.92,13.44-7.31,20.55-10.09s14.47-4.98,21.95-6.51c7.52-1.54,15.17-2.41,22.84-2.58,7.06-.15,14.13.3,21.12,1.36,31.24,4.75,60.17,22.17,80.61,46.04,22.92,26.77,32.45,60.45,29.39,95.43-5.16,59.01-49.82,108.5-108.82,117.32-2.11.31-3.89.14-5.36-.42Z"/>
      <path class="cls-1" d="m134.8,225.03s10.72,6.13,5.45,19.23c0,0-5.96,29.45-51.4,17.45,0,0-81.87-38.72-88.6-110.55-.62-6.64-.03-13.59,1.56-20.05,2.91-11.82,10.44-21.79,22.96-24.05,2.95-.53,5.92-.62,8.91-.52,2.56.09,5.78-.25,7.94,1.4,2.3,1.76,2.52,4.97,3.72,7.41,1.68,3.43,3.36,6.85,5.04,10.28,2.86,5.82,5.71,11.64,8.57,17.46.19.39.49.83.61,1.25,0,0,2.04,7.15-6.47,12.6-5.01,3-13.64,5.54-11.06,12.66,6.55,18.07,18.77,33.83,34.31,45.08,2.9,2.1,5.89,5.08,9.59,4.42,3.24-.57,6.24-3.73,8.35-5.99,0,0,9.19-12.26,18.38-4.09l22.13,16Z"/>
    </g>
    <g>
      <path class="cls-1" d="m109.02,110.9c-.11,2.58-.51,4.72-1.22,6.43-.71,1.71-1.68,3.09-2.92,4.13-1.24,1.04-2.74,1.78-4.51,2.22-1.77.44-3.77.66-5.99.66-4.77,0-8.37-1.15-10.79-3.44s-3.63-5.72-3.63-10.27v-8.31h6.88v8.05c0,2.47.6,4.36,1.8,5.67,1.2,1.31,3.18,1.96,5.93,1.96,2.61,0,4.54-.56,5.77-1.67,1.24-1.11,1.85-2.97,1.85-5.59v-37.65h6.88v31.72h4.18c.28,0,.55.03.79.08.25.05.47.18.66.37.19.19.34.49.45.87.11.39.16.92.16,1.59,0,1.2-.17,2.03-.5,2.49-.34.46-.86.69-1.56.69h-4.24Z"/>
      <path class="cls-1" d="m115.37,104.81c.78,0,1.42-.02,1.93-.05.51-.04.93-.14,1.24-.32.32-.18.55-.43.69-.77.14-.33.21-.8.21-1.4v-10.11h6.88v9c0,1.13.26,2,.79,2.62.53.62,1.41.95,2.65.98.67-1.91,1.6-3.79,2.78-5.67,1.18-1.87,2.59-3.54,4.21-5,1.62-1.46,3.42-2.66,5.4-3.57,1.98-.92,4.08-1.38,6.3-1.38,3.64,0,6.45,1.08,8.45,3.23,1.99,2.15,2.99,5.17,2.99,9.05v3.39h4.18c.28,0,.55.03.79.08.25.05.47.18.66.37.19.19.34.49.45.87.11.39.16.92.16,1.59,0,1.2-.17,2.03-.5,2.49-.34.46-.86.69-1.56.69h-31.96c-1.8,0-3.33-.29-4.59-.87-1.26-.58-2.17-1.21-2.73-1.88-.92,1.24-2.14,2-3.66,2.3-1.52.3-3.48.45-5.88.45h-2.06c-.28,0-.55-.03-.79-.08-.25-.05-.47-.18-.66-.37-.19-.19-.34-.48-.45-.87s-.16-.92-.16-1.59c0-1.2.17-2.03.5-2.49.34-.46.86-.69,1.56-.69h2.17Zm37.65,0v-2.49c0-1.8-.39-3.28-1.17-4.45-.78-1.17-2.12-1.75-4.02-1.75-1.13,0-2.22.24-3.26.71-1.04.48-2.01,1.11-2.91,1.91-.9.79-1.73,1.71-2.49,2.75-.76,1.04-1.4,2.14-1.93,3.31h15.78Z"/>
      <path class="cls-1" d="m170.12,104.81v-14.98h6.88v21.07h-12.97c-.28,0-.55-.03-.79-.08-.25-.05-.47-.18-.66-.37-.19-.19-.34-.48-.45-.87s-.16-.92-.16-1.59c0-1.2.17-2.03.5-2.49.34-.46.86-.69,1.56-.69h6.09Zm-5.19-24.14c0-1.02.37-1.91,1.11-2.65s1.62-1.11,2.65-1.11,1.91.37,2.65,1.11c.74.74,1.11,1.62,1.11,2.65s-.37,1.91-1.11,2.65c-.74.74-1.62,1.11-2.65,1.11s-1.91-.37-2.65-1.11-1.11-1.62-1.11-2.65Zm8.63,0c0-1.02.37-1.91,1.11-2.65s1.62-1.11,2.65-1.11,1.91.37,2.65,1.11,1.11,1.62,1.11,2.65-.37,1.91-1.11,2.65-1.62,1.11-2.65,1.11-1.91-.37-2.65-1.11-1.11-1.62-1.11-2.65Z"/>
      <path class="cls-1" d="m190.29,73.09v37.81h-6.88v-37.81h6.88Z"/>
      <path class="cls-1" d="m136.15,171.26c0,1.2-.17,2.03-.5,2.49-.34.46-.86.69-1.56.69h-2.22c-1.2,0-2.3-.13-3.31-.4s-1.87-.71-2.59-1.32c-.72-.62-1.29-1.44-1.69-2.46-.41-1.02-.61-2.29-.61-3.81v-29.81h6.88v28.86c0,1.24.22,2.02.66,2.36.44.34,1.07.5,1.88.5h1.01c.28,0,.55.03.79.08.25.05.47.18.66.37.19.19.34.49.45.87.11.39.16.92.16,1.59Z"/>
      <path class="cls-1" d="m137.27,168.35c1.2,0,2.04-.19,2.52-.56.48-.37.71-1.21.71-2.51v-11.91h6.88v11.33c0,1.31.25,2.24.74,2.81.49.57,1.59.85,3.28.85.28,0,.55.03.79.08.25.05.47.18.66.37.19.19.34.49.45.87.11.39.16.92.16,1.59,0,1.2-.17,2.03-.5,2.49-.34.46-.86.69-1.56.69-1.02,0-2.01-.17-2.97-.5-.95-.33-1.75-1.07-2.38-2.2-.42.6-.94,1.08-1.54,1.46-.6.37-1.24.64-1.91.82-.67.18-1.37.29-2.09.34-.72.05-1.44.08-2.14.08h-4.34c-.28,0-.55-.03-.79-.08-.25-.05-.47-.18-.66-.37-.19-.19-.34-.48-.45-.87s-.16-.92-.16-1.59c0-1.2.17-2.03.5-2.49.34-.46.86-.69,1.56-.69h3.23Zm2.86-24.14c0-1.02.37-1.91,1.11-2.65s1.62-1.11,2.65-1.11,1.91.37,2.65,1.11c.74.74,1.11,1.62,1.11,2.65s-.37,1.91-1.11,2.65c-.74.74-1.62,1.11-2.65,1.11s-1.91-.37-2.65-1.11-1.11-1.62-1.11-2.65Z"/>
      <path class="cls-1" d="m157.49,168.35v-14.98h6.88v21.07h-12.97c-.28,0-.55-.03-.79-.08-.25-.05-.47-.18-.66-.37-.19-.19-.34-.48-.45-.87s-.16-.92-.16-1.59c0-1.2.17-2.03.5-2.49.34-.46.86-.69,1.56-.69h6.09Zm-.85,14.83c0-1.02.37-1.91,1.11-2.65s1.62-1.11,2.65-1.11,1.91.37,2.65,1.11c.74.74,1.11,1.62,1.11,2.65s-.37,1.91-1.11,2.65c-.74.74-1.62,1.11-2.65,1.11s-1.91-.37-2.65-1.11-1.11-1.62-1.11-2.65Z"/>
    </g>
  </g>
</svg>