<svg xmlns="http://www.w3.org/2000/svg" width="38.268" height="31.036" viewBox="0 0 38.268 31.036">
  <g id="Group_385" data-name="Group 385" transform="translate(0 -8.964)">
    <text id="ee" transform="translate(1.115 33)" fill="#ffa800" font-size="31" font-family="Helvetica"><tspan x="0" y="0">ee</tspan></text>
    <path id="Path_113" data-name="Path 113" d="M385.155,33.683c-2.607.337-5.19.741-7.771.816-2.576-.076-5.16-.479-7.767-.816-3.485-.448-7.077.258-11.367.488.675,1.854,1.108,3,1.51,4.157a11.59,11.59,0,0,1,.606,2.059,8.354,8.354,0,0,0,7.886,7.5c3.764.089,6.4-2.489,7.172-7.027.062-.364.135-.728.165-1.1.1-1.269.326-2.343,1.74-2.333h.107c1.418-.01,1.649,1.064,1.745,2.333.031.369.1.732.164,1.1.775,4.539,3.408,7.116,7.173,7.027a8.359,8.359,0,0,0,7.886-7.5,11.513,11.513,0,0,1,.605-2.059c.4-1.158.836-2.3,1.507-4.157C392.232,33.941,388.636,33.235,385.155,33.683ZM374.225,42.8a6.046,6.046,0,0,1-4.263,4.126,6.847,6.847,0,0,1-4.98-.772,8.807,8.807,0,0,1-3.469-4.188,22.868,22.868,0,0,1-.161-4.712,1.746,1.746,0,0,1,1.372-1.735,41.8,41.8,0,0,1,5.351-.289,33.693,33.693,0,0,1,5.317.443,1.738,1.738,0,0,1,1.518,1.491A26.225,26.225,0,0,1,374.225,42.8Zm19.073-.834a8.807,8.807,0,0,1-3.469,4.188,6.848,6.848,0,0,1-4.98.772,6.045,6.045,0,0,1-4.263-4.126,26.222,26.222,0,0,1-.686-5.635,1.738,1.738,0,0,1,1.518-1.491,33.714,33.714,0,0,1,5.318-.443,41.8,41.8,0,0,1,5.351.289,1.746,1.746,0,0,1,1.372,1.735A22.864,22.864,0,0,1,393.3,41.962Z" transform="translate(-358.25 -14.567)" fill="#f60"/>
    <path id="Path_114" data-name="Path 114" d="M375.33,37.391a26.225,26.225,0,0,1-.686,5.635,6.046,6.046,0,0,1-4.263,4.126,6.847,6.847,0,0,1-4.98-.772,8.807,8.807,0,0,1-3.469-4.188,22.864,22.864,0,0,1-.161-4.712,1.746,1.746,0,0,1,1.372-1.735,41.8,41.8,0,0,1,5.351-.289,33.692,33.692,0,0,1,5.317.443A1.738,1.738,0,0,1,375.33,37.391Z" transform="translate(-358.668 -14.796)" fill="#fff200" opacity="0.5"/>
    <path id="Path_115" data-name="Path 115" d="M396.257,42.192a8.808,8.808,0,0,1-3.469,4.188,6.848,6.848,0,0,1-4.98.772,6.045,6.045,0,0,1-4.263-4.126,26.223,26.223,0,0,1-.686-5.635,1.738,1.738,0,0,1,1.518-1.491,33.713,33.713,0,0,1,5.318-.443,41.8,41.8,0,0,1,5.351.289,1.746,1.746,0,0,1,1.372,1.735A22.868,22.868,0,0,1,396.257,42.192Z" transform="translate(-361.209 -14.796)" fill="#fff200" opacity="0.5"/>
    <g id="Group_123" data-name="Group 123" transform="translate(3.57 12.284)">
      <path id="Path_116" data-name="Path 116" d="M362.372,26.658A12.663,12.663,0,0,1,374.2,28.4l-.194.889a27.169,27.169,0,0,0-3.561-1.423,20.553,20.553,0,0,0-4.323-.589,30.157,30.157,0,0,0-3.81.325Z" transform="translate(-362.308 -25.937)" fill="#ffa800"/>
    </g>
    <g id="Group_124" data-name="Group 124" transform="translate(22.596 8.964)">
      <path id="Path_117" data-name="Path 117" d="M383.935,24.777a10.564,10.564,0,0,1,11.941-1.359,37.263,37.263,0,0,0-6.015.071,38.823,38.823,0,0,0-5.809,1.872Z" transform="translate(-383.935 -22.163)" fill="#ffa800"/>
    </g>
  </g>
</svg>
