<svg xmlns="http://www.w3.org/2000/svg" width="318.993" height="168.511" viewBox="0 0 318.993 168.511">
  <path id="Path_71" data-name="Path 71" d="M340.224,309.738c.062-1.579.071-3.163.2-4.738.151-1.862.041-3.282-2.7-3.053-1.687.14-1.127-1.337-1.13-2.173-.04-8.1-.026-16.208-.026-24.312,0-4.933-.071-9.867.038-14.8.042-1.888-.475-2.688-2.687-2.618-6.83.216-5.848-.835-5.876,5.459-.053,11.979-.119,23.962.062,35.939.043,2.8-1.477,2.609-3.467,2.6-1.973-.008-3.53.222-3.491-2.592.178-13.035.028-26.073.153-39.109.024-2.52-.469-3.634-3.536-3.481-4.864.242-4.871.047-4.869,4.7,0,12.332.018,24.665-.031,37,0,1.137.683,2.864-.892,3.267a12.935,12.935,0,0,1-5.324-.016c-1.084-.2-.605-1.518-.607-2.329-.035-10.923-.124-21.848.043-32.768.041-2.653-.658-3.57-3.582-3.385-5.118.324-4.846-.87-4.846,4.555,0,10.217-.065,20.436.032,30.653.023,2.4-.315,3.626-3.463,3.6-2.957-.026-3.621-.872-3.588-3.463.139-10.833,0-21.67.106-32.5.022-2.2-.693-2.924-3.047-2.824-5.945.252-5.28-.864-5.3,4.911-.036,10.129.007,20.26-.037,30.39,0,1.073.617,2.631-.731,3.111a9.407,9.407,0,0,1-5.567.022c-1.06-.3-.6-1.548-.6-2.372-.027-12.42,0-24.841-.059-37.262-.005-1.106.843-2.873-.816-3.243a13.178,13.178,0,0,0-6.969.125c-.951.317-.491,1.593-.493,2.431-.027,12.332,0,24.665-.056,37-.005,1.137.754,2.774-.767,3.329a8.942,8.942,0,0,1-5.3.034c-1.416-.393-.816-1.823-.819-2.789-.044-13.125-.032-26.25-.035-39.375q0-1.189,0-2.378c-.006-5.289-1.251-6.155-6.994-5.119-1.925.347-1.408,1.642-1.412,2.661-.04,10.834-.027,21.669-.028,32.5,0,4.052-.164,8.112.052,12.154.152,2.838-1.676,2.51-3.615,2.572-2.03.065-3.34-.055-3.32-2.573.115-13.829.053-27.659.051-41.489,0-3.541,0-3.541-3.842-3.548a8.3,8.3,0,0,1-1.133-.009c-2.673-.379-3.538.568-3.512,3.16.136,13.741.078,27.483.034,41.225,0,1.045.661,2.6-.869,3.014a8.692,8.692,0,0,1-5.285-.1c-1.077-.417-.646-1.73-.649-2.653q-.045-18.5-.033-36.994c0-3.419-.007-3.419-3.76-3.41-4.665.011-4.662.011-4.661,4.354,0,11.892-.083,23.784.066,35.674.033,2.635-.676,3.38-3.59,3.427-3.155.051-3.49-1.157-3.475-3.567.088-13.742-.013-27.484.1-41.225.02-2.35-.729-3.047-3.218-2.947-5.906.237-5.135-.7-5.148,4.769-.028,13.211-.062,26.424.068,39.634.025,2.5-.666,3.293-3.45,3.323-2.907.03-3.66-.77-3.631-3.427.141-12.771.063-25.545.055-38.317,0-3.438-.014-3.463-3.732-3.435-5.429.042-4.593-.5-4.609,4.4-.041,12.685-.054,25.37.033,38.054.014,2.039-.562,2.909-2.846,2.65-1.9-.217-4.2.727-4.157-2.6.151-11.009.055-22.021.055-33.032,0-3.605,0-3.605-3.818-3.615a12.316,12.316,0,0,1-1.7-.016c-2.286-.326-2.872.632-2.857,2.663.086,11.187-.036,22.375.1,33.561.029,2.413-.667,3.182-3.284,3.09-2.366-.084-3.794-.134-3.763-3.027.154-14.532.02-29.069.12-43.6.015-2.165-.545-2.875-2.959-2.812-5.491.144-5.5.022-5.5,5.185,0,13.83-.1,27.66.084,41.488.04,2.965-1.567,2.649-3.64,2.741-2.309.1-3.243-.31-3.237-2.817q.147-66.461.076-132.922c0-1.057-.052-2.116,0-3.171.069-1.454-.622-1.969-2.18-2.062-6.183-.364-6.178-.407-6.178,5.348q0,65.928,0,131.858c0,3.428-2.5,4.913-6.017,3.647-.828-.3-.856-.842-.875-1.452-.03-.968-.028-1.937-.028-2.906q0-65.142-.03-130.281c0-1.238.773-3.143-.717-3.594a12.851,12.851,0,0,0-6.977.02c-1.155.32-.648,1.885-.65,2.9q-.039,25.763-.02,51.525,0,40.168-.028,80.335c0,1.145.69,2.813-.812,3.323a10.994,10.994,0,0,1-5.317.036c-.682-.12-.686-.762-.7-1.285-.029-.969-.036-1.937-.036-2.907q0-67.122-.032-134.245c0-1.143.754-2.915-.768-3.319a11.714,11.714,0,0,0-6.94.11c-1.1.406-.562,1.924-.563,2.937q-.039,31.445-.02,62.892,0,36.2-.005,72.407c0,3.2-2.986,4.86-6.135,3.458-.934-.416-.762-1.146-.773-1.8-.043-2.554-.028-5.109-.028-7.663q0-71.086,0-142.172c0-3.635,0-3.651-3.751-3.632-5.307.028-4.66-.467-4.662,4.416q-.027,72.8-.011,145.6c0,.529,0,1.057,0,1.586-.012,3.474-2.485,5-5.932,3.709a1.331,1.331,0,0,1-.906-1.456q-.031-1.453-.028-2.907,0-58.534,0-117.068c0-3.409-.012-3.411-3.708-3.413-.945,0-1.893.045-2.836,0-1.352-.06-1.847.561-1.837,1.751.021,2.378-.012,4.756-.012,7.134q0,56.156,0,112.312c0,3.373-2.713,5.006-5.987,3.6-1.408-.605-.858-1.84-.862-2.8-.042-11.275-.026-22.55-.026-33.825q0-60.119,0-120.237c0-3.712,0-3.712-3.943-3.715a7.3,7.3,0,0,1-1.133,0c-2.851-.457-3.39.8-3.381,3.245.092,24.751.06,49.5.06,74.255q0,39.9-.032,79.805c0,1.071.639,2.637-.682,3.122a8.751,8.751,0,0,1-5.556.007c-1.154-.371-.668-1.71-.669-2.619q-.039-27.218-.017-54.438,0-40.961.044-81.92c.006-2.281-.6-3.078-3.155-3-5.2.15-5.206.018-5.206,4.976q0,66.726,0,133.452c0,3.807-.005,3.811-4.161,3.813-8.415,0-16.831-.005-25.247.02-.758,0-1.658-.281-2.36.524,1.023.675,2.065.371,3.028.376,6.714.031,13.427.017,20.141.015,4.066,0,4.066,0,5.352,3.843a14.72,14.72,0,0,0,.309-2.366c-.071-1.2.558-1.488,1.71-1.485,8.7.022,17.4.033,26.1-.012,1.426-.007,1.8.554,1.734,1.743a10.421,10.421,0,0,0,.318,3.494c1-1.065.7-2.3.666-3.439-.041-1.4.549-1.8,1.995-1.8q28.082.049,56.166,0c1.528,0,1.964.521,1.945,1.851-.015,1.1-.331,2.267.4,3.528.825-1.142.519-2.287.447-3.318-.117-1.673.632-2.068,2.311-2.065q35.459.063,70.918,0c1.722,0,2.431.428,2.246,2.074a32.278,32.278,0,0,0-.022,3.427c1.245-.4,1.022-.992,1.037-1.442.137-4.028.13-4.029,4.331-4.029,17.4,0,34.8.061,52.195-.06,2.77-.019,4.088.489,3.54,3.263a10.668,10.668,0,0,0,.135,2.4c1.33-1.245.834-2.52.826-3.62-.01-1.416.364-2.014,2.055-2.009q28.083.075,56.167.008c1.445,0,2.05.379,2,1.789-.062,1.67.083,3.346.139,5.019Z" transform="translate(-21.473 -141.227)" fill="#0a3249" opacity="0.11"/>
</svg>
