<svg xmlns="http://www.w3.org/2000/svg" width="46" height="22.029" viewBox="0 0 46 22.029">
  <g id="Group_381" data-name="Group 381" transform="translate(0 -5.971)">
    <text id="seen" transform="translate(0 23)" fill="#ffa800" font-size="21" font-family="Helvetica"><tspan x="0" y="0">seen</tspan></text>
    <g id="Group_225" data-name="Group 225" transform="translate(9.535 5.971)">
      <g id="Group_224" data-name="Group 224">
        <path id="Path_232" data-name="Path 232" d="M367.92,889.42c-1.834.235-3.653.518-5.469.571-1.812-.053-3.631-.336-5.465-.571-2.453-.315-4.98.18-8,.342.475,1.3.78,2.1,1.063,2.91a7.923,7.923,0,0,1,.426,1.442,5.869,5.869,0,0,0,5.55,5.251c2.65.062,4.5-1.743,5.048-4.921.043-.255.094-.509.116-.767.068-.889.229-1.641,1.225-1.635h.076c1-.006,1.161.746,1.227,1.635.022.257.073.512.117.767.545,3.178,2.4,4.984,5.047,4.921a5.87,5.87,0,0,0,5.549-5.251,8.069,8.069,0,0,1,.426-1.442c.284-.811.589-1.612,1.06-2.91C372.9,889.6,370.369,889.105,367.92,889.42Zm-7.691,6.381a4.245,4.245,0,0,1-3,2.889,4.838,4.838,0,0,1-3.5-.541,6.173,6.173,0,0,1-2.441-2.932,15.942,15.942,0,0,1-.113-3.3,1.224,1.224,0,0,1,.965-1.215,29.6,29.6,0,0,1,3.766-.2,23.765,23.765,0,0,1,3.742.311,1.219,1.219,0,0,1,1.068,1.044A18.262,18.262,0,0,1,360.228,895.8Zm13.422-.584a6.176,6.176,0,0,1-2.442,2.932,4.837,4.837,0,0,1-3.5.541,4.245,4.245,0,0,1-3-2.889,18.263,18.263,0,0,1-.482-3.946,1.219,1.219,0,0,1,1.068-1.044,23.765,23.765,0,0,1,3.742-.311,29.6,29.6,0,0,1,3.766.2,1.226,1.226,0,0,1,.966,1.215A16,16,0,0,1,373.65,895.217Z" transform="translate(-348.986 -882.31)" fill="#ff6d00"/>
        <g id="Group_222" data-name="Group 222" transform="translate(2.513 2.325)">
          <path id="Path_233" data-name="Path 233" d="M351.892,884.492a8.949,8.949,0,0,1,8.319,1.222l-.136.623a19.339,19.339,0,0,0-2.506-1,14.612,14.612,0,0,0-3.042-.412,21.446,21.446,0,0,0-2.681.228Z" transform="translate(-351.846 -883.987)" fill="#ffa800"/>
        </g>
        <g id="Group_223" data-name="Group 223" transform="translate(15.901)">
          <path id="Path_234" data-name="Path 234" d="M367.086,883.172a7.461,7.461,0,0,1,8.4-.952,26.349,26.349,0,0,0-4.232.05,27.376,27.376,0,0,0-4.088,1.311Z" transform="translate(-367.086 -881.341)" fill="#ffa800"/>
        </g>
        <path id="Path_235" data-name="Path 235" d="M361.009,892.018a18.262,18.262,0,0,1-.482,3.946,4.245,4.245,0,0,1-3,2.889,4.838,4.838,0,0,1-3.5-.541,6.173,6.173,0,0,1-2.441-2.932,15.942,15.942,0,0,1-.113-3.3,1.224,1.224,0,0,1,.965-1.215,29.6,29.6,0,0,1,3.766-.2,23.765,23.765,0,0,1,3.742.311A1.219,1.219,0,0,1,361.009,892.018Z" transform="translate(-349.284 -882.473)" fill="#ff0" opacity="0.5"/>
        <path id="Path_236" data-name="Path 236" d="M375.757,895.38a6.176,6.176,0,0,1-2.442,2.932,4.837,4.837,0,0,1-3.5.541,4.245,4.245,0,0,1-3-2.889,18.263,18.263,0,0,1-.482-3.946,1.219,1.219,0,0,1,1.068-1.044,23.765,23.765,0,0,1,3.742-.311,29.6,29.6,0,0,1,3.766.2,1.226,1.226,0,0,1,.966,1.215A16,16,0,0,1,375.757,895.38Z" transform="translate(-351.093 -882.473)" fill="#ff0" opacity="0.5"/>
      </g>
    </g>
  </g>
</svg>
