<svg xmlns="http://www.w3.org/2000/svg" width="22.391" height="23.772" viewBox="0 0 22.391 23.772">
  <path id="Path_4" d="M35.828,437.246c2.908,0,5.815-.018,8.722.008a2.319,2.319,0,0,1,2.357,2.342q.026,7.345-.008,14.689a2.4,2.4,0,0,1-2.384,2.334,5.174,5.174,0,0,0-1.905.088c-.484.231-.74.931-1.11,1.414a7.28,7.28,0,0,1-12.035-.748,1.185,1.185,0,0,0-1.332-.741,6.455,6.455,0,0,1-1.158-.007A2.4,2.4,0,0,1,24.56,454.2c-.023-4.8.018-9.61-.032-14.414a2.6,2.6,0,0,1,2.633-2.583c1.452.042,2.907-.011,4.361-.017,1.435-.005,2.871,0,4.306,0Zm9.707,4.443H25.983c-.014.331-.036.605-.037.879-.008,2.355-.022,4.711-.012,7.066.006,1.527.045,3.053.079,4.58a.907.907,0,0,0,.85.931,13.728,13.728,0,0,0,1.7.016,7.326,7.326,0,0,1,1.7-6.3,7.077,7.077,0,0,1,6-2.438,6.939,6.939,0,0,1,4.649,2.122,7.291,7.291,0,0,1,1.992,6.635c.5,0,.951.016,1.4,0,.811-.035,1.162-.381,1.174-1.206q.043-3.366.053-6.733C45.542,445.4,45.535,443.559,45.535,441.69ZM33.627,455.181c1.32,0,2.582.009,3.843-.014a.46.46,0,0,0,.325-.311q.046-1.21.009-2.421a.453.453,0,0,0-.314-.317c-1.155-.018-2.312-.016-3.467.016-.134,0-.374.208-.379.326C33.613,453.349,33.627,454.241,33.627,455.181Zm-1.482-3.062c-.621,0-1.2-.015-1.785.012-.123.006-.338.163-.342.257-.026.854-.022,1.71,0,2.563a.336.336,0,0,0,.242.221c.618.019,1.236.011,1.888.011Zm7.124,3.062c.663,0,1.284.014,1.9-.014a.422.422,0,0,0,.292-.289q.033-1.206-.006-2.412a.433.433,0,0,0-.276-.317c-.633-.03-1.267-.015-1.914-.015Zm-5.4,1.518c.433.909.792,1.724,1.206,2.51.216.408.85.521,1.074.2a9.546,9.546,0,0,0,1.269-2.708Zm3.691-6.057c-.441-.929-.824-1.789-1.258-2.621a.713.713,0,0,0-1.08.011c-.451.827-.852,1.681-1.316,2.61Zm.538,8.4a6.124,6.124,0,0,0,2.687-2.4c-.635,0-1.142-.008-1.649.008a.324.324,0,0,0-.239.169C38.625,457.532,38.376,458.248,38.093,459.042Zm-4.85-.066c-.263-.767-.478-1.423-.718-2.07a.433.433,0,0,0-.287-.252c-.483-.026-.968-.011-1.55-.011A6.045,6.045,0,0,0,33.243,458.976Zm.094-10.648a6.046,6.046,0,0,0-2.6,2.308H32.48Zm7.42,2.307a6.057,6.057,0,0,0-2.573-2.265l.8,2.265Zm-2.738-12.114a.877.877,0,0,0-.85.894.859.859,0,0,0,1.717-.014A.878.878,0,0,0,38.018,438.521Zm6.866.889a.929.929,0,0,0-.877-.885.9.9,0,0,0-.867.887.865.865,0,0,0,.842.84A.876.876,0,0,0,44.884,439.41Zm-3.033-.031a.865.865,0,0,0-.809-.865.941.941,0,0,0-.89.868.853.853,0,0,0,.864.865A.79.79,0,0,0,41.851,439.379Z" transform="translate(-24.528 -437.184)" fill="#fff"/>
</svg>
