
<!-- Generator: Adobe Illustrator 27.0.0, SVG Export Plug-In . SVG Version: 6.00 Build 0)  -->
<svg version="1.1" xmlns="http://www.w3.org/2000/svg" xmlns:xlink="http://www.w3.org/1999/xlink"
	xml:space="preserve">
<style type="text/css">
	.st0{filter:url(#Adobe_OpacityMaskFilter);}
	.st1{fill:#FFFFFF;}
	.st2{mask:url(#Layer_1_00000127012919644775314590000010441399536100990908_);}
	.st3{opacity:0.36;}
	.st4{fill:#789FA0;}
</style>

<g id="Layer_1" style="mask:url(#Layer_1_00000062187416941437072590000002289572501594365080_);">
	<g class="st3">
		<path class="st4" d="M-27.77,488.29c4.6-9.66,12.1-14.35,22.87-12.9c5.28,0.71,7.74-1.61,10.26-6.15
			c14.75-26.61,37.37-41.15,68.02-41.25c30.72-0.1,53.33,14.55,68.05,41.12c2.79,5.04,5.73,6.39,11.01,6.34
			c16.42-0.15,22.39,6,22.43,22.34c0.01,5.8,0.1,11.61-0.02,17.41c-0.25,12.22-6.99,19.42-19.2,19.09
			c-7.65-0.21-12.02,1.69-15.83,9.08c-8.66,16.81-22.99,27.86-40.76,34.36c-2.46,0.9-4.94,1.74-7.55,2.65
			c-0.16,3.39-0.14,6.55-0.48,9.67c-1.01,9.23-8.51,15.72-17.81,15.57c-9.21-0.15-16.64-7.16-17.21-16.25
			c-0.61-9.66,5.83-17.33,15.32-18.89c9.05-1.48,18.54-2.11,26.94-5.4c32.35-12.68,48.57-49.87,36.74-82.33
			c-12.06-33.11-48.23-50.84-81.59-40c-33.63,10.92-52.2,46.39-42.44,81.05c0.91,3.24,1.88,6.46,3.16,10.8
			c-15.56-1.92-32.85,6.36-41.9-13.08C-27.77,510.45-27.77,499.37-27.77,488.29z"/>
		<path class="st4" d="M20.23,558.11c0-4.22,0-7.34,0-10.63c0.94-0.48,1.85-0.97,2.77-1.4c8.77-4.09,9.18-5.75,4.58-14.07
			c-10.81-19.54-10.44-39.05,2.22-57.41c12.5-18.13,30.67-25.73,52.24-22.24c21.93,3.55,36.57,16.86,42.82,38.31
			c9.52,32.7-14.67,66.26-48.62,67.32C57.87,558.59,39.45,558.11,20.23,558.11z M55.27,510.36c0-4.25,0-7.51,0-10.59
			c-4.11,0-7.61,0-10.95,0c0,3.95,0,7.21,0,10.59C48.24,510.36,51.57,510.36,55.27,510.36z M67.96,499.46c0,4,0,7.27,0,10.72
			c3.99,0,7.49,0,11.17,0c0-3.82,0-7.08,0-10.72C75.33,499.46,71.99,499.46,67.96,499.46z M91.55,510.06c4.35,0,7.85,0,11.21,0
			c0-3.94,0-7.21,0-10.3c-4.11,0-7.6,0-11.21,0C91.55,503.5,91.55,506.56,91.55,510.06z"/>
	</g>
</g>
</svg>
