<svg xmlns="http://www.w3.org/2000/svg" width="25.948" height="22.932" viewBox="0 0 25.948 22.932">
  <g id="Group_382" transform="translate(0 0)">
    <path id="Path_218" data-name="Path 218" d="M395.462,449.725c1.437,0,2.826.015,4.215-.006a4,4,0,0,1,2.1.563c1.559.9,1.947,2.014,1.338,3.908a1.307,1.307,0,0,0-.056.617,3.036,3.036,0,0,1-.5,2.529.819.819,0,0,0-.127.45,3.787,3.787,0,0,1-1.051,2.917.679.679,0,0,0-.118.372,4.183,4.183,0,0,1-.961,2.18,1.885,1.885,0,0,1-1.507.689c-3.219-.011-6.438-.005-9.656-.005-.082,0-.163,0-.245,0-.517-.033-.539-.056-.539-.576,0-4.072,0-8.145.011-12.216a1.431,1.431,0,0,1,.24-.741,17.764,17.764,0,0,0,1.879-4.081,1.407,1.407,0,0,0,.048-.445c0-.738,0-1.475,0-2.213a1.4,1.4,0,0,1,1.17-1.489,2.373,2.373,0,0,1,2.006.466,4.959,4.959,0,0,1,1.932,3.481,9.155,9.155,0,0,1-.117,3.178C395.511,449.416,395.494,449.537,395.462,449.725Z" transform="translate(-377.445 -442.107)" fill="#fff"/>
    <path id="Path_219" data-name="Path 219" d="M385.757,458.481q0,2.724,0,5.448a1.948,1.948,0,0,1-2.147,2.162q-2.781,0-5.561,0a1.934,1.934,0,0,1-2.11-2.114q0-5.531,0-11.06a1.936,1.936,0,0,1,2.124-2.139q2.8,0,5.6,0a1.926,1.926,0,0,1,2.091,2.091C385.763,454.74,385.757,456.61,385.757,458.481Z" transform="translate(-375.935 -443.161)" fill="#fff"/>
  </g>
</svg>
