<svg xmlns="http://www.w3.org/2000/svg" width="110" height="48" viewBox="0 0 110 48">
  <g id="Group_382" data-name="Group 382" transform="translate(0.96 -42)">
    <g id="Group_182" data-name="Group 182" transform="translate(0.04)">
      <g id="Group_181" data-name="Group 181" transform="translate(-1 32)">
        <text id="seen" transform="translate(0 52)" fill="#ffa800" font-size="48" font-family="HelveticaNowDisplay-ExtraBold, Helvetica Now Display" font-weight="800"><tspan x="0" y="0">seen</tspan></text>
        <g id="Group_180" data-name="Group 180" transform="translate(23.073 14.207)">
          <g id="Group_179" data-name="Group 179">
            <path id="Path_155" data-name="Path 155" d="M226.427,687.51c-4.06.522-8.082,1.148-12.1,1.265-4.011-.117-8.034-.742-12.093-1.265-5.426-.694-11.019.4-17.7.757,1.051,2.872,1.725,4.646,2.352,6.44a17.748,17.748,0,0,1,.943,3.19c.937,6.606,6.035,11.466,12.278,11.617,5.861.137,9.962-3.857,11.167-10.889.1-.563.209-1.127.257-1.7.15-1.965.507-3.629,2.71-3.615h.167c2.209-.014,2.567,1.65,2.716,3.615.048.571.161,1.135.257,1.7,1.206,7.032,5.307,11.026,11.168,10.889,6.243-.151,11.335-5.011,12.278-11.617a17.749,17.749,0,0,1,.943-3.19c.627-1.794,1.3-3.568,2.346-6.44C237.445,687.91,231.846,686.816,226.427,687.51ZM209.409,701.63a9.391,9.391,0,0,1-6.637,6.393,10.713,10.713,0,0,1-7.754-1.2,13.672,13.672,0,0,1-5.4-6.489,35.4,35.4,0,0,1-.25-7.3,2.709,2.709,0,0,1,2.137-2.687,65.294,65.294,0,0,1,8.332-.448,52.616,52.616,0,0,1,8.279.687,2.7,2.7,0,0,1,2.364,2.31S210.328,699.127,209.409,701.63Zm29.695-1.292a13.667,13.667,0,0,1-5.4,6.489,10.711,10.711,0,0,1-7.753,1.2,9.39,9.39,0,0,1-6.637-6.393c-.92-2.5-1.069-8.73-1.069-8.73a2.7,2.7,0,0,1,2.364-2.31,52.6,52.6,0,0,1,8.279-.687,65.313,65.313,0,0,1,8.332.448,2.708,2.708,0,0,1,2.136,2.687A35.269,35.269,0,0,1,239.1,700.337Z" transform="translate(-184.537 -671.781)" fill="#ff6d00"/>
            <g id="Group_177" data-name="Group 177" transform="translate(5.558 5.144)">
              <path id="Path_156" data-name="Path 156" d="M190.874,676.779c6.471-1.989,12.65-1.461,18.408,2.7l-.3,1.378a42.521,42.521,0,0,0-5.545-2.206,32.275,32.275,0,0,0-6.731-.912,47.337,47.337,0,0,0-5.932.5Z" transform="translate(-190.773 -675.661)" fill="#ffa800"/>
            </g>
            <g id="Group_178" data-name="Group 178" transform="translate(35.181)">
              <path id="Path_157" data-name="Path 157" d="M224.01,673.94a16.508,16.508,0,0,1,18.592-2.106c-3.126,0-6.3-.392-9.364.11s-6.034,1.9-9.044,2.9Z" transform="translate(-224.01 -669.889)" fill="#ffa800"/>
            </g>
            <path id="Path_158" data-name="Path 158" d="M211.06,693.218s-.15,6.227-1.069,8.73a9.391,9.391,0,0,1-6.637,6.393,10.713,10.713,0,0,1-7.754-1.2,13.672,13.672,0,0,1-5.4-6.489,35.394,35.394,0,0,1-.25-7.3,2.709,2.709,0,0,1,2.137-2.687,65.306,65.306,0,0,1,8.332-.448,52.608,52.608,0,0,1,8.279.687A2.7,2.7,0,0,1,211.06,693.218Z" transform="translate(-185.119 -672.099)" fill="#919191" opacity="0.5"/>
            <path id="Path_159" data-name="Path 159" d="M243.217,700.655a13.667,13.667,0,0,1-5.4,6.489,10.711,10.711,0,0,1-7.753,1.2,9.39,9.39,0,0,1-6.637-6.393c-.92-2.5-1.069-8.73-1.069-8.73a2.7,2.7,0,0,1,2.364-2.31A52.589,52.589,0,0,1,233,690.22a65.324,65.324,0,0,1,8.332.448,2.708,2.708,0,0,1,2.136,2.687A35.269,35.269,0,0,1,243.217,700.655Z" transform="translate(-188.649 -672.099)" fill="#919191" opacity="0.5"/>
          </g>
        </g>
      </g>
    </g>
  </g>
</svg>
