<svg xmlns="http://www.w3.org/2000/svg" width="25.948" height="22.932" viewBox="0 0 25.948 22.932">
  <path id="Path_216" d="M383.866,535.166c-1.436,0-2.826-.015-4.215.006a3.993,3.993,0,0,1-2.1-.564c-1.558-.9-1.947-2.014-1.337-3.907a1.331,1.331,0,0,0,.056-.617,3.035,3.035,0,0,1,.5-2.53.822.822,0,0,0,.126-.45,3.786,3.786,0,0,1,1.051-2.916.676.676,0,0,0,.118-.373,4.193,4.193,0,0,1,.961-2.18,1.885,1.885,0,0,1,1.507-.688c3.219.01,6.438.005,9.657.005.082,0,.164,0,.245,0,.517.033.539.056.539.577,0,4.072,0,8.144-.011,12.216a1.434,1.434,0,0,1-.241.742,17.761,17.761,0,0,0-1.878,4.08,1.416,1.416,0,0,0-.049.445c0,.738,0,1.476,0,2.214a1.4,1.4,0,0,1-1.17,1.489,2.377,2.377,0,0,1-2.006-.466,4.955,4.955,0,0,1-1.931-3.48,9.139,9.139,0,0,1,.117-3.178C383.818,535.474,383.835,535.353,383.866,535.166Z" transform="translate(-375.935 -519.85)" fill="#fff"/>
  <path id="Path_217" data-name="Path 217" d="M394.293,527.31q0-2.724,0-5.448a1.949,1.949,0,0,1,2.147-2.162q2.78,0,5.561,0a1.933,1.933,0,0,1,2.11,2.114q.005,5.529,0,11.06a1.935,1.935,0,0,1-2.124,2.138q-2.8,0-5.6,0a1.927,1.927,0,0,1-2.091-2.091C394.287,531.052,394.293,529.181,394.293,527.31Z" transform="translate(-378.165 -519.699)" fill="#fff"/>
</svg>
