<svg xmlns="http://www.w3.org/2000/svg" width="12.346" height="20.058" viewBox="0 0 12.346 20.058">
  <path id="Path_5" d="M73.478,437.828a6.3,6.3,0,0,1,6.583,5.493,6.382,6.382,0,0,1-.473,2.867,85.308,85.308,0,0,1-3.409,7.864c-.533,1.132-1.09,2.252-1.6,3.4a.659.659,0,0,1-.669.438.681.681,0,0,1-.664-.448c-.353-.75-.72-1.494-1.059-2.252-1.234-2.754-2.479-5.5-3.675-8.276a10.406,10.406,0,0,1-.7-2.339,5.412,5.412,0,0,1,1.146-4.255A5.833,5.833,0,0,1,73.478,437.828Zm.449,3.733A2.45,2.45,0,0,0,71.456,444a2.479,2.479,0,0,0,2.443,2.447,2.451,2.451,0,0,0,2.457-2.455A2.426,2.426,0,0,0,73.927,441.561Z" transform="translate(-67.742 -437.828)" fill="#fff"/>
</svg>
