<svg xmlns="http://www.w3.org/2000/svg" width="26.79" height="18.885" viewBox="0 0 26.79 18.885">
  <path id="Path_120" d="M402.836,592.381a10.4,10.4,0,0,0-.542-2.951,3.162,3.162,0,0,0-2.569-2.136,25.446,25.446,0,0,0-2.816-.225q-5.518-.254-11.036-.113c-1.911.048-3.826.121-5.732.238a3.424,3.424,0,0,0-3.462,2.829,15.626,15.626,0,0,0-.425,3.557,53.67,53.67,0,0,0,.056,6.412,13.6,13.6,0,0,0,.407,2.795,3.307,3.307,0,0,0,2.9,2.578,20.552,20.552,0,0,0,2.188.208c2.7.087,5.4.147,8.1.217v-.043c.368,0,.737.009,1.1,0,2.639-.087,5.277-.152,7.912-.273a3.424,3.424,0,0,0,3.6-2.994,18.657,18.657,0,0,0,.373-3.033A54.175,54.175,0,0,0,402.836,592.381Zm-15.992,7.4v-7.461c2.392,1.248,4.757,2.483,7.166,3.744C391.605,597.307,389.244,598.533,386.844,599.777Z" transform="translate(-376.186 -586.905)" fill="#fff"/>
</svg>
