<svg width="20" height="15" viewBox="0 0 20 15" fill="none" xmlns="http://www.w3.org/2000/svg">
<path d="M18.9918 0.00658089C18.9066 -0.00219363 18.8208 -0.00219363 18.7356 0.00658089H1.24322C1.1311 0.00830836 1.01974 0.0251187 0.912109 0.0565592L9.93945 9.04642L18.9918 0.00658089Z" fill="#0B0B0B"/>
<path d="M19.9164 0.874878L10.8203 9.93346C10.5862 10.1662 10.2695 10.2968 9.93945 10.2968C9.60936 10.2968 9.29268 10.1662 9.05858 9.93346L0.0437311 0.943598C0.0160177 1.04545 0.00132361 1.15041 0 1.25596V13.7506C0 14.0819 0.131639 14.3997 0.365958 14.6341C0.600277 14.8684 0.918082 15 1.24946 15H18.7419C19.0733 15 19.3911 14.8684 19.6254 14.6341C19.8597 14.3997 19.9913 14.0819 19.9913 13.7506V1.25596C19.9864 1.1258 19.9611 0.997222 19.9164 0.874878ZM2.10534 13.7506H1.23696V12.8572L5.77875 8.35289L6.65962 9.23376L2.10534 13.7506ZM18.7294 13.7506H17.8548L13.3005 9.23376L14.1814 8.35289L18.7231 12.8572L18.7294 13.7506Z" fill="#0B0B0B"/>
</svg>
