<svg width="46" height="46" viewBox="0 0 46 46" fill="none" xmlns="http://www.w3.org/2000/svg">
<path d="M45.5578 18.2779H43.7269V18.1835H23.2704V27.2753H36.116C34.2419 32.5678 29.2062 36.3671 23.2704 36.3671C15.739 36.3671 9.63278 30.2608 9.63278 22.7294C9.63278 15.198 15.739 9.09177 23.2704 9.09177C26.7469 9.09177 29.9097 10.4033 32.3179 12.5455L38.7469 6.11649C34.6874 2.33317 29.2574 0 23.2704 0C10.7181 0 0.541016 10.1771 0.541016 22.7294C0.541016 35.2817 10.7181 45.4588 23.2704 45.4588C35.8227 45.4588 45.9998 35.2817 45.9998 22.7294C45.9998 21.2054 45.843 19.7178 45.5578 18.2779Z" fill="#FFC107"/>
<path d="M3.38281 11.7505L10.8358 17.0471C12.8524 12.2088 17.7364 8.79281 23.4517 8.79281C26.9213 8.79281 30.0778 10.0612 32.4812 12.133L38.8975 5.91536C34.8461 2.25645 29.4268 0 23.4517 0C14.7386 0 7.18245 4.7668 3.38281 11.7505Z" fill="#FF3D00"/>
<path d="M23.641 45.4589C29.5188 45.4589 34.8595 43.1692 38.8975 39.4458L31.8547 33.3795C29.4932 35.2075 26.6077 36.1962 23.641 36.1938C17.7223 36.1938 12.6967 32.3522 10.8034 26.9912L3.38281 32.8108C7.14887 40.3121 14.797 45.4589 23.641 45.4589Z" fill="#4CAF50"/>
<path d="M45.5578 18.5617H43.727V18.4678H23.2705V27.5218H36.116C35.2196 30.0302 33.6048 32.2221 31.4713 33.8267L31.4747 33.8245L38.5094 39.7526C38.0117 40.203 45.9999 34.3122 45.9999 22.9948C45.9999 21.4771 45.8431 19.9956 45.5578 18.5617Z" fill="#1976D2"/>
</svg>
