<svg width="15" height="21" viewBox="0 0 15 21" fill="none" xmlns="http://www.w3.org/2000/svg">
<path d="M7.50293 10C6.83989 10 6.204 9.73661 5.73516 9.26777C5.26632 8.79893 5.00293 8.16304 5.00293 7.5C5.00293 6.83696 5.26632 6.20107 5.73516 5.73223C6.204 5.26339 6.83989 5 7.50293 5C8.16597 5 8.80186 5.26339 9.2707 5.73223C9.73954 6.20107 10.0029 6.83696 10.0029 7.5C10.0029 7.8283 9.93827 8.15339 9.81263 8.45671C9.68699 8.76002 9.50284 9.03562 9.2707 9.26777C9.03855 9.49991 8.76295 9.68406 8.45964 9.8097C8.15632 9.93534 7.83123 10 7.50293 10ZM7.50293 0.5C5.64641 0.5 3.86594 1.2375 2.55318 2.55025C1.24043 3.86301 0.50293 5.64348 0.50293 7.5C0.50293 12.75 7.50293 20.5 7.50293 20.5C7.50293 20.5 14.5029 12.75 14.5029 7.5C14.5029 5.64348 13.7654 3.86301 12.4527 2.55025C11.1399 1.2375 9.35945 0.5 7.50293 0.5Z" fill="#0B0B0B"/>
</svg>
