<svg width="26" height="25" viewBox="0 0 26 25" fill="none" xmlns="http://www.w3.org/2000/svg">
<path opacity="0.8" fill-rule="evenodd" clip-rule="evenodd" d="M8.02334 3.13377L10.1065 6.25752H13.7834H17.4603L15.3772 3.13377L13.294 0.010022H9.61711H5.9402L8.02334 3.13377ZM15.091 0.193087C15.1589 0.299294 16.093 1.70648 17.1668 3.32015L19.1192 6.25407L22.0733 6.25576L25.0275 6.25752L24.9845 5.75316C24.9312 5.12783 24.7976 4.54993 24.5763 3.98818C23.9562 2.4142 22.6045 1.06253 21.0306 0.442466C20.0911 0.0723666 19.9523 0.0566178 17.3687 0.0272676L14.9676 0L15.091 0.193087ZM4.16122 0.37127C1.88043 1.20772 0.243067 3.34365 0.0428865 5.74353L0 6.25752H4.21075C7.56187 6.25752 8.4116 6.24092 8.37288 6.17617C8.23641 5.94781 4.44099 0.270985 4.42739 0.27489C4.41867 0.277428 4.29886 0.320835 4.16122 0.37127ZM0.0356628 13.6927C0.0550561 19.189 0.0676158 19.8003 0.169138 20.1758C0.48789 21.355 0.996931 22.2577 1.80839 23.0828C2.13053 23.4103 2.52587 23.767 2.68694 23.8755C3.0942 24.1496 3.84013 24.5228 4.29209 24.6785C5.21399 24.9962 5.31083 25 12.5137 25C19.9066 25 19.8413 25.003 20.9065 24.6143C22.5282 24.0224 23.9379 22.6424 24.5763 21.0218C24.9891 19.9738 24.9684 20.3405 24.9918 13.6927L25.0131 7.62416H12.5137H0.014317L0.0356628 13.6927ZM13.2408 13.6581C15.9582 15.1667 16.4912 15.4858 16.5852 15.6605C16.7246 15.9193 16.6724 16.2683 16.4662 16.4566C16.3863 16.5295 14.8879 17.3835 13.1366 18.3542C9.61541 20.3059 9.62706 20.3012 9.25482 19.9289L9.06459 19.7387V16.0061C9.06459 12.663 9.07566 12.2579 9.17054 12.1224C9.30792 11.9263 9.63897 11.7815 9.84553 11.8274C9.93501 11.8472 11.4628 12.671 13.2408 13.6581Z" fill="white"/>
</svg>
