<svg xmlns="http://www.w3.org/2000/svg" width="23.026" height="27.738" viewBox="0 0 23.026 27.738">
  <g id="Group_387" data-name="Group 387" transform="translate(0.903)">
    <path id="Path_222" data-name="Path 222" d="M144.647,881.372a2.417,2.417,0,0,1-2,.71c-6.063-.024-12.128-.011-18.191-.013-1.472,0-1.9-.346-1.908-1.523a11.44,11.44,0,0,0-.01-1.322,1.512,1.512,0,0,1,.873-1.615h21.235ZM133.6,878.34c-3.048,0-6.1.013-9.144-.009-.746-.005-1.061.2-1.005.812.039.416.005.836.007,1.253,0,.9.054.941,1.171.941q6.556,0,13.113,0c1.7,0,3.394-.014,5.09.006.666.008.952-.2.918-.74a8.373,8.373,0,0,1,0-1.392c.071-.674-.268-.892-1.095-.883C139.636,878.358,136.617,878.34,133.6,878.34Z" transform="translate(-122.524 -877.608)" fill="#919191"/>
    <path id="Path_223" data-name="Path 223" d="M146.3,888.886a2.376,2.376,0,0,1-2,.71c-2.122-.04-4.247-.01-6.371-.014-1.283,0-1.76-.388-1.774-1.431-.011-.811-.016-1.622,0-2.433.021-.926.5-1.319,1.63-1.324,2.3-.011,4.592.014,6.887-.013a1.936,1.936,0,0,1,1.62.741Zm-5.061-3.763c-1.12,0-2.241.013-3.36-.005-.551-.01-.785.163-.776.611.018.835.02,1.67,0,2.5-.011.45.237.621.776.619q3.36-.011,6.721,0c.6,0,.808-.235.8-.691-.017-.788-.02-1.577,0-2.365.014-.512-.261-.7-.886-.683C143.426,885.141,142.334,885.122,141.242,885.122Z" transform="translate(-124.18 -878.431)" fill="#919191"/>
    <path id="Path_224" data-name="Path 224" d="M146.3,896.5a2.376,2.376,0,0,1-2,.71c-2.122-.039-4.247-.01-6.371-.014-1.283,0-1.76-.388-1.774-1.431-.011-.811-.016-1.622,0-2.433.021-.926.5-1.319,1.63-1.324,2.3-.011,4.592.014,6.887-.012a1.933,1.933,0,0,1,1.62.741Zm-5.1-.035c1.12,0,2.24-.01,3.36,0,.575.007.85-.179.84-.657-.017-.812-.011-1.623,0-2.435,0-.418-.179-.647-.754-.644q-3.4.017-6.808,0c-.513,0-.733.166-.727.577.011.835.021,1.67-.005,2.5-.015.484.244.662.822.654C139.017,896.456,140.109,896.466,141.2,896.467Z" transform="translate(-124.18 -879.356)" fill="#919191"/>
    <path id="Path_225" data-name="Path 225" d="M127.55,889.582c-1.151,0-2.3.012-3.451,0-1.017-.014-1.528-.43-1.544-1.255-.018-.906-.019-1.811,0-2.716.018-.794.51-1.2,1.5-1.21q3.58-.024,7.161,0c.9.006,1.42.386,1.457,1.1.05.973.048,1.95,0,2.924-.033.738-.581,1.139-1.5,1.152C129.966,889.6,128.758,889.582,127.55,889.582Zm.011-.732c1.12,0,2.241-.011,3.361,0,.574.008.843-.163.828-.65-.025-.811-.024-1.623,0-2.435.014-.474-.214-.659-.813-.654q-3.318.026-6.636,0c-.58,0-.854.161-.846.641.014.812.016,1.623,0,2.435-.011.476.254.669.833.662C125.378,888.842,126.47,888.851,127.562,888.851Z" transform="translate(-122.526 -878.432)" fill="#919191"/>
    <path id="Path_226" data-name="Path 226" d="M127.681,892.009c1.151,0,2.3-.013,3.451,0,1.033.015,1.526.4,1.553,1.247.029.882.027,1.765,0,2.647s-.536,1.285-1.6,1.29q-3.495.016-6.989,0c-1.015-.006-1.525-.431-1.541-1.257-.017-.9-.019-1.812,0-2.716.018-.792.513-1.193,1.5-1.208C125.265,892,126.473,892.009,127.681,892.009Zm-.055.73c-1.091,0-2.183.018-3.274-.007-.611-.014-.914.148-.9.67.022.812.014,1.623,0,2.435-.006.438.239.633.781.632,2.24-.006,4.481-.01,6.721,0,.6,0,.807-.214.792-.679-.025-.788-.028-1.577,0-2.365.018-.5-.206-.713-.851-.7C129.811,892.76,128.718,892.739,127.626,892.739Z" transform="translate(-122.526 -879.357)" fill="#919191"/>
    <text id="الاقسام" transform="translate(10.097 23.738)" fill="#fff" font-size="8" font-family="GeezaPro, Geeza Pro"><tspan x="-10.458" y="0">الاقسام</tspan></text>
  </g>
</svg>
